<svg width="24" height="24" viewBox="0 0 24 24" fill="none" xmlns="http://www.w3.org/2000/svg">
<path d="M15.1562 1.5H5.09375C4.14098 1.50114 3.22756 1.88013 2.55385 2.55385C1.88013 3.22756 1.50114 4.14098 1.5 5.09375L1.5 15.1562C1.50114 16.109 1.88013 17.0224 2.55385 17.6962C3.22756 18.3699 4.14098 18.7489 5.09375 18.75H15.1562C16.109 18.7489 17.0224 18.3699 17.6962 17.6962C18.3699 17.0224 18.7489 16.109 18.75 15.1562V5.09375C18.7489 4.14098 18.3699 3.22756 17.6962 2.55385C17.0224 1.88013 16.109 1.50114 15.1562 1.5V1.5ZM5.09375 2.9375H15.1562C15.7281 2.9375 16.2766 3.16468 16.6809 3.56905C17.0853 3.97343 17.3125 4.52188 17.3125 5.09375V15.1562C17.3113 15.4764 17.2375 15.7922 17.0969 16.0798L10.511 9.49394C10.1772 9.16013 9.78103 8.89533 9.34496 8.71467C8.90888 8.534 8.44149 8.44102 7.96947 8.44102C7.49745 8.44102 7.03006 8.534 6.59398 8.71467C6.15791 8.89533 5.76169 9.16013 5.42797 9.49394L2.9375 11.9837V5.09375C2.9375 4.52188 3.16468 3.97343 3.56905 3.56905C3.97343 3.16468 4.52188 2.9375 5.09375 2.9375ZM5.09375 17.3125C4.52188 17.3125 3.97343 17.0853 3.56905 16.6809C3.16468 16.2766 2.9375 15.7281 2.9375 15.1562V14.0163L6.44356 10.5103C6.64381 10.3099 6.88157 10.1509 7.14327 10.0425C7.40497 9.93403 7.68547 9.87821 7.96875 9.87821C8.25203 9.87821 8.53253 9.93403 8.79423 10.0425C9.05593 10.1509 9.29369 10.3099 9.49394 10.5103L16.0798 17.0969C15.7922 17.2375 15.4764 17.3113 15.1562 17.3125H5.09375Z" fill="#142232"/>
<path d="M13.0002 9.04663C13.4978 9.04663 13.9842 8.89909 14.3979 8.62267C14.8115 8.34625 15.134 7.95337 15.3244 7.49369C15.5148 7.03402 15.5646 6.52822 15.4675 6.04023C15.3705 5.55225 15.1309 5.10401 14.7791 4.75219C14.4272 4.40038 13.979 4.16078 13.491 4.06372C13.003 3.96665 12.4972 4.01647 12.0376 4.20687C11.5779 4.39727 11.185 4.71971 10.9086 5.1334C10.6322 5.54709 10.4846 6.03346 10.4846 6.53101C10.4846 7.19819 10.7497 7.83805 11.2214 8.30982C11.6932 8.78159 12.3331 9.04663 13.0002 9.04663ZM13.0002 5.45288C13.2135 5.45288 13.4219 5.51611 13.5992 5.63458C13.7765 5.75304 13.9147 5.92142 13.9963 6.11843C14.0779 6.31543 14.0993 6.5322 14.0577 6.74134C14.0161 6.95047 13.9134 7.14258 13.7626 7.29336C13.6118 7.44413 13.4197 7.54682 13.2106 7.58842C13.0014 7.63002 12.7847 7.60867 12.5877 7.52706C12.3907 7.44546 12.2223 7.30728 12.1038 7.12998C11.9853 6.95268 11.9221 6.74424 11.9221 6.53101C11.9221 6.24507 12.0357 5.97085 12.2379 5.76866C12.4401 5.56647 12.7143 5.45288 13.0002 5.45288Z" fill="#142232"/>
<path d="M21.25 15.75H19V13.5C19 13.1022 18.842 12.7206 18.5607 12.4393C18.2794 12.158 17.8978 12 17.5 12C17.1022 12 16.7206 12.158 16.4393 12.4393C16.158 12.7206 16 13.1022 16 13.5V15.75H13.75C13.3522 15.75 12.9706 15.908 12.6893 16.1893C12.408 16.4706 12.25 16.8522 12.25 17.25C12.25 17.6478 12.408 18.0294 12.6893 18.3107C12.9706 18.592 13.3522 18.75 13.75 18.75H16V21C16 21.3978 16.158 21.7794 16.4393 22.0607L16.7929 21.7071L16.4393 22.0607C16.7206 22.342 17.1022 22.5 17.5 22.5C17.8978 22.5 18.2794 22.342 18.5607 22.0607C18.842 21.7794 19 21.3978 19 21V18.75H21.25C21.6478 18.75 22.0294 18.592 22.3107 18.3107C22.592 18.0294 22.75 17.6478 22.75 17.25C22.75 16.8522 22.592 16.4706 22.3107 16.1893L21.7803 16.7197L22.3107 16.1893C22.0294 15.908 21.6478 15.75 21.25 15.75Z" fill="#142232" stroke="white" stroke-width="1.5"/>
</svg>
