<svg width="14" height="16" viewBox="0 0 14 16" fill="none" xmlns="http://www.w3.org/2000/svg">
<path d="M11.2393 15.3557C10.3714 16.1979 9.41372 16.0666 8.50092 15.6695C7.53045 15.2644 6.64327 15.2388 5.61836 15.6695C4.34203 16.2203 3.66463 16.0602 2.89594 15.3557C-1.4439 10.8883 -0.803337 4.08311 4.12904 3.82691C5.3253 3.89096 6.16284 4.48822 6.86747 4.53785C7.91479 4.32489 8.91728 3.71483 10.0383 3.79489C11.3851 3.90377 12.3924 4.43538 13.065 5.3913C10.2945 7.05657 10.9511 10.7073 13.4957 11.7321C12.9865 13.0691 12.3331 14.3901 11.2377 15.3669L11.2393 15.3557ZM6.77138 3.77888C6.64167 1.79336 8.25109 0.160122 10.1023 0C10.357 2.28974 8.02049 4.00305 6.77138 3.77888Z" fill="#142232"/>
</svg>
