<svg width="24" height="24" viewBox="0 0 24 24" fill="none" xmlns="http://www.w3.org/2000/svg">
<path d="M16.2393 19.3557C15.3714 20.1979 14.4137 20.0666 13.5009 19.6695C12.5305 19.2644 11.6433 19.2388 10.6184 19.6695C9.34203 20.2203 8.66463 20.0602 7.89594 19.3557C3.5561 14.8883 4.19666 8.08311 9.12904 7.82691C10.3253 7.89096 11.1628 8.48821 11.8675 8.53785C12.9148 8.32489 13.9173 7.71483 15.0383 7.79489C16.3851 7.90377 17.3924 8.43538 18.065 9.3913C15.2945 11.0566 15.9511 14.7073 18.4957 15.7321C17.9865 17.0691 17.3331 18.3902 16.2377 19.3669L16.2393 19.3557ZM11.7714 7.77888C11.6417 5.79336 13.2511 4.16012 15.1023 4C15.357 6.28974 13.0205 8.00305 11.7714 7.77888Z" fill="#142232"/>
</svg>
