<svg width="24" height="24" viewBox="0 0 24 24" fill="none" xmlns="http://www.w3.org/2000/svg">
<path d="M21.065 9.97761C20.9085 9.82114 20.6963 9.73324 20.475 9.73324C20.2536 9.73324 20.0414 9.82114 19.8849 9.97761L10.794 19.1077C10.4065 19.4953 9.94645 19.8027 9.44012 20.0125C8.9338 20.2222 8.39111 20.3302 7.84304 20.3303C6.73618 20.3303 5.67462 19.8907 4.89189 19.1081C4.10917 18.3255 3.66939 17.264 3.66931 16.1571C3.66924 15.0503 4.10886 13.9887 4.89148 13.206L13.696 4.36552C14.1669 3.90221 14.8017 3.6437 15.4622 3.64631C16.1228 3.64892 16.7555 3.91244 17.2226 4.37946C17.6898 4.84648 17.9534 5.47917 17.9562 6.13971C17.959 6.80025 17.7006 7.43513 17.2374 7.90604L8.43284 16.7465C8.27405 16.8986 8.06264 16.9835 7.84275 16.9835C7.62285 16.9835 7.41145 16.8986 7.25266 16.7465C7.09619 16.59 7.00829 16.3777 7.00829 16.1564C7.00829 15.9351 7.09619 15.7228 7.25266 15.5663L15.0916 7.69154C15.2436 7.53413 15.3277 7.3233 15.3258 7.10446C15.3239 6.88562 15.2361 6.67628 15.0814 6.52153C14.9266 6.36679 14.7173 6.27901 14.4985 6.27711C14.2796 6.27521 14.0688 6.35933 13.9114 6.51137L6.07249 14.3862C5.83993 14.6187 5.65546 14.8947 5.5296 15.1985C5.40374 15.5023 5.33896 15.828 5.33896 16.1568C5.33896 16.4857 5.40374 16.8113 5.5296 17.1151C5.65546 17.419 5.83993 17.695 6.07249 17.9275C6.54958 18.3828 7.1837 18.6368 7.84317 18.6368C8.50263 18.6368 9.13675 18.3828 9.61384 17.9275L18.4176 9.08622C19.1838 8.30024 19.6095 7.24405 19.6024 6.14644C19.5954 5.04883 19.1562 3.99818 18.38 3.22209C17.6038 2.446 16.5531 2.00696 15.4555 2.00008C14.3579 1.9932 13.3017 2.41904 12.5159 3.18534L3.7113 12.0258C2.61557 13.1215 2 14.6077 2 16.1573C2 17.7068 2.61557 19.193 3.7113 20.2887C4.80703 21.3844 6.29315 22 7.84275 22C9.39234 22 10.8785 21.3844 11.9742 20.2887L21.065 11.1611C21.143 11.0836 21.2049 10.9914 21.2471 10.8898C21.2894 10.7882 21.3111 10.6793 21.3111 10.5694C21.3111 10.4594 21.2894 10.3505 21.2471 10.2489C21.2049 10.1474 21.143 10.0552 21.065 9.97761Z" fill="#142232"/>
</svg>
