<svg width="24" height="24" viewBox="0 0 24 24" fill="none" xmlns="http://www.w3.org/2000/svg">
<path d="M10.614 12.8118C10.5069 12.7056 10.4218 12.5792 10.3638 12.4399C10.3058 12.3007 10.2759 12.1513 10.2759 12.0004C10.2759 11.8496 10.3058 11.7002 10.3638 11.561C10.4218 11.4217 10.5069 11.2953 10.614 11.1891L15.8594 5.95508C15.9665 5.84884 16.0515 5.72245 16.1095 5.58319C16.1676 5.44393 16.1974 5.29456 16.1974 5.1437C16.1974 4.99283 16.1676 4.84347 16.1095 4.70421C16.0515 4.56495 15.9665 4.43855 15.8594 4.33232C15.6453 4.11947 15.3556 4 15.0537 4C14.7518 4 14.4622 4.11947 14.2481 4.33232L9.00264 9.57773C8.36062 10.2205 8 11.0919 8 12.0004C8 12.909 8.36062 13.7803 9.00264 14.4232L14.2481 19.6686C14.4609 19.8797 14.7482 19.9987 15.048 20C15.1984 20.0008 15.3475 19.972 15.4867 19.9152C15.626 19.8583 15.7526 19.7745 15.8594 19.6686C15.9665 19.5623 16.0515 19.4359 16.1095 19.2967C16.1676 19.1574 16.1974 19.0081 16.1974 18.8572C16.1974 18.7063 16.1676 18.557 16.1095 18.4177C16.0515 18.2784 15.9665 18.152 15.8594 18.0458L10.614 12.8118Z" fill="#142232"/>
</svg>
