<svg width="24" height="24" viewBox="0 0 24 24" fill="none" xmlns="http://www.w3.org/2000/svg">
<path d="M10.8333 10.3333C10.1703 10.3333 9.5344 10.5967 9.06556 11.0656C8.59672 11.5344 8.33333 12.1703 8.33333 12.8333C8.33333 13.4964 8.59672 14.1323 9.06556 14.6011C9.5344 15.0699 10.1703 15.3333 10.8333 15.3333H14.1667C14.8297 15.3333 15.4656 15.0699 15.9344 14.6011C16.4033 14.1323 16.6667 13.4964 16.6667 12.8333C16.6667 12.1703 16.4033 11.5344 15.9344 11.0656C15.4656 10.5967 14.8297 10.3333 14.1667 10.3333H10.8333ZM15 12.8333C15 13.0544 14.9122 13.2663 14.7559 13.4226C14.5996 13.5789 14.3877 13.6667 14.1667 13.6667H10.8333C10.6123 13.6667 10.4004 13.5789 10.2441 13.4226C10.0878 13.2663 10 13.0544 10 12.8333C10 12.6123 10.0878 12.4004 10.2441 12.2441C10.4004 12.0878 10.6123 12 10.8333 12H14.1667C14.3877 12 14.5996 12.0878 14.7559 12.2441C14.9122 12.4004 15 12.6123 15 12.8333ZM16.6667 17.8333C16.6667 18.0543 16.5789 18.2663 16.4226 18.4226C16.2663 18.5789 16.0543 18.6667 15.8333 18.6667H9.16666C8.94565 18.6667 8.73369 18.5789 8.57741 18.4226C8.42113 18.2663 8.33333 18.0543 8.33333 17.8333C8.33333 17.6123 8.42113 17.4004 8.57741 17.2441C8.73369 17.0878 8.94565 17 9.16666 17H15.8333C16.0543 17 16.2663 17.0878 16.4226 17.2441C16.5789 17.4004 16.6667 17.6123 16.6667 17.8333ZM18.78 4.60084L17.3983 3.22085C17.0124 2.83272 16.5533 2.52498 16.0477 2.31543C15.542 2.10587 14.9998 1.99867 14.4525 2.00001H9.16666C8.062 2.00134 7.00296 2.44075 6.22185 3.22186C5.44073 4.00298 5.00132 5.06201 5 6.16668V17.8333C5.00132 18.938 5.44073 19.997 6.22185 20.7782C7.00296 21.5593 8.062 21.9987 9.16666 22H15.8333C16.938 21.9987 17.997 21.5593 18.7781 20.7782C19.5593 19.997 19.9987 18.938 20 17.8333V7.54751C20.0016 7.00008 19.8945 6.45778 19.6851 5.95198C19.4757 5.44619 19.1681 4.98695 18.78 4.60084ZM17.6017 5.77918C17.7189 5.89787 17.8244 6.02764 17.9167 6.16668H15.8333V4.08334C15.9726 4.17462 16.1021 4.27989 16.22 4.39751L17.6017 5.77918ZM18.3333 17.8333C18.3333 18.4964 18.0699 19.1323 17.6011 19.6011C17.1323 20.0699 16.4964 20.3333 15.8333 20.3333H9.16666C8.50362 20.3333 7.86774 20.0699 7.3989 19.6011C6.93006 19.1323 6.66667 18.4964 6.66667 17.8333V6.16668C6.66667 5.50364 6.93006 4.86775 7.3989 4.39891C7.86774 3.93007 8.50362 3.66668 9.16666 3.66668H14.1667V6.16668C14.1667 6.6087 14.3423 7.03263 14.6548 7.34519C14.9674 7.65775 15.3913 7.83334 15.8333 7.83334H18.3333V17.8333Z" fill="#142232"/>
</svg>
