<svg width="24" height="24" viewBox="0 0 24 24" fill="none" xmlns="http://www.w3.org/2000/svg">
<path d="M21.4036 5.90247C21.1633 5.66216 20.8625 5.46888 20.5225 5.33637C20.1824 5.20386 19.8116 5.13536 19.4362 5.13574H5.62393L5.58805 4.88586C5.51462 4.36646 5.21505 3.88757 4.74613 3.53997C4.27721 3.19238 3.67154 3.00024 3.04395 3L2.8543 3C2.62772 3 2.41043 3.075 2.25022 3.20851C2.09001 3.34202 2 3.5231 2 3.71191C2 3.90072 2.09001 4.0818 2.25022 4.21531C2.41043 4.34882 2.62772 4.42383 2.8543 4.42383H3.04395C3.2532 4.42385 3.45516 4.48787 3.61152 4.60374C3.76789 4.71961 3.86779 4.87927 3.89227 5.05245L5.06778 13.3818C5.18982 14.2481 5.68926 15.0468 6.47131 15.6265C7.25336 16.2062 8.26358 16.5264 9.31022 16.5264H18.2316C18.4582 16.5264 18.6755 16.4513 18.8357 16.3178C18.9959 16.1843 19.0859 16.0033 19.0859 15.8144C19.0859 15.6256 18.9959 15.4445 18.8357 15.311C18.6755 15.1775 18.4582 15.1025 18.2316 15.1025H9.31022C8.78146 15.1013 8.26609 14.9638 7.83479 14.7089C7.40349 14.454 7.07735 14.0941 6.9011 13.6787H17.0843C18.0858 13.6788 19.0555 13.3856 19.8239 12.8503C20.5923 12.3151 21.1106 11.5719 21.2883 10.7506L21.9589 7.65093C22.0259 7.34339 22.0108 7.02734 21.9149 6.72518C21.8189 6.42303 21.6444 6.14216 21.4036 5.90247ZM20.2819 7.3982L19.6105 10.4979C19.5038 10.9912 19.1923 11.4376 18.7304 11.7588C18.2686 12.08 17.6859 12.2556 17.0843 12.2549H6.62943L5.82554 6.55957H19.4362C19.5617 6.55894 19.6858 6.58137 19.7997 6.62524C19.9136 6.66912 20.0146 6.73338 20.0953 6.81344C20.176 6.8935 20.2346 6.98741 20.2669 7.08847C20.2991 7.18954 20.3043 7.29529 20.2819 7.3982Z" fill="#a1a7ad"/>
<path d="M7.98008 20.0859C8.92371 20.0859 9.68867 19.4485 9.68867 18.6621C9.68867 17.8758 8.92371 17.2383 7.98008 17.2383C7.03645 17.2383 6.27148 17.8758 6.27148 18.6621C6.27148 19.4485 7.03645 20.0859 7.98008 20.0859Z" fill="#a1a7ad"/>
<path d="M16.523 20.0859C17.4667 20.0859 18.2316 19.4485 18.2316 18.6621C18.2316 17.8758 17.4667 17.2383 16.523 17.2383C15.5794 17.2383 14.8145 17.8758 14.8145 18.6621C14.8145 19.4485 15.5794 20.0859 16.523 20.0859Z" fill="#a1a7ad"/>
</svg>
