<svg width="24" height="24" viewBox="0 0 24 24" fill="none" xmlns="http://www.w3.org/2000/svg">
<path d="M21.9995 15.3335V19.5001C21.9995 20.1631 21.7361 20.799 21.2673 21.2678C20.7984 21.7366 20.1626 22 19.4995 22H15.333C14.1639 21.9988 13.0157 21.6902 12.0036 21.1052C10.9915 20.5201 10.151 19.6792 9.56647 18.6668C10.1947 18.6623 10.8208 18.593 11.4348 18.4601C11.9024 19.0448 12.4956 19.5168 13.1704 19.841C13.8452 20.1653 14.5843 20.3336 15.333 20.3334H19.4995C19.7206 20.3334 19.9325 20.2456 20.0888 20.0893C20.2451 19.933 20.3329 19.7211 20.3329 19.5001V15.3335C20.3327 14.5846 20.1639 13.8453 19.839 13.1704C19.5141 12.4956 19.0415 11.9026 18.4562 11.4353C18.5903 10.8214 18.6606 10.1953 18.6662 9.56699C19.6787 10.1515 20.5196 10.992 21.1046 12.0041C21.6897 13.0163 21.9983 14.1645 21.9995 15.3335ZM16.9804 10.0428C17.0584 8.9692 16.9043 7.8914 16.5287 6.88264C16.153 5.87388 15.5646 4.95779 14.8035 4.19664C14.0423 3.43549 13.1263 2.84711 12.1175 2.47147C11.1087 2.09583 10.0309 1.94175 8.95732 2.01968C7.0548 2.23696 5.29735 3.1423 4.01593 4.56524C2.7345 5.98817 2.01752 7.83051 2 9.74532V13.9452C2 16.0552 3.2558 17.0001 4.49994 17.0001H9.24981C11.1654 16.9836 13.0089 16.2671 14.4328 14.9856C15.8568 13.7041 16.7629 11.9461 16.9804 10.0428ZM13.6247 5.37626C14.2163 5.96917 14.6736 6.68223 14.9658 7.4672C15.2579 8.25217 15.378 9.09073 15.318 9.92615C15.1401 11.4125 14.4251 12.7826 13.3075 13.7785C12.1899 14.7744 10.7468 15.3274 9.24981 15.3335H4.49994C3.72662 15.3335 3.66662 14.271 3.66662 13.9452V9.74532C3.67357 8.249 4.22715 6.80681 5.22318 5.69015C6.21921 4.57349 7.58902 3.85936 9.07482 3.68214C9.21315 3.67214 9.35148 3.66714 9.48981 3.66714C10.2575 3.66643 11.0178 3.817 11.7273 4.11026C12.4368 4.40352 13.0815 4.83372 13.6247 5.37626Z" fill="#a1a7ad"/>
</svg>
