<svg width="24" height="24" viewBox="0 0 24 24" fill="none" xmlns="http://www.w3.org/2000/svg">
<path d="M19.2388 7.24935C19.0791 7.08969 18.8625 7 18.6367 7C18.4109 7 18.1943 7.08969 18.0346 7.24935L10.1203 15.1636L6.46421 11.5075C6.38565 11.4262 6.29168 11.3613 6.18777 11.3167C6.08387 11.272 5.97212 11.2485 5.85904 11.2476C5.74596 11.2466 5.63382 11.2681 5.52915 11.311C5.42449 11.3538 5.3294 11.417 5.24944 11.497C5.16948 11.5769 5.10624 11.672 5.06342 11.7767C5.0206 11.8814 4.99905 11.9935 5.00003 12.1066C5.00101 12.2197 5.02451 12.3314 5.06914 12.4353C5.11378 12.5392 5.17866 12.6332 5.26 12.7117L9.51819 16.9699C9.67789 17.1296 9.89447 17.2193 10.1203 17.2193C10.3461 17.2193 10.5627 17.1296 10.7224 16.9699L19.2388 8.45356C19.3984 8.29386 19.4881 8.07728 19.4881 7.85145C19.4881 7.62563 19.3984 7.40905 19.2388 7.24935Z" fill="#142232"/>
</svg>
