<svg width="24" height="24" viewBox="0 0 24 24" fill="none" xmlns="http://www.w3.org/2000/svg">
<path d="M19.8333 5.33333H17.25C17.0566 4.39284 16.5449 3.54779 15.801 2.9406C15.0572 2.33341 14.1268 2.00121 13.1667 2L11.5 2C10.5398 2.00121 9.60943 2.33341 8.86562 2.9406C8.12182 3.54779 7.61008 4.39284 7.41667 5.33333H4.83333C4.61232 5.33333 4.40036 5.42113 4.24408 5.57741C4.0878 5.73369 4 5.94565 4 6.16667C4 6.38768 4.0878 6.59964 4.24408 6.75592C4.40036 6.9122 4.61232 7 4.83333 7H5.66667V17.8333C5.66799 18.938 6.1074 19.997 6.88852 20.7782C7.66963 21.5593 8.72867 21.9987 9.83333 22H14.8333C15.938 21.9987 16.997 21.5593 17.7782 20.7782C18.5593 19.997 18.9987 18.938 19 17.8333V7H19.8333C20.0543 7 20.2663 6.9122 20.4226 6.75592C20.5789 6.59964 20.6667 6.38768 20.6667 6.16667C20.6667 5.94565 20.5789 5.73369 20.4226 5.57741C20.2663 5.42113 20.0543 5.33333 19.8333 5.33333ZM11.5 3.66667H13.1667C13.6836 3.6673 14.1876 3.82781 14.6097 4.1262C15.0317 4.42459 15.3512 4.84624 15.5242 5.33333H9.1425C9.31549 4.84624 9.63492 4.42459 10.057 4.1262C10.4791 3.82781 10.9831 3.6673 11.5 3.66667ZM17.3333 17.8333C17.3333 18.4964 17.0699 19.1323 16.6011 19.6011C16.1323 20.0699 15.4964 20.3333 14.8333 20.3333H9.83333C9.17029 20.3333 8.53441 20.0699 8.06557 19.6011C7.59673 19.1323 7.33333 18.4964 7.33333 17.8333V7H17.3333V17.8333Z" fill="#142232"/>
<path d="M10.6663 16.9999C10.8874 16.9999 11.0993 16.9121 11.2556 16.7558C11.4119 16.5995 11.4997 16.3876 11.4997 16.1666V11.1666C11.4997 10.9456 11.4119 10.7336 11.2556 10.5773C11.0993 10.421 10.8874 10.3333 10.6663 10.3333C10.4453 10.3333 10.2334 10.421 10.0771 10.5773C9.92081 10.7336 9.83301 10.9456 9.83301 11.1666V16.1666C9.83301 16.3876 9.92081 16.5995 10.0771 16.7558C10.2334 16.9121 10.4453 16.9999 10.6663 16.9999Z" fill="#142232"/>
<path d="M13.9998 16.9999C14.2209 16.9999 14.4328 16.9121 14.5891 16.7558C14.7454 16.5995 14.8332 16.3876 14.8332 16.1666V11.1666C14.8332 10.9456 14.7454 10.7336 14.5891 10.5773C14.4328 10.421 14.2209 10.3333 13.9998 10.3333C13.7788 10.3333 13.5669 10.421 13.4106 10.5773C13.2543 10.7336 13.1665 10.9456 13.1665 11.1666V16.1666C13.1665 16.3876 13.2543 16.5995 13.4106 16.7558C13.5669 16.9121 13.7788 16.9999 13.9998 16.9999Z" fill="#142232"/>
</svg>
