<svg width="24" height="24" viewBox="0 0 24 24" fill="none" xmlns="http://www.w3.org/2000/svg">
<path d="M17.8333 6.33333H16.0833C15.8899 5.39284 15.3782 4.54779 14.6344 3.9406C13.8906 3.33341 12.9602 3.00121 12 3H6.16667C5.062 3.00132 4.00296 3.44073 3.22185 4.22185C2.44073 5.00296 2.00132 6.062 2 7.16667L2 14.6667C2.00209 15.413 2.25461 16.1371 2.71711 16.7229C3.17961 17.3087 3.82533 17.7223 4.55083 17.8975C4.4723 18.3145 4.48572 18.7437 4.59016 19.155C4.69459 19.5663 4.88753 19.9499 5.1555 20.279C5.42347 20.608 5.76001 20.8747 6.14166 21.0602C6.5233 21.2458 6.94084 21.3459 7.36514 21.3534C7.78944 21.361 8.21029 21.2759 8.5983 21.104C8.98631 20.9322 9.33215 20.6777 9.61168 20.3584C9.8912 20.0391 10.0977 19.6626 10.2167 19.2553C10.3357 18.848 10.3645 18.4196 10.3008 18H13.7025C13.6811 18.1379 13.6696 18.2771 13.6683 18.4167C13.6683 19.1902 13.9756 19.9321 14.5226 20.4791C15.0696 21.026 15.8115 21.3333 16.585 21.3333C17.3585 21.3333 18.1004 21.026 18.6474 20.4791C19.1944 19.9321 19.5017 19.1902 19.5017 18.4167C19.5007 18.2424 19.4837 18.0686 19.4508 17.8975C20.176 17.722 20.8214 17.3082 21.2835 16.7225C21.7457 16.1367 21.998 15.4128 22 14.6667V10.5C21.9987 9.39534 21.5593 8.3363 20.7782 7.55518C19.997 6.77407 18.938 6.33466 17.8333 6.33333ZM20.3333 10.5V11.3333H16.1667V8H17.8333C18.4964 8 19.1323 8.26339 19.6011 8.73223C20.0699 9.20107 20.3333 9.83696 20.3333 10.5ZM3.66667 14.6667V7.16667C3.66667 6.50363 3.93006 5.86774 4.3989 5.3989C4.86774 4.93006 5.50363 4.66667 6.16667 4.66667H12C12.663 4.66667 13.2989 4.93006 13.7678 5.3989C14.2366 5.86774 14.5 6.50363 14.5 7.16667V16.3333H5.33333C4.89131 16.3333 4.46738 16.1577 4.15482 15.8452C3.84226 15.5326 3.66667 15.1087 3.66667 14.6667ZM8.66667 18.4167C8.66667 18.7482 8.53497 19.0661 8.30055 19.3006C8.06613 19.535 7.74819 19.6667 7.41667 19.6667C7.08515 19.6667 6.7672 19.535 6.53278 19.3006C6.29836 19.0661 6.16667 18.7482 6.16667 18.4167C6.16718 18.2742 6.19343 18.1331 6.24417 18H8.58917C8.6399 18.1331 8.66615 18.2742 8.66667 18.4167ZM16.5833 19.6667C16.2518 19.6667 15.9339 19.535 15.6995 19.3006C15.465 19.0661 15.3333 18.7482 15.3333 18.4167C15.3337 18.2742 15.36 18.133 15.4108 18H17.7558C17.8067 18.133 17.833 18.2742 17.8333 18.4167C17.8333 18.7482 17.7016 19.0661 17.4672 19.3006C17.2328 19.535 16.9149 19.6667 16.5833 19.6667ZM18.6667 16.3333H16.1667V13H20.3333V14.6667C20.3333 15.1087 20.1577 15.5326 19.8452 15.8452C19.5326 16.1577 19.1087 16.3333 18.6667 16.3333Z" fill="#a1a7ad"/>
</svg>
