<svg width="24" height="24" viewBox="0 0 24 24" fill="none" xmlns="http://www.w3.org/2000/svg">
<path fill-rule="evenodd" clip-rule="evenodd" d="M14.124 2.87539L14.855 3.60639C15.138 3.88739 15.516 4.04339 15.918 4.04339H16.946C18.607 4.04339 19.958 5.39439 19.958 7.05539V8.08239C19.958 8.48339 20.114 8.86239 20.397 9.14739L21.115 9.86639C21.684 10.4314 22 11.1864 22.003 11.9914C22.006 12.7964 21.695 13.5534 21.128 14.1244L20.395 14.8554C20.114 15.1384 19.958 15.5154 19.958 15.9174V16.9464C19.958 18.6064 18.607 19.9574 16.947 19.9574H15.916C15.52 19.9574 15.133 20.1174 14.852 20.3964L14.134 21.1144C13.547 21.7054 12.773 22.0014 11.999 22.0014C11.232 22.0014 10.465 21.7114 9.87797 21.1294C9.86997 21.1214 9.86197 21.1134 9.85397 21.1044L9.14397 20.3954C8.86097 20.1144 8.48297 19.9584 8.08097 19.9574H7.05497C5.39397 19.9574 4.04397 18.6064 4.04397 16.9464V15.9154C4.04397 15.5134 3.88697 15.1364 3.60497 14.8524L2.88597 14.1344C1.71797 12.9724 1.70397 11.0804 2.85097 9.90039L2.87797 9.87339L3.60597 9.14339C3.88697 8.86039 4.04397 8.48139 4.04397 8.08039V7.05539C4.04397 5.39539 5.39397 4.04439 7.05397 4.04339H8.08397C8.48497 4.04339 8.86297 3.88639 9.14997 3.60339L9.86497 2.88639C11.034 1.70939 12.945 1.70339 14.124 2.87539ZM10.928 3.94539L10.209 4.66639C9.63497 5.23339 8.88197 5.54339 8.08397 5.54339H7.05497C6.22197 5.54439 5.54397 6.22239 5.54397 7.05539V8.08039C5.54397 8.88139 5.23297 9.63439 4.66897 10.2024L3.95897 10.9134C3.95197 10.9214 3.94497 10.9274 3.93797 10.9344C3.35097 11.5254 3.35397 12.4844 3.94497 13.0714L4.66697 13.7934C5.23297 14.3614 5.54397 15.1144 5.54397 15.9154V16.9464C5.54397 17.7794 6.22097 18.4574 7.05497 18.4574H8.08197C8.88397 18.4584 9.63697 18.7694 10.204 19.3344L10.925 20.0534L10.945 20.0754C11.535 20.6514 12.485 20.6444 13.071 20.0554L13.793 19.3354C14.353 18.7764 15.127 18.4574 15.916 18.4574H16.946C17.78 18.4574 18.458 17.7794 18.458 16.9464V15.9174C18.458 15.1164 18.768 14.3634 19.334 13.7964L20.054 13.0754C20.347 12.7814 20.504 12.4004 20.503 11.9964C20.502 11.5934 20.343 11.2144 20.056 10.9284L19.335 10.2064C18.768 9.63539 18.458 8.88339 18.458 8.08239V7.05539C18.458 6.22139 17.78 5.54339 16.946 5.54339H15.918C15.117 5.54339 14.364 5.23239 13.797 4.66939L13.075 3.94639C12.474 3.35139 11.515 3.35439 10.928 3.94539ZM14.5036 13.4991C15.0566 13.4991 15.5036 13.9461 15.5036 14.4991C15.5036 15.0521 15.0566 15.4991 14.5036 15.4991C13.9506 15.4991 13.4986 15.0521 13.4986 14.4991C13.4986 13.9461 13.9416 13.4991 14.4946 13.4991H14.5036ZM15.1014 8.90039C15.3944 9.19339 15.3944 9.66839 15.1014 9.96139L9.96037 15.1014C9.81437 15.2484 9.62237 15.3214 9.43037 15.3214C9.23837 15.3214 9.04637 15.2484 8.90037 15.1014C8.60737 14.8084 8.60737 14.3344 8.90037 14.0414L14.0404 8.90039C14.3334 8.60739 14.8084 8.60739 15.1014 8.90039ZM9.50357 8.49909C10.0566 8.49909 10.5036 8.94609 10.5036 9.49909C10.5036 10.0521 10.0566 10.4991 9.50357 10.4991C8.95057 10.4991 8.49857 10.0521 8.49857 9.49909C8.49857 8.94609 8.94157 8.49909 9.49457 8.49909H9.50357Z" fill="black"/>
</svg>
