<svg width="24" height="24" viewBox="0 0 24 24" fill="none" xmlns="http://www.w3.org/2000/svg">
<path d="M18.9575 6.61335L16.0542 3.70835C15.5136 3.16513 14.8707 2.73446 14.1627 2.44123C13.4546 2.14801 12.6955 1.99805 11.9292 2.00002H8.16666C7.062 2.00134 6.00296 2.44075 5.22185 3.22187C4.44073 4.00298 4.00132 5.06202 4 6.16668V17.8333C4.00132 18.938 4.44073 19.997 5.22185 20.7782C6.00296 21.5593 7.062 21.9987 8.16666 22H16.5C17.6046 21.9987 18.6637 21.5593 19.4448 20.7782C20.2259 19.997 20.6653 18.938 20.6667 17.8333V10.7375C20.6687 9.9712 20.5187 9.21209 20.2253 8.50416C19.932 7.79623 19.501 7.15355 18.9575 6.61335ZM17.7792 7.79168C18.0336 8.05347 18.2524 8.34767 18.43 8.66668H14.8333C14.6123 8.66668 14.4003 8.57888 14.2441 8.4226C14.0878 8.26632 14 8.05436 14 7.83335V4.23668C14.3191 4.41412 14.6136 4.63265 14.8758 4.88668L17.7792 7.79168ZM19 17.8333C19 18.4964 18.7366 19.1323 18.2678 19.6011C17.7989 20.0699 17.163 20.3333 16.5 20.3333H8.16666C7.50362 20.3333 6.86774 20.0699 6.3989 19.6011C5.93006 19.1323 5.66667 18.4964 5.66667 17.8333V6.16668C5.66667 5.50364 5.93006 4.86776 6.3989 4.39892C6.86774 3.93008 7.50362 3.66668 8.16666 3.66668H11.9292C12.0658 3.66668 12.1983 3.69335 12.3333 3.70585V7.83335C12.3333 8.49639 12.5967 9.13227 13.0656 9.60111C13.5344 10.07 14.1703 10.3333 14.8333 10.3333H18.9608C18.9733 10.4683 19 10.6 19 10.7375V17.8333Z" fill="#142232"/>
</svg>
