<svg width="24" height="24" viewBox="0 0 24 24" fill="none" xmlns="http://www.w3.org/2000/svg">
<path d="M16.2388 7.24935C16.0791 7.08969 15.8625 7 15.6367 7C15.4109 7 15.1943 7.08969 15.0346 7.24935L7.12029 15.1636L3.46421 11.5075C3.38565 11.4262 3.29168 11.3613 3.18777 11.3167C3.08387 11.272 2.97212 11.2485 2.85904 11.2476C2.74596 11.2466 2.63382 11.2681 2.52915 11.311C2.42449 11.3538 2.3294 11.417 2.24944 11.497C2.16948 11.5769 2.10624 11.672 2.06342 11.7767C2.0206 11.8814 1.99905 11.9935 2.00003 12.1066C2.00101 12.2197 2.02451 12.3314 2.06914 12.4353C2.11378 12.5392 2.17866 12.6332 2.26 12.7117L6.51819 16.9699C6.67789 17.1296 6.89447 17.2193 7.12029 17.2193C7.34612 17.2193 7.5627 17.1296 7.7224 16.9699L16.2388 8.45356C16.3984 8.29386 16.4881 8.07728 16.4881 7.85145C16.4881 7.62563 16.3984 7.40905 16.2388 7.24935Z" fill="#142232"/>
<path d="M22.1042 6.89574L22.1044 6.89585C22.3577 7.14932 22.5001 7.49305 22.5001 7.85145C22.5001 8.20986 22.3577 8.55359 22.1044 8.80706L22.1043 8.80712L13.5879 17.3235L13.5879 17.3235C13.3344 17.5769 12.9907 17.7193 12.6323 17.7193C12.2739 17.7193 11.9301 17.5769 11.6767 17.3235L11.6766 17.3235L7.42113 13.068C7.29366 12.944 7.1919 12.7961 7.1217 12.6327C7.05086 12.4677 7.01357 12.2904 7.01201 12.1109C7.01045 11.9314 7.04465 11.7535 7.11261 11.5874L7.57277 11.7756L7.11261 11.5874C7.18058 11.4212 7.28094 11.2703 7.40785 11.1434C7.53476 11.0165 7.68567 10.9161 7.85178 10.8482M22.1042 6.89574L7.85178 10.8482M22.1042 6.89574C21.8508 6.64235 21.507 6.5 21.1486 6.5C20.7902 6.5 20.4465 6.64235 20.193 6.89574L20.193 6.89579L12.6323 14.4565L9.33243 11.1567C9.20844 11.0292 9.0605 10.9275 8.89708 10.8573C8.73218 10.7864 8.55482 10.7491 8.37535 10.7476C8.19588 10.746 8.0179 10.7802 7.85178 10.8482M22.1042 6.89574L7.85178 10.8482" fill="#142232" stroke="#D0D3D6"/>
</svg>
