<svg width="24" height="24" viewBox="0 0 24 24" fill="none" xmlns="http://www.w3.org/2000/svg">
<path d="M19.6677 8.33802C19.5615 8.23091 19.4351 8.1459 19.2958 8.08788C19.1566 8.02987 19.0072 8 18.8564 8C18.7055 8 18.5562 8.02987 18.4169 8.08788C18.2776 8.1459 18.1513 8.23091 18.045 8.33802L12.8113 13.5717C12.7051 13.6788 12.5787 13.7638 12.4395 13.8218C12.3002 13.8798 12.1509 13.9097 12 13.9097C11.8491 13.9097 11.6998 13.8798 11.5605 13.8218C11.4213 13.7638 11.2949 13.6788 11.1887 13.5717L5.95497 8.33802C5.84874 8.23091 5.72235 8.1459 5.5831 8.08788C5.44385 8.02987 5.29449 8 5.14363 8C4.99278 8 4.84342 8.02987 4.70417 8.08788C4.56491 8.1459 4.43853 8.23091 4.3323 8.33802C4.11946 8.55212 4 8.84175 4 9.14364C4 9.44553 4.11946 9.73515 4.3323 9.94926L9.57742 15.1944C10.2202 15.8364 11.0915 16.1969 12 16.1969C12.9085 16.1969 13.7798 15.8364 14.4226 15.1944L19.6677 9.94926C19.8805 9.73515 20 9.44553 20 9.14364C20 8.84175 19.8805 8.55212 19.6677 8.33802Z" fill="#142232"/>
</svg>
