<svg width="24" height="24" viewBox="0 0 24 24" fill="none" xmlns="http://www.w3.org/2000/svg">
<path d="M17.5468 2.77498L7.38676 12.935C6.99872 13.3209 6.69108 13.78 6.48167 14.2857C6.27225 14.7913 6.16522 15.3335 6.16676 15.8808V17C6.16676 17.221 6.25456 17.4329 6.41084 17.5892C6.56712 17.7455 6.77908 17.8333 7.0001 17.8333H8.11926C8.66656 17.8348 9.20874 17.7278 9.71439 17.5184C10.22 17.309 10.6791 17.0013 11.0651 16.6133L21.2251 6.45331C21.7121 5.96512 21.9856 5.3037 21.9856 4.61414C21.9856 3.92458 21.7121 3.26317 21.2251 2.77498C20.7298 2.30156 20.0711 2.03735 19.3859 2.03735C18.7008 2.03735 18.042 2.30156 17.5468 2.77498ZM20.0468 5.27498L9.88676 15.435C9.41687 15.902 8.78177 16.1649 8.11926 16.1666H7.83343V15.8808C7.83517 15.2183 8.09807 14.5832 8.5651 14.1133L18.7251 3.95331C18.9031 3.78327 19.1398 3.68839 19.3859 3.68839C19.6321 3.68839 19.8688 3.78327 20.0468 3.95331C20.2217 4.12874 20.32 4.36639 20.32 4.61414C20.32 4.8619 20.2217 5.09955 20.0468 5.27498Z" fill="#142232"/>
<path d="M21.1667 9.48249C20.9456 9.48249 20.7337 9.57029 20.5774 9.72657C20.4211 9.88285 20.3333 10.0948 20.3333 10.3158V14.5H17C16.3369 14.5 15.7011 14.7634 15.2322 15.2322C14.7634 15.7011 14.5 16.3369 14.5 17V20.3333H6.16666C5.50362 20.3333 4.86774 20.0699 4.3989 19.6011C3.93006 19.1322 3.66667 18.4964 3.66667 17.8333V6.16666C3.66667 5.50362 3.93006 4.86774 4.3989 4.3989C4.86774 3.93006 5.50362 3.66667 6.16666 3.66667H13.7017C13.9227 3.66667 14.1346 3.57887 14.2909 3.42259C14.4472 3.26631 14.535 3.05435 14.535 2.83333C14.535 2.61232 14.4472 2.40036 14.2909 2.24408C14.1346 2.0878 13.9227 2 13.7017 2H6.16666C5.062 2.00132 4.00296 2.44073 3.22185 3.22185C2.44073 4.00296 2.00132 5.062 2 6.16666L2 17.8333C2.00132 18.938 2.44073 19.997 3.22185 20.7781C4.00296 21.5592 5.062 21.9987 6.16666 22H15.6192C16.1666 22.0015 16.7089 21.8945 17.2147 21.6851C17.7205 21.4757 18.1797 21.1681 18.5658 20.78L20.7792 18.565C21.1673 18.179 21.475 17.72 21.6846 17.2143C21.8941 16.7087 22.0013 16.1665 22 15.6192V10.3158C22 10.0948 21.9122 9.88285 21.7559 9.72657C21.5996 9.57029 21.3877 9.48249 21.1667 9.48249ZM17.3875 19.6017C17.0525 19.9358 16.6289 20.1672 16.1667 20.2683V17C16.1667 16.779 16.2545 16.567 16.4107 16.4107C16.567 16.2545 16.779 16.1667 17 16.1667H20.2708C20.1677 16.6279 19.9367 17.0508 19.6042 17.3867L17.3875 19.6017Z" fill="#142232"/>
</svg>
