<svg width="24" height="24" viewBox="0 0 24 24" fill="none" xmlns="http://www.w3.org/2000/svg">
<path d="M2.83329 20.1536C3.05429 20.1536 3.26624 20.0659 3.42251 19.9096C3.57878 19.7533 3.66657 19.5414 3.66657 19.3204C3.6679 17.9948 4.19508 16.7238 5.13242 15.7865C6.06976 14.8492 7.34069 14.322 8.66629 14.3207H13.5243V15.6422C13.5244 15.9718 13.6222 16.294 13.8053 16.568C13.9885 16.842 14.2487 17.0555 14.5532 17.1816C14.8577 17.3077 15.1927 17.3407 15.516 17.2765C15.8392 17.2122 16.1361 17.0535 16.3692 16.8205L21.2681 11.9216C21.7367 11.4528 22 10.8171 22 10.1542C22 9.49136 21.7367 8.85562 21.2681 8.38683L16.3692 3.48795C16.1361 3.25495 15.8392 3.09628 15.516 3.032C15.1927 2.96773 14.8577 3.00073 14.5532 3.12684C14.2487 3.25295 13.9885 3.4665 13.8053 3.7405C13.6222 4.0145 13.5244 4.33665 13.5243 4.66621V5.9878H9.49958C7.51124 5.99001 5.60497 6.78085 4.19901 8.18681C2.79305 9.59277 2.0022 11.499 2 13.4874V19.3204C2 19.5414 2.08779 19.7533 2.24406 19.9096C2.40034 20.0659 2.61229 20.1536 2.83329 20.1536ZM15.1909 4.66621L20.0898 9.5651C20.246 9.72136 20.3338 9.93327 20.3338 10.1542C20.3338 10.3752 20.246 10.5871 20.0898 10.7434L15.1909 15.6422V13.4874C15.1909 13.2664 15.1031 13.0544 14.9469 12.8981C14.7906 12.7419 14.5786 12.6541 14.3576 12.6541H8.66629C7.72002 12.6538 6.78457 12.8554 5.9224 13.2454C5.06023 13.6354 4.29118 14.2048 3.66657 14.9156V13.4874C3.66834 11.9409 4.28345 10.4583 5.37697 9.36477C6.47049 8.27125 7.95311 7.65614 9.49958 7.65437H14.3576C14.5786 7.65437 14.7906 7.56658 14.9469 7.41031C15.1031 7.25404 15.1909 7.04209 15.1909 6.82109V4.66621Z" fill="#142232"/>
</svg>
