<svg width="24" height="24" viewBox="0 0 24 24" fill="none" xmlns="http://www.w3.org/2000/svg">
<path d="M21.6016 12.24C21.6016 11.5646 21.5362 10.8674 21.4273 10.2139H11.9939V14.07H17.3968C17.179 15.3118 16.46 16.4011 15.3925 17.0983L18.6169 19.6037C20.5122 17.839 21.6016 15.2682 21.6016 12.24Z" fill="#4280EF"/>
<path d="M11.9938 22.0001C14.6953 22.0001 16.961 21.1068 18.6168 19.5818L15.3924 17.0982C14.4992 17.7082 13.3446 18.0568 11.9938 18.0568C9.37948 18.0568 7.17909 16.2921 6.37301 13.9392L3.06152 16.4882C4.76084 19.865 8.20304 22.0001 11.9938 22.0001Z" fill="#34A353"/>
<path d="M6.37331 13.9173C5.95938 12.6755 5.95938 11.3248 6.37331 10.083L3.06183 7.51221C1.64573 10.3444 1.64573 13.6777 3.06183 16.4881L6.37331 13.9173Z" fill="#F6B704"/>
<path d="M11.9938 5.96544C13.4099 5.94366 14.8042 6.48831 15.8282 7.46868L18.6821 4.59292C16.8739 2.89361 14.4774 1.97859 11.9938 2.00038C8.20303 2.00038 4.76084 4.13541 3.06152 7.51225L6.373 10.083C7.17909 7.70832 9.37948 5.96544 11.9938 5.96544Z" fill="#E54335"/>
</svg>
