<svg width="20" height="20" viewBox="0 0 20 20" fill="none" xmlns="http://www.w3.org/2000/svg">
<path d="M19.6016 10.24C19.6016 9.5646 19.5362 8.86745 19.4273 8.21387H9.9939V12.07H15.3968C15.179 13.3118 14.46 14.4011 13.3925 15.0983L16.6169 17.6037C18.5122 15.839 19.6016 13.2682 19.6016 10.24Z" fill="#4280EF"/>
<path d="M9.99381 20.0001C12.6953 20.0001 14.961 19.1068 16.6168 17.5818L13.3924 15.0982C12.4992 15.7082 11.3445 16.0568 9.99381 16.0568C7.37948 16.0568 5.17909 14.2921 4.37301 11.9392L1.06152 14.4882C2.76084 17.865 6.20304 20.0001 9.99381 20.0001Z" fill="#34A353"/>
<path d="M4.37331 11.9173C3.95938 10.6755 3.95938 9.32477 4.37331 8.08296L1.06183 5.51221C-0.354268 8.3444 -0.354268 11.6777 1.06183 14.4881L4.37331 11.9173Z" fill="#F6B704"/>
<path d="M9.99381 3.96544C11.4099 3.94366 12.8042 4.48831 13.8282 5.46868L16.6821 2.59292C14.8739 0.893608 12.4774 -0.0214058 9.99381 0.000380229C6.20303 0.000380229 2.76084 2.13541 1.06152 5.51225L4.373 8.083C5.17909 5.70832 7.37948 3.96544 9.99381 3.96544Z" fill="#E54335"/>
</svg>
