<svg width="24" height="24" viewBox="0 0 24 24" fill="none" xmlns="http://www.w3.org/2000/svg">
<path d="M21.389 10.0005C20.637 8.76906 19.6884 7.66907 18.5809 6.7442L20.9134 4.41174C21.0651 4.25463 21.1491 4.0442 21.1472 3.82579C21.1453 3.60737 21.0577 3.39844 20.9032 3.24399C20.7488 3.08954 20.5398 3.00193 20.3214 3.00003C20.103 2.99813 19.8926 3.0821 19.7355 3.23384L17.1989 5.77373C15.6265 4.83976 13.8288 4.35298 12 4.36592C6.84274 4.36592 3.90383 7.89628 2.61098 10.0005C2.21157 10.6465 2 11.391 2 12.1505C2 12.91 2.21157 13.6546 2.61098 14.3006C3.363 15.532 4.31159 16.632 5.4191 17.5569L3.08664 19.8893C3.00707 19.9662 2.94361 20.0581 2.89995 20.1597C2.8563 20.2614 2.83332 20.3707 2.83235 20.4813C2.83139 20.5919 2.85247 20.7016 2.89436 20.804C2.93624 20.9063 2.9981 20.9993 3.07631 21.0776C3.15453 21.1558 3.24753 21.2176 3.34991 21.2595C3.45229 21.3014 3.56198 21.3225 3.67259 21.3215C3.78319 21.3205 3.8925 21.2976 3.99414 21.2539C4.09577 21.2102 4.18769 21.1468 4.26453 21.0672L6.80692 18.5248C8.3774 19.4587 10.1729 19.9463 12 19.9351C17.1573 19.9351 20.0962 16.4048 21.389 14.3006C21.7884 13.6546 22 12.91 22 12.1505C22 11.391 21.7884 10.6465 21.389 10.0005ZM4.03045 13.4284C3.79315 13.0444 3.66746 12.6019 3.66746 12.1505C3.66746 11.6991 3.79315 11.2567 4.03045 10.8727C5.14171 9.06834 7.65328 6.03197 12 6.03197C13.383 6.02422 14.7467 6.35755 15.9702 7.00244L14.2933 8.67932C13.4936 8.14835 12.5347 7.91044 11.5795 8.00594C10.6243 8.10145 9.73156 8.52449 9.05276 9.20329C8.37396 9.8821 7.95091 10.7748 7.85541 11.73C7.7599 12.6853 7.99782 13.6441 8.52879 14.4438L6.6045 16.3681C5.58413 15.5432 4.7134 14.5488 4.03045 13.4284ZM14.4991 12.1505C14.4991 12.8133 14.2358 13.449 13.7671 13.9176C13.2984 14.3863 12.6628 14.6496 12 14.6496C11.6289 14.6482 11.2629 14.5627 10.9296 14.3997L14.2492 11.0801C14.4122 11.4135 14.4976 11.7794 14.4991 12.1505ZM9.50093 12.1505C9.50093 11.4877 9.76422 10.8521 10.2329 10.3834C10.7016 9.91475 11.3372 9.65146 12 9.65146C12.3711 9.6529 12.7371 9.73833 13.0704 9.90137L9.75083 13.221C9.5878 12.8876 9.50236 12.5216 9.50093 12.1505ZM19.9695 13.4284C18.8583 15.2327 16.3467 18.2691 12 18.2691C10.617 18.2768 9.25332 17.9435 8.0298 17.2986L9.70668 15.6217C10.5064 16.1527 11.4653 16.3906 12.4205 16.2951C13.3757 16.1996 14.2684 15.7766 14.9472 15.0978C15.626 14.419 16.0491 13.5262 16.1446 12.571C16.2401 11.6158 16.0022 10.657 15.4712 9.85722L17.3955 7.93293C18.4159 8.75786 19.2866 9.7523 19.9695 10.8727C20.2068 11.2567 20.3325 11.6991 20.3325 12.1505C20.3325 12.6019 20.2068 13.0444 19.9695 13.4284Z" fill="#142232"/>
</svg>
