<svg width="24" height="24" viewBox="0 0 24 24"  xmlns="http://www.w3.org/2000/svg">
<path d="M21.2675 9.53968L14.9467 3.21802C14.1644 2.43801 13.1047 2 12 2C10.8953 2 9.83563 2.43801 9.05334 3.21802L2.73251 9.53968C2.49953 9.77117 2.31482 10.0466 2.18908 10.35C2.06334 10.6534 1.99907 10.9788 2.00001 11.3072V19.488C2.00001 20.151 2.2634 20.7869 2.73224 21.2558C3.20108 21.7246 3.83697 21.988 4.50001 21.988H19.5C20.163 21.988 20.7989 21.7246 21.2678 21.2558C21.7366 20.7869 22 20.151 22 19.488V11.3072C22.0009 10.9788 21.9367 10.6534 21.8109 10.35C21.6852 10.0466 21.5005 9.77117 21.2675 9.53968ZM14.5 20.3213H9.5V17.043C9.5 16.38 9.76339 15.7441 10.2322 15.2752C10.7011 14.8064 11.337 14.543 12 14.543C12.663 14.543 13.2989 14.8064 13.7678 15.2752C14.2366 15.7441 14.5 16.38 14.5 17.043V20.3213ZM20.3333 19.488C20.3333 19.709 20.2455 19.921 20.0892 20.0773C19.933 20.2335 19.721 20.3213 19.5 20.3213H16.1667V17.043C16.1667 15.9379 15.7277 14.8781 14.9463 14.0967C14.1649 13.3153 13.1051 12.8763 12 12.8763C10.8949 12.8763 9.83513 13.3153 9.05372 14.0967C8.27232 14.8781 7.83334 15.9379 7.83334 17.043V20.3213H4.50001C4.27899 20.3213 4.06703 20.2335 3.91075 20.0773C3.75447 19.921 3.66668 19.709 3.66668 19.488V11.3072C3.66745 11.0863 3.75517 10.8747 3.91084 10.718L10.2317 4.39885C10.7014 3.93129 11.3372 3.66881 12 3.66881C12.6628 3.66881 13.2986 3.93129 13.7683 4.39885L20.0892 10.7205C20.2442 10.8765 20.3319 11.0872 20.3333 11.3072V19.488Z" fill="#a1a7ad"/>
</svg>
