<svg width="669" height="666" viewBox="0 0 669 666" fill="none" xmlns="http://www.w3.org/2000/svg">
<path d="M33.4162 631.288C21.902 614.591 36.8051 610.378 43.4049 617.187C18.9635 548.287 67.5085 567.1 62.3217 608.061C77.4972 579.234 94.8158 586.729 83.5158 610.863C99.2253 578.767 123.144 580.853 107.082 612.273C132.061 595.168 133.841 609.637 127.059 620.47C146.837 608.061 144.549 631.316 144.549 631.316L33.4162 631.288Z" fill="#DBEEFF"/>
<g opacity="0.3">
<path d="M397.932 32.6787L151.074 86.0763C67.638 104.124 14.698 186.083 32.8289 269.137L86.4722 514.864C104.603 597.918 186.939 650.615 270.375 632.568L517.233 579.17C600.669 561.122 653.609 479.163 635.478 396.11L581.834 150.382C563.704 67.3284 481.367 14.6308 397.932 32.6787Z" fill="#EDEDED"/>
</g>
<path d="M66.5459 469.153H82.8038C83.0629 469.153 83.3195 469.203 83.5593 469.301C83.7986 469.402 84.0166 469.547 84.2022 469.728C84.5698 470.098 84.7771 470.596 84.7798 471.116V508.925H64.5554V471.127C64.5554 470.606 64.7616 470.106 65.1293 469.735C65.502 469.366 66.0058 469.158 66.5314 469.156L66.5459 469.153Z" fill="#1D4CA6"/>
<path d="M96.1194 460.208H112.374C112.901 460.213 113.405 460.424 113.779 460.794C113.965 460.978 114.109 461.198 114.204 461.441C114.301 461.682 114.351 461.94 114.35 462.2V508.925H94.1399V462.2C94.134 461.94 94.1822 461.682 94.2815 461.441C94.3814 461.197 94.5293 460.975 94.7164 460.789C94.9035 460.603 95.1262 460.456 95.3712 460.356C95.6086 460.259 95.8627 460.208 96.1194 460.208Z" fill="#2056BD"/>
<path d="M125.719 452.047H141.969C142.229 452.047 142.486 452.097 142.725 452.196C142.965 452.294 143.183 452.439 143.366 452.621C143.55 452.804 143.696 453.02 143.795 453.259C143.894 453.497 143.945 453.753 143.945 454.011V508.925H123.707V454.018C123.706 453.756 123.758 453.497 123.859 453.255C123.959 453.011 124.106 452.789 124.294 452.603C124.481 452.416 124.704 452.269 124.949 452.17C125.195 452.079 125.456 452.037 125.719 452.047Z" fill="#3E74DB"/>
<path d="M57.6541 460.551C57.2592 460.567 56.8699 460.454 56.5452 460.23C56.2206 460.006 55.9782 459.682 55.855 459.309C55.7317 458.935 55.7343 458.531 55.8624 458.159C55.9904 457.787 56.2369 457.467 56.5644 457.247L83.7118 437.686C84.3434 437.212 85.0948 436.922 85.8823 436.847C86.6699 436.773 87.4626 436.919 88.1722 437.267C88.2225 437.29 88.2711 437.316 88.3175 437.346L101.975 445.611C102.058 445.645 102.147 445.658 102.236 445.648C102.343 445.641 102.447 445.605 102.534 445.543L136.314 420.277C136.703 419.986 137.192 419.861 137.674 419.93C138.156 419.998 138.59 420.255 138.882 420.642C139.174 421.029 139.299 421.516 139.23 421.996C139.162 422.475 138.904 422.908 138.515 423.198L104.706 448.486C104.067 448.947 103.313 449.225 102.527 449.289C101.754 449.353 100.978 449.203 100.286 448.855L100.151 448.782L86.505 440.521C86.4159 440.487 86.3201 440.475 86.2253 440.484C86.1086 440.494 85.9973 440.538 85.9057 440.611L58.7147 460.208C58.4049 460.428 58.0346 460.548 57.6541 460.551Z" fill="white"/>
<path d="M133.971 441.508H133.997H134.03C134.263 441.588 134.509 441.625 134.756 441.617C135.007 441.604 135.253 441.547 135.482 441.447L135.279 440.991L135.482 441.447C135.715 441.342 135.925 441.194 136.1 441.009C136.275 440.828 136.411 440.612 136.5 440.376L145.01 418.206C145.12 417.908 145.154 417.587 145.108 417.273C145.063 416.959 144.938 416.661 144.745 416.409C144.555 416.157 144.305 415.955 144.018 415.823C143.726 415.69 143.406 415.631 143.085 415.649L118.847 417.493C118.594 417.511 118.348 417.577 118.12 417.689C117.894 417.803 117.69 417.959 117.521 418.148C117.358 418.338 117.234 418.56 117.158 418.799C117.039 419.159 117.03 419.547 117.134 419.912C117.237 420.277 117.448 420.603 117.739 420.849C118.132 421.179 118.639 421.341 119.152 421.301L140.364 419.673L132.849 439.031C132.758 439.266 132.715 439.517 132.722 439.768C132.73 440.02 132.788 440.267 132.893 440.496C132.999 440.724 133.15 440.929 133.336 441.1C133.522 441.271 133.741 441.405 133.979 441.494L133.971 441.508Z" fill="white"/>
<path d="M134.683 441.997C134.42 441.997 134.158 441.953 133.91 441.866L133.815 441.841C133.533 441.735 133.274 441.575 133.052 441.371C132.829 441.168 132.648 440.922 132.522 440.648C132.398 440.373 132.329 440.077 132.319 439.777C132.311 439.477 132.363 439.178 132.471 438.898L139.776 420.097L119.145 421.68C118.536 421.726 117.934 421.533 117.467 421.142C117.235 420.948 117.045 420.711 116.907 420.444C116.769 420.176 116.685 419.884 116.66 419.583C116.637 419.284 116.676 418.982 116.773 418.697C116.87 418.411 117.023 418.147 117.223 417.92C117.624 417.465 118.189 417.186 118.796 417.143L143.034 415.299C143.418 415.278 143.801 415.349 144.153 415.505C144.501 415.661 144.804 415.9 145.035 416.203C145.265 416.505 145.416 416.859 145.475 417.233C145.53 417.61 145.489 417.994 145.355 418.35L136.837 440.518C136.731 440.801 136.568 441.059 136.358 441.277C136.235 441.406 136.097 441.52 135.947 441.617V441.646L135.275 441.942V441.917C135.103 441.963 134.927 441.99 134.749 441.997H134.683ZM134.07 441.154L134.149 441.176C134.339 441.24 134.538 441.271 134.738 441.266C134.821 441.262 134.903 441.253 134.985 441.237L134.949 441.154L135.617 440.854L135.653 440.937C135.719 440.888 135.781 440.834 135.838 440.775C135.98 440.627 136.09 440.452 136.162 440.261L144.668 418.086C144.758 417.845 144.786 417.585 144.748 417.331C144.708 417.077 144.606 416.838 144.45 416.633C144.292 416.428 144.085 416.265 143.848 416.158C143.611 416.051 143.352 416.003 143.092 416.018L118.854 417.859C118.647 417.876 118.445 417.931 118.258 418.021C118.075 418.111 117.91 418.233 117.772 418.383C117.637 418.537 117.533 418.715 117.467 418.907C117.401 419.1 117.376 419.304 117.394 419.507C117.41 419.709 117.465 419.906 117.557 420.086C117.652 420.267 117.782 420.428 117.939 420.56C118.097 420.693 118.28 420.794 118.476 420.86C118.673 420.922 118.881 420.945 119.087 420.928L140.88 419.258L133.154 439.144C133.081 439.333 133.046 439.534 133.052 439.737C133.065 440.043 133.168 440.34 133.349 440.588C133.53 440.836 133.781 441.026 134.07 441.132V441.154Z" fill="white"/>
<path d="M146.917 510.784H60.2837C59.7973 510.784 59.3307 510.591 58.9867 510.249C58.6427 509.906 58.4495 509.442 58.4495 508.958C58.4495 508.473 58.6427 508.009 58.9867 507.667C59.3307 507.324 59.7973 507.132 60.2837 507.132H146.917C147.403 507.132 147.87 507.324 148.214 507.667C148.558 508.009 148.751 508.473 148.751 508.958C148.751 509.442 148.558 509.906 148.214 510.249C147.87 510.591 147.403 510.784 146.917 510.784Z" fill="white"/>
<path d="M467.241 146.456V354.304C467.236 357.009 466.153 359.603 464.229 361.514C462.305 363.426 459.698 364.5 456.98 364.5H154.613C151.898 364.498 149.295 363.423 147.375 361.511C145.456 359.599 144.378 357.006 144.378 354.304V148.087C144.378 142.439 148.736 138.78 154.385 138.78L457.59 143.202C463.231 143.202 467.241 140.83 467.241 146.456Z" fill="#CBE8F1"/>
<path d="M441.558 239.403H253.679C252.814 239.402 251.957 239.571 251.157 239.899C250.358 240.228 249.631 240.71 249.018 241.319C248.406 241.927 247.92 242.65 247.588 243.445C247.256 244.24 247.084 245.093 247.083 245.954V313.718C247.085 315.458 247.781 317.126 249.018 318.355C250.255 319.584 251.932 320.274 253.679 320.273H441.558C443.305 320.274 444.982 319.584 446.219 318.355C447.456 317.126 448.152 315.458 448.154 313.718V245.954C448.153 245.093 447.981 244.24 447.649 243.445C447.317 242.65 446.831 241.927 446.219 241.319C445.606 240.71 444.879 240.228 444.079 239.899C443.28 239.571 442.423 239.402 441.558 239.403Z" fill="white"/>
<path d="M305.058 278.249V255.833C322.129 255.833 327.647 271.148 327.647 278.278L305.058 278.249Z" fill="#B7D8E0"/>
<path d="M441.558 156.355H253.679C251.932 156.354 250.255 157.044 249.018 158.273C247.781 159.502 247.085 161.17 247.083 162.91V221.071C247.083 221.933 247.254 222.786 247.585 223.582C247.917 224.379 248.403 225.102 249.016 225.711C249.628 226.32 250.355 226.803 251.156 227.132C251.956 227.462 252.814 227.631 253.679 227.63H441.558C442.423 227.631 443.28 227.462 444.079 227.133C444.879 226.804 445.606 226.322 446.219 225.714C446.831 225.105 447.317 224.383 447.649 223.587C447.981 222.792 448.153 221.939 448.154 221.078V162.91C448.152 161.17 447.456 159.502 446.219 158.273C444.982 157.044 443.305 156.354 441.558 156.355Z" fill="white"/>
<path d="M352.709 172.001H309.369C309.007 172 308.648 172.071 308.312 172.208C307.977 172.346 307.673 172.548 307.416 172.803C307.159 173.058 306.956 173.36 306.816 173.693C306.677 174.027 306.605 174.384 306.605 174.745C306.606 175.474 306.898 176.173 307.416 176.688C307.934 177.203 308.637 177.493 309.369 177.493H352.716C353.079 177.493 353.439 177.422 353.774 177.285C354.109 177.147 354.414 176.944 354.671 176.689C354.927 176.434 355.131 176.131 355.27 175.797C355.409 175.464 355.481 175.106 355.481 174.745C355.48 174.383 355.408 174.025 355.268 173.692C355.129 173.358 354.924 173.055 354.667 172.8C354.409 172.545 354.104 172.343 353.768 172.206C353.432 172.069 353.072 171.999 352.709 172.001Z" fill="#C0E0E8"/>
<path d="M352.709 187.981H309.369C309.007 187.981 308.648 188.052 308.312 188.189C307.977 188.327 307.673 188.529 307.416 188.784C307.159 189.039 306.956 189.341 306.816 189.674C306.677 190.008 306.605 190.365 306.605 190.726C306.606 191.455 306.898 192.154 307.416 192.669C307.934 193.184 308.637 193.474 309.369 193.474H352.716C353.079 193.474 353.439 193.403 353.774 193.265C354.109 193.128 354.414 192.925 354.671 192.67C354.927 192.415 355.131 192.112 355.27 191.778C355.409 191.445 355.481 191.087 355.481 190.726C355.48 190.364 355.408 190.006 355.268 189.673C355.129 189.339 354.924 189.036 354.667 188.781C354.409 188.526 354.104 188.324 353.768 188.187C353.432 188.05 353.072 187.98 352.709 187.981Z" fill="#C0E0E8"/>
<path d="M352.709 203.958H309.369C308.637 203.958 307.934 204.247 307.416 204.763C306.898 205.278 306.606 205.977 306.605 206.706C306.606 207.435 306.898 208.134 307.416 208.649C307.934 209.164 308.637 209.454 309.369 209.454H352.716C353.449 209.454 354.151 209.164 354.67 208.649C355.188 208.134 355.48 207.435 355.481 206.706C355.481 206.344 355.409 205.986 355.269 205.652C355.13 205.318 354.926 205.014 354.668 204.759C354.411 204.504 354.105 204.302 353.769 204.164C353.433 204.027 353.073 203.957 352.709 203.958Z" fill="#C0E0E8"/>
<path d="M233.967 146.619V364.662H154.613C151.897 364.66 149.293 363.585 147.374 361.672C145.454 359.759 144.377 357.166 144.378 354.463V142.75L215.119 135.118L233.967 146.619Z" fill="#7EB2D8"/>
<path d="M211.661 191.741H165.968C165.235 191.741 164.533 192.031 164.014 192.546C163.496 193.061 163.205 193.76 163.204 194.489C163.205 195.218 163.496 195.917 164.014 196.432C164.533 196.948 165.235 197.237 165.968 197.237H211.661C212.394 197.237 213.096 196.948 213.615 196.432C214.133 195.917 214.425 195.218 214.426 194.489C214.425 193.76 214.133 193.061 213.615 192.546C213.096 192.031 212.394 191.741 211.661 191.741Z" fill="white"/>
<path d="M211.661 207.722H165.968C165.235 207.722 164.533 208.012 164.014 208.527C163.496 209.042 163.205 209.741 163.204 210.47C163.205 211.199 163.496 211.898 164.014 212.413C164.533 212.929 165.235 213.218 165.968 213.218H211.661C212.394 213.218 213.096 212.929 213.615 212.413C214.133 211.898 214.425 211.199 214.426 210.47C214.425 209.741 214.133 209.042 213.615 208.527C213.096 208.012 212.394 207.722 211.661 207.722Z" fill="white"/>
<path d="M211.661 223.703H165.968C165.235 223.703 164.533 223.992 164.014 224.508C163.496 225.023 163.205 225.722 163.204 226.451C163.204 226.812 163.276 227.169 163.415 227.502C163.554 227.835 163.758 228.138 164.015 228.393C164.271 228.648 164.576 228.85 164.911 228.987C165.246 229.125 165.605 229.196 165.968 229.195H211.661C212.024 229.196 212.383 229.125 212.718 228.987C213.053 228.85 213.358 228.648 213.614 228.393C213.871 228.138 214.075 227.835 214.214 227.502C214.353 227.169 214.425 226.812 214.426 226.451C214.425 225.722 214.133 225.023 213.615 224.508C213.096 223.992 212.394 223.703 211.661 223.703Z" fill="white"/>
<path d="M467.241 128.562V146.463H144.378V128.562C144.378 125.859 145.456 123.267 147.375 121.355C149.295 119.443 151.898 118.368 154.613 118.366H456.98C459.699 118.365 462.306 119.439 464.23 121.35C466.154 123.262 467.237 125.856 467.241 128.562Z" fill="#124E86"/>
<path d="M210.888 139.521C212.077 139.519 213.239 139.166 214.227 138.507C215.214 137.848 215.983 136.912 216.437 135.818C216.891 134.723 217.008 133.52 216.775 132.359C216.542 131.198 215.968 130.133 215.126 129.296C214.285 128.46 213.213 127.891 212.046 127.661C210.88 127.43 209.671 127.55 208.572 128.003C207.474 128.457 206.535 129.224 205.875 130.209C205.214 131.193 204.862 132.35 204.862 133.534C204.862 134.321 205.019 135.1 205.322 135.827C205.625 136.554 206.069 137.214 206.628 137.77C207.188 138.326 207.852 138.767 208.583 139.068C209.314 139.368 210.097 139.522 210.888 139.521Z" fill="#C97469"/>
<path d="M187.797 139.521C188.987 139.519 190.148 139.166 191.136 138.507C192.124 137.848 192.893 136.912 193.347 135.818C193.8 134.723 193.918 133.52 193.685 132.359C193.451 131.198 192.878 130.133 192.036 129.296C191.194 128.46 190.122 127.891 188.956 127.661C187.789 127.43 186.581 127.55 185.482 128.003C184.384 128.457 183.445 129.224 182.784 130.209C182.124 131.193 181.771 132.35 181.771 133.534C181.772 134.321 181.928 135.1 182.231 135.827C182.534 136.554 182.979 137.214 183.538 137.77C184.098 138.326 184.762 138.767 185.493 139.068C186.224 139.368 187.007 139.522 187.797 139.521Z" fill="#D6BF51"/>
<path d="M164.708 139.521C165.897 139.52 167.059 139.167 168.047 138.509C169.036 137.85 169.805 136.914 170.26 135.82C170.714 134.726 170.832 133.522 170.599 132.361C170.366 131.2 169.793 130.134 168.951 129.298C168.11 128.461 167.038 127.891 165.871 127.661C164.705 127.43 163.495 127.549 162.397 128.003C161.298 128.456 160.359 129.224 159.699 130.208C159.038 131.193 158.685 132.35 158.685 133.534C158.686 134.321 158.842 135.1 159.145 135.826C159.448 136.553 159.891 137.213 160.451 137.769C161.01 138.325 161.674 138.766 162.404 139.067C163.134 139.367 163.917 139.522 164.708 139.521Z" fill="#81BC5B"/>
<path d="M325.329 281.088C325.339 285.54 324.022 289.895 321.544 293.602C319.066 297.309 315.539 300.201 311.409 301.912C307.28 303.622 302.733 304.074 298.345 303.211C293.956 302.348 289.924 300.209 286.758 297.063C283.592 293.918 281.435 289.908 280.559 285.542C279.684 281.175 280.13 276.649 281.84 272.535C283.551 268.42 286.449 264.904 290.168 262.43C293.887 259.956 298.26 258.637 302.733 258.638V281.088H325.329Z" fill="#C0E0E8"/>
<path d="M278.132 209.469C281.854 209.465 285.492 208.363 288.586 206.301C291.679 204.239 294.089 201.311 295.51 197.886C296.931 194.461 297.3 190.693 296.57 187.06C295.841 183.426 294.045 180.089 291.41 177.472C288.775 174.854 285.419 173.073 281.768 172.353C278.116 171.634 274.332 172.008 270.894 173.43C267.456 174.851 264.518 177.255 262.453 180.338C260.388 183.422 259.287 187.045 259.291 190.751C259.3 195.719 261.289 200.48 264.821 203.99C268.353 207.499 273.141 209.47 278.132 209.469Z" fill="#C0E0E8"/>
<path d="M173.345 176.336C175.346 176.332 177.302 175.738 178.964 174.629C180.626 173.519 181.921 171.944 182.684 170.103C183.448 168.261 183.646 166.235 183.253 164.282C182.86 162.328 181.895 160.535 180.478 159.127C179.062 157.72 177.258 156.762 175.295 156.374C173.332 155.987 171.297 156.188 169.449 156.951C167.6 157.714 166.02 159.006 164.908 160.662C163.797 162.319 163.204 164.267 163.204 166.259C163.205 167.583 163.468 168.895 163.978 170.118C164.488 171.341 165.235 172.453 166.177 173.388C167.119 174.324 168.237 175.066 169.466 175.572C170.696 176.077 172.014 176.337 173.345 176.336Z" fill="#C0E0E8"/>
<path d="M218.41 163.178H195.553C195.138 163.178 194.727 163.259 194.343 163.416C193.959 163.574 193.611 163.805 193.317 164.097C193.023 164.389 192.79 164.735 192.631 165.117C192.472 165.498 192.389 165.907 192.389 166.32C192.389 166.733 192.472 167.142 192.631 167.524C192.79 167.905 193.023 168.252 193.317 168.543C193.611 168.835 193.959 169.066 194.343 169.224C194.727 169.382 195.138 169.463 195.553 169.462H218.41C218.825 169.463 219.236 169.382 219.62 169.224C220.003 169.066 220.352 168.835 220.646 168.543C220.94 168.252 221.173 167.905 221.332 167.524C221.491 167.142 221.574 166.733 221.574 166.32C221.574 165.907 221.491 165.498 221.332 165.117C221.173 164.735 220.94 164.389 220.646 164.097C220.352 163.805 220.003 163.574 219.62 163.416C219.236 163.259 218.825 163.178 218.41 163.178Z" fill="white"/>
<path d="M528.684 605.777C520.827 591.733 517.689 578.316 527.111 588.718C511.827 553.646 526.116 559.753 534.47 585.261C529.498 546.064 530.881 543.042 533.5 542.004C536.119 540.966 551.611 600.266 552.751 609.837C553.892 619.407 547.935 621.591 546.057 619.924C544.179 618.258 535.887 609.515 535.48 608.586C535.073 607.657 528.684 605.777 528.684 605.777Z" fill="#1D4CA6"/>
<path d="M493.088 631.292C486.706 623.467 496.404 621.464 500.549 626.349C486.103 606.582 505.677 598.784 509.549 620.524C510.701 606.17 515.833 612.292 517.01 616.261C517.01 605.552 527.137 606.467 528.877 611.113C530.616 615.759 540.671 622.296 540.5 623.648C540.329 625 537.663 631.266 537.358 631.266L493.088 631.292Z" fill="#1D4CA6"/>
<path d="M223.128 561.247H95.582V630.616H223.128V561.247Z" fill="#F5993F"/>
<path d="M171.155 561.329H132.162V631.382H171.155V561.329Z" fill="#C67B38"/>
<path d="M223.121 561.247H171.154V630.616H223.121V561.247Z" fill="#C26C1E"/>
<path d="M144.755 561.247H123.438V630.616H144.755V561.247Z" fill="#FFB471"/>
<path d="M503.367 201.316V466.073C503.361 469.173 502.118 472.143 499.913 474.331C497.708 476.52 494.72 477.747 491.606 477.744H361.452C359.909 477.746 358.38 477.445 356.954 476.858C355.528 476.272 354.232 475.411 353.14 474.326C352.048 473.241 351.181 471.953 350.589 470.534C349.997 469.115 349.692 467.595 349.69 466.059V201.316C349.691 199.78 349.996 198.259 350.587 196.84C351.179 195.421 352.045 194.132 353.138 193.046C354.23 191.961 355.526 191.101 356.953 190.515C358.38 189.928 359.908 189.628 361.452 189.63H382.377C383.454 189.629 384.521 189.839 385.517 190.248C386.512 190.657 387.417 191.258 388.18 192.015C388.942 192.773 389.547 193.673 389.96 194.663C390.373 195.653 390.585 196.715 390.586 197.787C390.587 198.605 390.75 199.414 391.065 200.169C391.38 200.924 391.842 201.61 392.423 202.188C393.004 202.765 393.695 203.223 394.454 203.535C395.213 203.847 396.027 204.007 396.848 204.006H456.224C457.046 204.009 457.86 203.851 458.621 203.541C459.381 203.231 460.073 202.775 460.656 202.198C461.822 201.028 462.475 199.446 462.472 197.798C462.472 196.726 462.685 195.664 463.098 194.674C463.511 193.683 464.116 192.784 464.878 192.026C465.64 191.269 466.545 190.668 467.541 190.259C468.537 189.85 469.603 189.64 470.681 189.641H491.599C493.142 189.639 494.671 189.939 496.097 190.525C497.524 191.112 498.821 191.972 499.913 193.057C501.005 194.143 501.872 195.432 502.463 196.851C503.055 198.27 503.359 199.791 503.36 201.327L503.367 201.316Z" fill="white"/>
<path d="M388.189 288.373C378.353 296.71 370.144 321.202 368.524 334.978C366.904 348.753 379.421 352.235 380.107 352.235C380.794 352.235 388.189 288.373 388.189 288.373Z" fill="#202E51"/>
<g style="mix-blend-mode:multiply" opacity="0.2">
<g style="mix-blend-mode:multiply" opacity="0.2">
<path d="M382.072 309.6C378.781 321.611 373.264 335.155 373.918 339.005C374.866 344.624 392.831 327.905 392.831 327.905L382.072 309.6Z" fill="#5E5E5E"/>
</g>
</g>
<path d="M374.056 397.481C372.062 415.841 369.254 472.407 371.216 482.397C373.177 492.387 406.034 486.501 410.535 476.157C415.035 465.812 397.066 414.247 397.066 414.247L387.553 397.481H374.056Z" fill="#202E51"/>
<g style="mix-blend-mode:multiply" opacity="0.2">
<g style="mix-blend-mode:multiply" opacity="0.7">
<path d="M390.107 428.983C387.299 453.128 397.371 486.522 397.371 486.522L412.895 470.462L390.107 428.983Z" fill="#5E5E5E"/>
</g>
</g>
<path d="M403.041 478.829C398.93 468.615 387.237 436.939 390.612 418.025C390.728 417.324 390.877 416.637 391.051 415.972C391.088 415.78 391.138 415.61 391.189 415.408C391.523 414.212 392.111 413.102 392.915 412.154C397.822 406.184 410.869 404.724 424.039 404.966C441.14 405.288 458.469 408.502 458.469 408.502L462.418 412.248L468.302 417.834C467.823 421.851 467.474 425.846 467.212 429.765C467.005 432.969 466.882 436.132 466.824 439.227C466.42 460.635 469.192 478.681 472.998 484.889C478.051 493.1 407.309 489.531 403.041 478.829Z" fill="#202E51"/>
<path d="M447.493 482.531C439.186 467.986 431.743 437.853 434.347 417.87L435.768 418.047C433.225 437.763 440.551 467.476 448.742 481.834L447.493 482.531Z" fill="#40507E"/>
<path d="M505.961 170.561H347.09C343.975 170.562 340.987 171.794 338.784 173.985C336.58 176.177 335.34 179.149 335.336 182.25V517.722C335.341 520.822 336.581 523.794 338.785 525.984C340.988 528.175 343.975 529.406 347.09 529.407H505.961C507.504 529.409 509.032 529.108 510.458 528.521C511.885 527.935 513.181 527.074 514.273 525.989C515.365 524.904 516.232 523.615 516.824 522.197C517.415 520.778 517.721 519.258 517.722 517.722V182.243C517.718 179.142 516.477 176.169 514.272 173.978C512.066 171.787 509.077 170.558 505.961 170.561ZM503.368 466.08C503.359 469.178 502.116 472.146 499.911 474.333C497.706 476.52 494.719 477.747 491.606 477.744H361.452C359.909 477.745 358.381 477.444 356.954 476.858C355.528 476.271 354.232 475.411 353.14 474.326C352.048 473.24 351.181 471.952 350.589 470.533C349.997 469.115 349.692 467.594 349.691 466.058V201.315C349.691 199.779 349.996 198.258 350.587 196.839C351.179 195.42 352.045 194.131 353.138 193.046C354.23 191.961 355.527 191.1 356.953 190.514C358.38 189.928 359.908 189.627 361.452 189.63H382.377C384.552 189.629 386.638 190.487 388.178 192.017C389.717 193.546 390.583 195.622 390.586 197.787C390.587 198.604 390.75 199.414 391.065 200.169C391.38 200.924 391.842 201.61 392.423 202.187C393.005 202.764 393.695 203.222 394.454 203.534C395.213 203.846 396.027 204.006 396.848 204.005H456.225C457.046 204.009 457.861 203.851 458.621 203.54C459.381 203.23 460.073 202.774 460.656 202.198C461.822 201.028 462.475 199.446 462.472 197.797C462.472 196.18 462.956 194.6 463.861 193.257C464.767 191.915 466.054 190.871 467.557 190.259C468.554 189.85 469.621 189.64 470.699 189.641H491.617C493.161 189.638 494.689 189.939 496.116 190.525C497.542 191.111 498.839 191.971 499.931 193.057C501.024 194.142 501.89 195.431 502.482 196.85C503.073 198.269 503.378 199.79 503.378 201.326L503.368 466.08Z" fill="#121224"/>
<path d="M441.14 221.484C439.996 216.06 445.717 211.414 449.233 214.184C455.629 219.188 451.365 225.649 447.1 224.174C442.836 222.699 441.14 221.484 441.14 221.484Z" fill="#142232"/>
<path d="M436.443 223.151C439.2 221.343 441.118 221.477 441.118 221.477C441.118 221.477 446.533 223.505 447.06 224.167C447.525 224.591 447.881 225.121 448.096 225.712C448.311 226.302 448.379 226.936 448.295 227.558C447.954 229.626 439.541 228.224 438.666 226.55C438.013 225.362 437.27 224.226 436.443 223.151Z" fill="#202E51"/>
<path d="M439.767 226.047C435.15 218.816 419.869 214.177 410.433 230.617C406.168 238.029 409.012 246.207 408.616 249.942C407.603 259.039 394.534 267.894 397.959 277.783C400.629 285.553 412.932 286.963 417.403 277.783C423.171 265.927 440.05 240.903 442.905 240.705C445.76 240.506 447.645 249.241 446.457 251.11C445.269 252.98 450.671 257.586 455.255 252.397C459.381 247.712 460.006 223.151 439.767 226.047Z" fill="#142232"/>
<path d="M471.211 390.441C469.871 402.839 468.712 413.1 468.305 417.819C468.305 417.819 464.001 421.702 439.364 421.695C408.657 421.695 384.153 411.256 374.056 397.47C373.347 390.6 376.566 345.362 381.164 315.211C383.296 301.306 385.719 290.625 388.178 288.376C392.178 284.753 396.607 281.627 401.367 279.07C404.698 277.275 408.172 275.759 411.755 274.536C417.677 272.453 423.901 271.343 430.181 271.249C456.304 271.249 472.497 299.552 475.584 312.753C477.786 321.998 474.317 361.657 471.211 390.441Z" fill="#202E51"/>
<g opacity="0.2">
<path opacity="0.2" d="M428.006 290.13C429.429 292.954 431.391 293.095 432.626 292.849C435.59 292.249 441.863 282.172 442.64 280.758C443.417 279.344 428.006 290.13 428.006 290.13Z" fill="#383838"/>
</g>
<path d="M423.422 282.75L415.238 310.428L416.604 310.825L424.784 283.148L423.422 282.75Z" fill="#192744"/>
<g opacity="0.2">
<path opacity="0.2" d="M423.941 283.549C423.941 283.549 419.496 289.601 418.442 289.196C417.022 288.647 417.076 285.512 417.076 285.512L423.941 283.549Z" fill="#383838"/>
</g>
<path d="M471.215 390.438C471.171 390.853 471.117 391.266 471.073 391.674C471.022 392.22 470.957 392.759 470.899 393.294C470.535 396.501 470.172 399.538 469.914 402.333C469.497 406.263 469.115 409.723 468.825 412.551C468.774 413.053 468.723 413.549 468.672 414.019C468.516 415.523 468.392 416.799 468.309 417.815C468.08 418.007 463.376 421.695 439.371 421.687C433.725 421.693 428.085 421.324 422.488 420.585C415.225 419.655 408.08 417.971 401.17 415.559C398.36 414.565 395.607 413.42 392.922 412.128C384.618 408.111 378.146 403.063 374.034 397.466C373.307 390.597 375.796 350.463 380.43 320.309C387.651 315.717 400.328 288.051 401.377 279.069C402.017 278.733 402.649 278.397 403.284 278.09L404.069 277.695L404.708 277.395C405.435 277.066 406.081 276.759 406.771 276.459L407.498 276.155L408.148 275.884C409.361 275.396 410.556 274.94 411.78 274.532C410.066 286.463 413.262 301.49 414.988 307.727C415.089 308.087 415.275 308.419 415.529 308.696C415.782 308.973 416.095 309.188 416.446 309.324C416.796 309.46 417.174 309.514 417.548 309.48C417.927 309.445 418.291 309.321 418.612 309.119C428.67 303.193 442.502 290.896 445.956 282.906C449.719 274.192 456.257 286.391 453.863 293.532C451.47 300.673 442.582 322.818 443.57 327.428C444.423 331.326 463.471 373.347 469.442 386.489C469.653 386.956 469.853 387.379 470.027 387.773C470.031 387.791 470.038 387.808 470.049 387.823C470.278 388.315 470.477 388.738 470.637 389.096L470.659 389.147C470.782 389.411 470.888 389.635 470.968 389.827C471.117 390.235 471.215 390.438 471.215 390.438Z" fill="#007AFF"/>
<path d="M439.363 414.633C450.987 414.633 464.172 413.389 468.825 412.514C468.766 413.024 468.719 413.519 468.668 413.982C458.978 415.321 449.208 415.999 439.425 416.011C408.159 416.011 387.749 404.986 379.784 395.532C379.677 395.42 379.611 395.276 379.595 395.123C379.395 385.766 381.553 351.461 385.675 323.483C385.697 323.329 385.77 323.186 385.882 323.078C392.279 316.845 398.319 305.177 400.662 294.714C401.672 290.234 402.235 285.863 402.681 282.356C402.885 280.747 403.07 279.326 403.27 278.068L404.051 277.681L404.69 277.377C404.755 277.505 404.778 277.651 404.755 277.793C404.527 279.149 404.323 280.718 404.094 282.529C403.64 286.062 403.07 290.484 402.057 295.025C399.674 305.615 393.528 317.467 387.048 323.914C382.995 351.544 380.873 385.209 381.008 394.841C388.915 404.028 408.834 414.626 439.363 414.633Z" fill="#6FB5D8"/>
<path d="M471.077 391.678C471.022 392.22 470.957 392.762 470.899 393.294C447.551 376.763 436.734 329.449 436.625 328.976C435.967 325.91 439.167 318.49 443.599 308.215C446.185 302.206 449.12 295.398 451.615 288.589C451.818 288.018 451.749 287.971 450.987 287.66C450.754 287.573 450.531 287.462 450.322 287.328C442.24 299.621 427.617 312.677 419.146 316.943L416.934 318.057C416.458 318.304 415.935 318.452 415.398 318.491C414.862 318.529 414.324 318.457 413.816 318.28C413.309 318.103 412.843 317.824 412.449 317.46C412.054 317.096 411.739 316.656 411.522 316.166C410.048 313.114 406.546 305.377 405.834 299.219C405.304 294.693 405.885 287.92 406.346 282.446C406.546 280.082 406.71 278.021 406.782 276.466L407.509 276.155L408.162 275.888C408.207 275.977 408.227 276.077 408.221 276.177C408.17 277.793 407.984 280.002 407.767 282.566C407.312 287.964 406.735 294.671 407.247 299.057C407.974 305.203 411.682 313.248 412.804 315.573C412.942 315.89 413.145 316.176 413.4 316.412C413.655 316.647 413.955 316.828 414.283 316.943C414.611 317.059 414.959 317.106 415.306 317.081C415.654 317.055 415.991 316.958 416.299 316.795L418.511 315.678C427.036 311.371 442.011 297.925 449.777 285.512C449.88 285.388 450.023 285.302 450.181 285.267C450.34 285.232 450.505 285.251 450.651 285.321C450.798 285.391 450.916 285.508 450.988 285.652C451.06 285.797 451.081 285.962 451.048 286.12C451.196 286.202 451.35 286.272 451.51 286.33C452.145 286.586 453.642 287.187 452.934 289.049C450.424 295.893 447.485 302.723 444.888 308.75C440.893 318.024 437.435 326.04 437.987 328.658C438.125 329.146 448.615 375.046 471.077 391.678Z" fill="#6FB5D8"/>
<path d="M269.981 604.738C255.841 611.97 234.832 609.554 234.832 609.554L234.628 605.635V605.566L234.243 597.565L234.145 595.497L235.188 595.298C237.534 594.861 243.487 593.765 249.473 592.807C257.403 591.541 265.383 590.525 265.092 591.614C264.594 593.758 265.971 599.908 269.981 604.738Z" fill="#FDBA9D"/>
<path d="M176.668 579.31C176.668 579.31 169.938 590.554 169.404 597.67C157.694 598.075 139.787 581.074 139.787 581.074L141.875 578.366L143.481 576.287L144.737 574.656L150.941 566.615H156.451L170.388 575.398L176.668 579.31Z" fill="#FDBA9D"/>
<path d="M268.633 593.635L250.418 595.584L248.994 595.736L239.993 596.708H239.695L231.221 597.612C231.624 592.912 231.668 585.185 231.432 575.514C231.432 574.91 231.388 574.288 231.381 573.666C231.181 566.261 230.822 557.797 230.353 548.747C230.288 547.579 230.229 546.404 230.164 545.215C229.496 533.088 228.62 520.025 227.64 507.074C227.153 500.685 226.634 494.318 226.1 488.103C223.237 454.915 219.787 426.098 217.215 420.744C211.291 408.429 264.118 399.798 271.096 406.393C278.074 412.988 281.666 422.045 281.666 422.045C284.79 444.31 273.206 579.715 268.633 593.635Z" fill="#2F5886"/>
<path d="M250.418 595.58L248.997 595.736C249.898 577.173 250.418 495.623 248.01 470.596L249.43 470.462C251.925 496.393 251.348 576.41 250.418 595.58Z" fill="#1E2F3F"/>
<g style="mix-blend-mode:multiply" opacity="0.2">
<g style="mix-blend-mode:multiply" opacity="0.2">
<path d="M230.35 548.747C230.284 547.579 230.226 546.404 230.161 545.215C229.492 533.088 228.617 520.025 227.636 507.074C227.15 500.685 226.63 494.318 226.096 488.102C226.133 487.741 226.147 487.546 226.147 487.546L259.611 416.68C273.624 458.744 241.657 532.528 230.35 548.747Z" fill="#5E5E5E"/>
</g>
</g>
<path d="M184.387 586.133C178.808 584.849 168.525 578.54 160.149 572.943L158.968 572.151L155.906 570.029C150.669 566.413 146.924 563.64 146.924 563.64C151.932 555.557 156.487 547.204 160.567 538.62C161.079 537.535 161.584 536.451 162.067 535.391C167.922 522.584 172.677 509.306 176.28 495.699C176.287 495.656 176.298 495.614 176.312 495.573C183.084 470.102 185.699 443.714 184.056 417.417C184.42 415.346 185.705 413.404 187.667 411.632C202.588 398.103 257.406 394.093 259.625 416.694C262.342 444.039 246.822 521.11 184.387 586.133Z" fill="#2F5886"/>
<g style="mix-blend-mode:multiply" opacity="0.3">
<g style="mix-blend-mode:multiply" opacity="0.3">
<path d="M203.416 421.561C193.413 420.455 180.947 480.217 176.356 495.576C183.123 470.104 185.731 443.714 184.082 417.418C184.445 415.349 185.731 413.404 187.692 411.633L191.688 410.548L203.416 421.561Z" fill="#383838"/>
</g>
</g>
<path d="M160.149 572.943L158.968 572.151C170.744 556.561 185.146 527.155 198.763 490.847C204.782 474.732 209.882 459.163 213.292 446.736C211.248 446.324 209.433 445.163 208.207 443.482C204.164 438.229 204.121 427.997 205.436 420.18L206.856 420.415C205.654 427.603 205.585 437.744 209.358 442.643C210.407 444.075 211.967 445.053 213.717 445.377C216.786 434.14 218.439 425.693 218.032 422.114L219.453 421.966C221.167 437.831 187.478 536.729 160.149 572.943Z" fill="#1E2F3F"/>
<path d="M289.192 399.621C289.58 408.899 276.777 402.843 276.777 402.843L275.077 380.256L270.264 316.212L269.843 310.655C269.844 310.652 269.845 310.648 269.845 310.644C269.845 310.641 269.844 310.637 269.843 310.633C268.338 308.881 267.014 306.981 265.891 304.964C264.438 302.357 263.007 299.056 262.513 295.462C262.469 295.126 262.426 294.783 262.404 294.443C262.231 292.529 262.382 290.601 262.851 288.737C263.726 289.518 264.761 290.505 265.891 291.68C266.57 292.404 267.289 293.17 268.03 294.009C272.72 299.313 278.36 307.105 281.709 315.883C289.323 335.889 288.796 390.333 289.192 399.621Z" fill="#007AFF"/>
<g style="mix-blend-mode:multiply" opacity="0.2">
<g style="mix-blend-mode:multiply" opacity="0.2">
<path d="M282.192 399.662C280.376 399.828 277.783 391.545 275.077 380.257L270.264 316.213C275.763 330.607 282.4 368.875 283.682 378.706C285.567 393.114 287.804 399.148 282.192 399.662Z" fill="#5E5E5E"/>
</g>
</g>
<path d="M401.396 332.718H282.182V407.648H401.396V332.718Z" fill="#F5993F"/>
<path d="M401.396 332.718H366.759V407.648H401.41L401.396 332.718Z" fill="#D68134"/>
<path d="M273.61 416.477C270.439 418.372 258.59 420.114 244.45 421.13C240.433 421.423 236.227 421.648 231.98 421.803C212.221 422.548 191.619 421.716 184.943 417.981C184.636 417.818 184.344 417.628 184.071 417.414V407.326C185.179 407.868 187.62 408.161 190.936 408.262C197.474 408.476 207.488 407.97 218.091 407.178C226.387 406.57 235.046 405.797 242.634 405.059C255.456 403.819 265.266 402.694 265.266 402.694C265.266 402.694 282.098 411.365 273.61 416.477Z" fill="#73BAF9"/>
<path d="M279.516 399.118C279.45 399.746 279.254 400.354 278.942 400.903C278.629 401.452 278.206 401.932 277.699 402.311C277.415 402.523 277.106 402.701 276.78 402.843C250.628 414.083 205.806 409.944 193.965 409.199H193.402L192.774 409.134C181.739 408.244 181.579 405.717 180.58 402.488C179.854 400.29 180.882 396.486 181.732 391.959C181.826 391.439 181.917 390.915 182.011 390.379C182.487 387.799 182.73 385.182 182.738 382.559C182.738 380.097 182.32 375.292 181.804 369.018C181.289 362.745 180.638 355.004 180.032 346.735C179.618 341.091 179.251 335.227 178.975 329.38C178.07 309.881 190.257 294.931 197.024 287.75C198.284 286.409 199.355 285.335 200.118 284.561C200.922 283.731 201.771 282.945 202.661 282.207C205.26 280.074 208.209 278.403 211.378 277.265C216.739 275.262 224.262 273.866 235.249 273.866C242.877 273.866 252.604 279 257.54 281.922C259.498 283.093 260.704 283.903 260.704 283.903C261.34 285.266 261.957 286.64 262.546 288.021L262.851 288.744C263.661 290.672 264.424 292.624 265.135 294.587C267.055 299.837 268.632 305.204 269.857 310.655C269.859 310.659 269.86 310.662 269.86 310.666C269.86 310.67 269.859 310.673 269.857 310.677C271.194 316.957 273.41 329.738 275.473 343.912C276.563 351.378 277.54 359.242 278.317 366.788C279.654 379.706 280.329 391.714 279.516 399.118Z" fill="#007AFF"/>
<g style="mix-blend-mode:multiply" opacity="0.2">
<g style="mix-blend-mode:multiply" opacity="0.2">
<path d="M265.876 291.66C264.957 292.332 263.653 293.406 262.389 294.436C260.849 295.698 259.375 296.902 258.801 297.224L261.707 287.462L262.546 288.008L262.851 288.731C263.712 289.498 264.747 290.485 265.876 291.66Z" fill="#5E5E5E"/>
</g>
</g>
<g style="mix-blend-mode:multiply" opacity="0.4">
<g style="mix-blend-mode:multiply" opacity="0.4">
<path d="M219.533 291.692C216.863 290.039 207.881 285.617 203.689 285.397C198.35 285.122 197.002 287.751 197.002 287.751C198.266 286.409 199.337 285.335 200.1 284.558C200.905 283.73 201.754 282.946 202.643 282.208H202.755C209.573 281.608 219.533 291.692 219.533 291.692Z" fill="#383838"/>
</g>
</g>
<g style="mix-blend-mode:multiply" opacity="0.4">
<g style="mix-blend-mode:multiply" opacity="0.4">
<g style="mix-blend-mode:multiply" opacity="0.4">
<path d="M255.826 336.142L254.402 335.904C254.402 335.806 256.037 326.065 253.599 318.122C251.576 311.534 251.256 305.97 252.662 301.081C253.274 298.976 254.206 296.976 255.426 295.152C255.863 295.379 256.229 295.721 256.487 296.139C255.383 297.83 254.544 299.678 253.999 301.62C252.713 306.216 253.047 311.469 254.958 317.706C257.522 325.975 255.888 335.737 255.826 336.142Z" fill="#383838"/>
</g>
</g>
<g style="mix-blend-mode:multiply" opacity="0.4">
<g style="mix-blend-mode:multiply" opacity="0.4">
<path d="M254.522 335.487L256.026 335.918C256.157 335.964 256.268 336.055 256.338 336.174C256.41 336.292 256.438 336.432 256.418 336.568L256.011 341.413C256.015 341.495 255.999 341.577 255.964 341.652C255.929 341.728 255.877 341.795 255.812 341.847C255.746 341.901 255.669 341.938 255.586 341.956C255.505 341.974 255.421 341.974 255.339 341.956L252.866 341.135C252.716 341.07 252.597 340.949 252.535 340.799C252.477 340.649 252.477 340.482 252.535 340.332L253.901 335.881C253.915 335.814 253.944 335.749 253.985 335.693C254.024 335.637 254.075 335.589 254.134 335.552C254.192 335.516 254.258 335.491 254.326 335.48C254.391 335.469 254.458 335.472 254.522 335.487Z" fill="#383838"/>
</g>
</g>
</g>
<path d="M278.31 366.763C262.691 374.573 196.947 373.994 181.801 368.994C181.274 362.753 180.606 355.048 180.01 346.787C190.391 350.189 254.184 351.024 275.459 343.963C276.552 351.339 277.529 359.239 278.31 366.763Z" fill="#D1E3E8"/>
<g style="mix-blend-mode:multiply" opacity="0.2">
<g style="mix-blend-mode:multiply" opacity="0.2">
<path d="M244.45 421.131C240.433 421.424 236.226 421.648 231.98 421.804C227.745 418.868 222.94 413.535 218.091 407.182C204.539 389.408 187.173 355.432 181.677 338.948L242.336 404.116C242.336 404.116 242.452 404.478 242.645 405.063C243.505 407.876 245.845 416.246 244.45 421.131Z" fill="#5E5E5E"/>
</g>
</g>
<path d="M257.523 281.904C252.59 278.979 242.848 273.845 235.239 273.845C224.244 273.845 216.714 275.259 211.36 277.244C210.271 276.727 209.464 276.325 209.032 276.076C204.989 273.762 208.491 267.857 208.491 267.857C208.491 267.857 219.711 264.574 224.473 263.678C229.235 262.781 250.055 270.739 250.952 271.354C251.849 271.968 255.797 276.705 256.876 278.585C257.409 279.606 257.634 280.759 257.523 281.904Z" fill="#142232"/>
<path d="M257.522 281.904C257.321 283.994 256.768 286.035 255.888 287.943C254.626 290.694 252.387 292.883 249.6 294.089C249.6 294.089 220.466 281.568 211.36 277.233C216.729 275.234 224.244 273.834 235.239 273.834C242.848 273.845 252.59 278.972 257.522 281.904Z" fill="#162542"/>
<path d="M257.522 281.904C257.321 283.994 256.768 286.035 255.888 287.943C254.626 290.694 252.387 292.883 249.6 294.089C249.6 294.089 220.466 281.568 211.36 277.233C216.729 275.234 224.244 273.834 235.239 273.834C242.848 273.845 252.59 278.972 257.522 281.904Z" fill="#122038"/>
<path d="M256.109 239.598C264.863 238.998 267.798 217.742 252.208 217.518C233.626 217.254 234.047 212.036 227.146 213.103C221.113 214.05 215.032 221.535 219.333 229.012C206.667 233.712 209.631 244.559 215.777 250.163C220.499 254.502 225.918 258.374 225.842 260.048C225.842 260.048 226.764 243.586 232.278 240.376C237.792 237.165 256.109 239.598 256.109 239.598Z" fill="#142232"/>
<g style="mix-blend-mode:multiply" opacity="0.4">
<g style="mix-blend-mode:multiply" opacity="0.4">
<path d="M256.11 239.599C264.863 238.999 267.798 217.742 252.208 217.518C233.626 217.254 234.047 212.037 227.146 213.104C221.113 214.051 215.032 221.535 219.333 229.012C206.667 233.713 209.631 244.559 215.777 250.164C220.499 254.502 225.918 258.375 225.842 260.049C225.842 260.049 226.765 243.587 232.278 240.376C237.792 237.165 256.11 239.599 256.11 239.599Z" fill="#383838"/>
</g>
</g>
<path d="M248.663 264.343V279.135C248.663 279.135 226.917 278.578 226.169 270.295C225.421 262.011 225.141 252.509 225.141 252.509L248.663 264.343Z" fill="#FDBA9D"/>
<g style="mix-blend-mode:multiply" opacity="0.2">
<g style="mix-blend-mode:multiply" opacity="0.2">
<path d="M248.663 265.594V272.728C240.4 272.503 236.059 265.974 235.671 263.526C235.391 261.743 243.894 264.148 248.663 265.594Z" fill="#5E5E5E"/>
</g>
</g>
<path d="M255.568 229.832C260.82 254.447 258.801 274.517 235.671 263.544C224.599 258.305 221.142 252.95 221.142 252.95C221.142 252.95 228.962 233.18 230.295 232.739C231.628 232.298 237.559 230.468 239.575 230.736C241.591 231.003 255.568 229.832 255.568 229.832Z" fill="#FDBA9D"/>
<path d="M258.79 232.168C252.394 230.494 247.007 240.799 239.132 239.732C231.258 238.666 229.747 238.442 226.783 239.251C223.931 240.271 225.461 257.066 225.33 258.02C225.33 258.02 221.818 254.513 221.549 254.448C221.28 254.383 218.843 250.623 218.777 249.889C218.712 249.155 225.243 235.614 227.466 234.088C229.689 232.563 231.461 229.536 234.367 229.204C237.273 228.871 240.32 228.35 242.358 228.415C245.06 228.556 246.815 227.869 249.448 228.484C250.868 228.958 258.278 229.428 258.529 229.833C258.779 230.238 258.79 232.168 258.79 232.168Z" fill="#142232"/>
<path d="M229.184 240.133C222.853 237.118 220.365 240.6 220.365 244.949C220.365 248.898 224.404 253.106 229.184 247.357C233.964 241.609 229.184 240.133 229.184 240.133Z" fill="#FDBA9D"/>
<path d="M252.989 278.61L252.72 285.4C252.704 285.901 252.549 286.388 252.273 286.807C251.997 287.226 251.61 287.561 251.155 287.776C249.428 288.434 247.591 288.756 245.743 288.723C232.027 289.146 222.576 281.658 218.526 277.855C218.247 277.585 218.046 277.245 217.945 276.871C217.847 276.498 217.854 276.106 217.963 275.736C219.055 272.691 220.421 269.751 222.042 266.95C222.751 265.948 225.751 265.081 225.751 265.081L226.034 268.447L226.15 269.86C228.842 271.979 240.894 278.758 248.369 277.554L248.405 276.694L248.641 271.292L251.482 274.514C252.482 275.643 253.02 277.105 252.989 278.61Z" fill="#202E51"/>
<path d="M226.151 269.763C225.409 269.259 224.718 268.685 224.088 268.049C224.701 268.312 225.368 268.427 226.035 268.386L226.151 269.763Z" fill="#142232"/>
<path d="M248.442 293.818C245.3 293.094 236.575 291.413 232.274 294.1C226.982 297.397 219.532 291.692 219.532 291.692C209.21 283.922 202.686 282.15 202.686 282.15C202.686 282.15 200.256 284.496 198.422 286.304C197.852 286.861 197.332 287.367 197.002 287.751L196.849 286.749C196.58 284.904 196.781 283.022 197.434 281.275C198.258 279.069 199.229 276.92 200.34 274.843C201.967 271.838 204.055 268.924 206.515 267.517C213.053 263.775 218.864 262.68 225.58 262.759L225.736 264.799C220.72 264.672 214.255 266.245 210.891 268.591C210.725 268.711 210.585 268.862 210.477 269.036C210.372 269.21 210.302 269.403 210.27 269.604C210.239 269.805 210.25 270.011 210.303 270.208C210.353 270.405 210.441 270.591 210.564 270.753C214.887 276.488 238.842 291.099 248.442 293.818Z" fill="#007AFF"/>
<path d="M249.549 294.085C249.215 294.013 248.841 293.929 248.46 293.817C249.015 293.944 249.393 294.042 249.549 294.085Z" fill="#007AFF"/>
<path d="M248.641 267.858C253.084 270.194 260.991 276.112 263.294 280.57C265.873 285.513 262.774 294.078 258.801 297.227C258.939 294.751 253.465 292.115 249.6 294.48C255.368 287.751 255.91 283.307 255.1 279.764C254.29 276.221 248.641 271.199 248.641 271.199V267.858Z" fill="#007AFF"/>
<path d="M186.029 629.152C186.029 629.152 168.448 628.819 164.206 628.819C163.403 628.819 161.809 626.849 159.35 624.842C150.378 617.492 133.768 602.595 128.737 597.421C127.949 596.6 127.793 595.946 128.552 595.104C129.137 594.464 128.12 593.426 128.973 592.479C133.946 586.983 142.518 577.506 143.477 576.237C145.885 579.766 156.88 589.279 159.208 590.085C163.294 587.627 171.736 587.261 170.94 591.264C170.145 595.266 168.808 605.151 175.865 608.055C177.393 608.661 178.887 609.346 180.344 610.105C180.947 610.427 179.254 613.89 179.832 614.27C183.896 616.884 184.096 618.204 184.554 625.449C184.663 627.337 186.341 626.831 186.029 629.152Z" fill="#202E51"/>
<path d="M182.135 611.207C179.796 613.058 174.87 616.008 170.054 613.101C163.411 609.088 159.012 597.048 159.186 590.135C163.273 587.68 171.718 587.311 170.919 591.313C170.119 595.316 168.79 605.205 175.844 608.108C177.372 608.712 178.867 609.395 180.322 610.154C180.955 610.454 181.561 610.806 182.135 611.207Z" fill="#354668"/>
<path d="M300.408 629.129L240.356 629.039L234.251 624.928L234.65 606.915C234.65 606.915 250.792 607.099 258.808 606.47C258.445 601.839 263.301 597.467 267.122 599.669C270.37 608.242 278.836 609.272 287.463 610.042C288.211 610.107 285.672 614.591 286.421 614.66C286.984 614.71 289.156 615.296 289.711 615.383C297.848 616.193 297.484 616.377 298.792 625.77C299.072 627.737 300.408 626.66 300.408 629.129Z" fill="#202E51"/>
<path d="M286.268 612.826C286.202 614.887 288.621 614.945 283.78 614.634C275.131 614.034 263.988 611.16 258.79 606.47C258.427 601.839 263.279 597.467 267.104 599.669C270.351 608.242 278.814 609.272 287.445 610.042C288.193 610.107 285.523 612.754 286.268 612.826Z" fill="#354668"/>
<path d="M305.795 631.631H277.427C276.886 620.748 282.745 609.54 287.51 610.043C288.818 610.155 290.133 610.27 291.433 610.404C299.569 611.214 304.055 615.542 305.377 624.935C305.672 627.155 305.812 629.392 305.795 631.631Z" fill="white"/>
<path d="M305.795 631.632H234.181L234.33 624.928H305.374C305.67 627.15 305.811 629.39 305.795 631.632Z" fill="white"/>
<path d="M443.551 275.783C443.551 275.783 431.158 287.078 425.597 286.373C424.813 286.276 424.555 283.843 423.912 283.503C421.558 282.185 419.646 280.205 418.416 277.812C418.618 275.847 418.938 273.896 419.375 271.969C419.375 271.925 419.397 271.875 419.404 271.831C419.539 271.289 419.669 270.714 419.818 270.1C420.051 269.16 420.316 268.144 420.632 267.07C420.643 266.988 420.668 266.909 420.705 266.835C420.705 266.762 422.833 264.792 425.15 265.052C425.694 265.073 426.239 265.046 426.778 264.973C427.769 264.857 429.062 264.636 430.472 264.376C435.452 263.454 441.939 261.936 441.939 261.936L443.551 275.783Z" fill="#F7D1C2"/>
<g style="mix-blend-mode:multiply" opacity="0.2">
<g style="mix-blend-mode:multiply" opacity="0.2">
<path d="M433.142 264.672C431.1 269.224 423.741 271.18 419.375 271.968C419.375 271.925 419.397 271.874 419.405 271.831C419.539 271.288 419.67 270.714 419.819 270.099C420.051 269.159 420.316 268.143 420.632 267.069C420.643 266.987 420.668 266.908 420.705 266.834C420.705 266.762 422.833 264.791 425.151 265.052C425.694 265.072 426.239 265.046 426.778 264.972C427.77 264.856 429.063 264.636 430.472 264.375L433.142 264.672Z" fill="#5E5E5E"/>
</g>
</g>
<path d="M413.15 239.421C412.162 252.886 413.15 272.956 433.614 267.623C454.078 262.29 445.916 250.138 445.916 250.138L442.32 238.987C442.32 238.987 425.249 231.68 424.014 229.102C422.779 226.524 421.947 223.841 419.346 229.102C417.512 232.674 415.442 236.121 413.15 239.421Z" fill="#F7D1C2"/>
<path d="M423.941 283.549C423.941 283.549 425.031 291.775 429.081 291.775C433.345 291.775 442.32 283.217 444.209 279.268C446.098 275.32 442.625 274.546 442.625 274.546C437.864 279.934 428.79 285.758 423.941 283.549Z" fill="#40507E"/>
<path d="M422.038 229.254C418.627 238.886 412.431 242.183 409.645 242.451C406.859 242.718 409.739 228.328 416.829 225.678C423.92 223.028 428.674 221.668 432.989 225.678C437.304 229.687 440.98 231.745 442.321 234.355C443.661 236.966 445.161 237.447 444.024 239.077L442.873 240.712C442.873 240.712 426.495 245.415 422.038 229.254Z" fill="#142232"/>
<path d="M479.231 382.407L479.075 382.768C478.254 384.508 476.075 386.605 472.922 388.915C471.52 389.938 469.936 390.998 468.2 392.079C449.167 403.88 411.515 418.704 399.616 418.704C385.617 418.704 364.692 414.076 358.008 409.35L357.772 409.191C357.15 408.774 356.611 408.246 356.181 407.633C358.484 407.496 381.179 406.057 385.741 405.963H386.151C388.992 405.963 389.653 403.699 388.28 402.748C383.972 399.711 380.597 396.269 381.102 394.364C382.192 390.267 391.763 397.126 398.69 397.191C399.416 397.191 401.014 396.577 403.321 395.495C413.378 390.755 435.771 377.186 442.269 368.664C443.654 366.977 445.622 365.864 447.787 365.544C458.469 363.566 477.35 373.104 479.264 380.18C479.479 380.908 479.468 381.685 479.231 382.407Z" fill="#F7D1C2"/>
<g style="mix-blend-mode:multiply" opacity="0.2">
<g style="mix-blend-mode:multiply" opacity="0.2">
<path d="M479.231 382.407L479.075 382.768C478.254 384.508 476.075 386.605 472.922 388.915C468.996 384.724 461.662 379.749 455.851 376.582L479.228 380.198C479.451 380.917 479.452 381.687 479.231 382.407Z" fill="#5E5E5E"/>
</g>
</g>
<path d="M482.126 371.43C481.588 375.19 480.613 378.875 479.22 382.411L479.071 382.773C469.835 383.478 454.263 376.326 446.625 371.803C444.314 370.44 442.738 369.319 442.266 368.726C443.352 365.199 444.176 361.598 444.732 357.951C446.719 345.022 445.186 333.615 443.559 327.515C453.435 324.261 457.772 303.652 456.036 292.523C454.554 282.855 463.856 288.401 467.485 293.843C475.959 306.61 486.183 345.268 482.126 371.43Z" fill="#202E51"/>
<path d="M444.852 251.016C442.189 256.526 436.374 294.899 460.906 294.899C478.948 294.899 474.066 275.407 471.215 271.799C465.665 264.737 460.975 265.291 460.031 261.675C459.087 258.059 458.447 253.359 454.288 253.33C450.13 253.301 447.525 249.989 447.525 249.989L444.852 251.016Z" fill="#142232"/>
<path d="M442.872 240.693C446.268 239.153 448.884 241.688 449.545 244.103C450.471 247.458 448.201 253.283 442.44 250.17C436.679 247.057 442.872 240.693 442.872 240.693Z" fill="#F7D1C2"/>
<path d="M333.658 409.319C333.139 409.742 332.514 410.201 331.791 410.682C324.89 415.263 309.554 422.114 300.012 425.072H299.962C299.598 425.184 299.235 425.289 298.916 425.383C298.87 425.401 298.822 425.416 298.774 425.426C298.229 425.589 297.684 425.73 297.205 425.856C295.965 426.201 294.693 426.416 293.409 426.5C284.724 426.681 272.342 423.575 268.539 421.832C268.368 421.745 268.227 421.611 268.132 421.445C268.037 421.279 267.993 421.09 268.005 420.899C267.849 416.409 282.926 399.072 289.188 401.737C290.674 402.485 293.878 403.855 296.297 403.205C302.947 401.397 310.506 394.563 312.115 396.187C314.338 398.389 307.535 405.613 310.165 406.885C310.25 406.925 310.339 406.957 310.43 406.983C310.584 407.03 310.74 407.067 310.898 407.095C315.62 407.985 335.234 406.878 335.234 406.878C335.521 407.46 334.911 408.299 333.658 409.319Z" fill="#FDBA9D"/>
<path d="M333.658 409.319C333.139 409.742 332.514 410.201 331.791 410.682C324.89 415.263 309.554 422.114 300.012 425.072H299.962C299.598 425.184 299.235 425.289 298.916 425.383C298.87 425.401 298.822 425.416 298.774 425.426C298.229 425.589 297.684 425.73 297.205 425.856C295.965 426.201 294.693 426.416 293.409 426.5C284.724 426.681 272.342 423.575 268.539 421.832C268.368 421.745 268.227 421.611 268.132 421.445C268.037 421.279 267.993 421.09 268.005 420.899C267.849 416.409 282.926 399.072 289.188 401.737C290.674 402.485 293.878 403.855 296.297 403.205C302.947 401.397 310.506 394.563 312.115 396.187C314.338 398.389 307.535 405.613 310.165 406.885C310.25 406.925 310.339 406.957 310.43 406.983C310.584 407.03 310.74 407.067 310.898 407.095C315.62 407.985 335.234 406.878 335.234 406.878C335.521 407.46 334.911 408.299 333.658 409.319Z" fill="#EDA58C"/>
<path d="M333.658 409.319C327.846 409 317.563 408.595 310.92 407.128C315.642 408.017 335.256 406.911 335.256 406.911C335.521 407.46 334.911 408.299 333.658 409.319Z" fill="#EDA58C"/>
<path d="M289.195 401.762C287.931 409.788 272.945 421.047 268.546 421.843C267.375 421.423 266.239 420.914 265.146 420.321C263.207 419.276 261.362 418.067 259.633 416.705V416.662C259.803 416.145 261.503 411.238 263.072 406.943C264.329 403.494 265.502 400.435 265.738 400.348C266.272 400.171 279.566 395.286 279.984 395.152C279.984 395.138 286.686 400.156 289.195 401.762Z" fill="#73BAF9"/>
<path d="M280.006 395.123C279.837 395.624 279.598 396.098 279.298 396.533C276.454 400.771 270.889 406.957 265.085 412.149C263.269 413.78 261.405 415.32 259.611 416.662C255.699 419.597 252.045 421.604 249.492 421.803C241.501 422.338 231.091 401.422 225.254 395.673C219.562 390.181 187.017 358.403 179.364 332.598C179.2 332.053 179.044 331.514 178.91 330.982C173.487 309.35 198.052 286.662 198.052 286.662C201.542 288.897 204.434 291.943 206.48 295.537C208.525 299.132 209.661 303.167 209.791 307.296V307.347C219.384 327.551 246.793 359.6 256.702 366.777C257.733 367.525 258.834 368.281 259.909 369.051C260.984 369.821 262.332 370.758 263.559 371.651L263.654 371.712C271.383 377.306 279.123 383.839 280.26 392.567C280.369 393.427 280.282 394.301 280.006 395.123Z" fill="#007AFF"/>
<path d="M336.247 332.718H316.332V407.648H336.247V332.718Z" fill="#FFB471"/>
<path d="M411.548 552.887H292.337V630.622H411.548V552.887Z" fill="#F5993F"/>
<path d="M411.548 552.887H362.978V630.622H411.548V552.887Z" fill="#C26C1E"/>
<path d="M120.666 561.247H95.582V631.299H120.666V561.247Z" fill="#C67B38"/>
<path d="M430.185 589.636H381.876V630.638H430.185V589.636Z" fill="#F5993F"/>
<path d="M381.908 589.614H430.217L416.004 569.949H367.695L381.908 589.614Z" fill="#E08F46"/>
<path d="M455.829 589.615H430.21V630.616H455.829V589.615Z" fill="#C26C1E"/>
<path d="M444.423 569.135H470.049L455.836 589.636H430.21L444.423 569.135Z" fill="#B16324"/>
<path d="M338.3 552.887H318.374V630.622H338.3V552.887Z" fill="#FFB471"/>
<path d="M437.112 191.43H407.327C407.08 191.43 406.836 191.478 406.608 191.571C406.379 191.665 406.172 191.803 405.997 191.976C405.822 192.15 405.684 192.356 405.589 192.583C405.495 192.81 405.446 193.054 405.446 193.299C405.446 193.796 405.644 194.273 405.997 194.624C406.35 194.975 406.828 195.172 407.327 195.172H437.112C437.359 195.172 437.603 195.124 437.832 195.03C438.06 194.936 438.267 194.798 438.442 194.624C438.617 194.45 438.755 194.243 438.85 194.016C438.945 193.789 438.993 193.545 438.993 193.299C438.993 193.054 438.945 192.81 438.85 192.583C438.755 192.356 438.617 192.15 438.442 191.976C438.267 191.803 438.06 191.665 437.831 191.571C437.603 191.478 437.359 191.43 437.112 191.43Z" fill="white"/>
<path d="M445.724 195.173C446.096 195.172 446.459 195.061 446.768 194.855C447.077 194.649 447.318 194.356 447.46 194.014C447.602 193.672 447.638 193.295 447.565 192.932C447.492 192.569 447.313 192.236 447.05 191.974C446.786 191.712 446.451 191.534 446.086 191.462C445.721 191.391 445.343 191.428 445 191.57C444.656 191.712 444.362 191.952 444.156 192.259C443.949 192.567 443.839 192.929 443.839 193.3C443.839 193.546 443.888 193.79 443.982 194.017C444.077 194.245 444.216 194.451 444.391 194.625C444.566 194.799 444.774 194.937 445.003 195.031C445.232 195.125 445.477 195.173 445.724 195.173Z" fill="white"/>
<path d="M426.531 519.945C429.488 519.939 432.378 519.061 434.835 517.421C437.291 515.781 439.204 513.453 440.332 510.732C441.46 508.01 441.752 505.016 441.172 502.129C440.591 499.242 439.164 496.591 437.07 494.511C434.977 492.431 432.311 491.016 429.41 490.444C426.508 489.871 423.502 490.168 420.769 491.296C418.037 492.424 415.702 494.333 414.06 496.781C412.417 499.23 411.54 502.108 411.54 505.052C411.542 507.01 411.931 508.949 412.685 510.757C413.439 512.565 414.544 514.207 415.936 515.59C417.328 516.973 418.98 518.07 420.798 518.817C422.616 519.564 424.564 519.948 426.531 519.945Z" fill="white"/>
<path d="M419.808 270.316C419.237 272.847 422.125 282.143 423.941 283.55C419.296 287.632 416.735 288.633 416.204 287.227C415.674 285.82 413.509 275.928 416.07 272.442C418.631 268.957 419.971 269.651 419.971 269.651L419.808 270.316Z" fill="#40507E"/>
<path d="M553.863 610.885C553.684 610.886 553.512 610.822 553.378 610.705C553.244 610.587 553.158 610.425 553.136 610.249C551.818 600.085 551.182 581.414 553.732 562.23C557.023 537.463 564.487 518.842 575.911 506.889C575.977 506.82 576.057 506.764 576.145 506.725C576.233 506.686 576.328 506.665 576.425 506.662C576.521 506.66 576.617 506.677 576.707 506.711C576.797 506.746 576.88 506.798 576.949 506.864C577.019 506.93 577.075 507.009 577.115 507.097C577.154 507.185 577.175 507.28 577.177 507.376C577.18 507.472 577.163 507.567 577.128 507.657C577.094 507.746 577.041 507.828 576.975 507.898C565.926 519.468 558.392 538.309 555.181 562.421C552.639 581.465 553.282 599.988 554.589 610.061C554.603 610.156 554.597 610.252 554.572 610.345C554.547 610.438 554.504 610.525 554.445 610.601C554.387 610.677 554.313 610.741 554.229 610.788C554.146 610.836 554.053 610.866 553.957 610.878L553.863 610.885Z" fill="white"/>
<path d="M589.107 491.816C589.976 491.815 590.825 491.557 591.546 491.075C592.268 490.594 592.83 489.91 593.162 489.11C593.494 488.311 593.58 487.432 593.409 486.583C593.239 485.735 592.82 484.956 592.205 484.345C591.59 483.734 590.807 483.318 589.954 483.15C589.102 482.982 588.218 483.069 587.416 483.4C586.613 483.732 585.927 484.292 585.445 485.011C584.962 485.731 584.704 486.576 584.704 487.441C584.705 488.016 584.819 488.586 585.041 489.117C585.262 489.648 585.586 490.13 585.995 490.536C586.404 490.943 586.889 491.265 587.423 491.484C587.957 491.704 588.529 491.817 589.107 491.816Z" fill="#3E74DB"/>
<path d="M590.258 480.043C587.382 479.598 586.942 464.767 592.496 465.624C598.05 466.481 593.128 480.481 590.258 480.043Z" fill="#3E74DB"/>
<path d="M584.694 481.396C582.355 483.109 571.432 472.946 576.024 469.627C580.615 466.308 586.993 479.693 584.694 481.396Z" fill="#3E74DB"/>
<path d="M581.657 486.294C581.207 489.154 566.282 489.592 567.128 484.071C567.974 478.55 582.104 483.445 581.657 486.294Z" fill="#3E74DB"/>
<path d="M583.03 491.873C584.748 494.195 574.52 505.049 571.178 500.486C567.836 495.923 581.309 489.541 583.03 491.873Z" fill="#3E74DB"/>
<path d="M587.962 494.846C590.828 495.291 591.275 510.125 585.714 509.269C580.153 508.412 585.078 494.408 587.962 494.846Z" fill="#3E74DB"/>
<path d="M593.556 493.486C595.903 491.783 606.818 501.947 602.234 505.262C597.65 508.578 591.21 495.186 593.556 493.486Z" fill="#3E74DB"/>
<path d="M596.556 488.588C596.996 485.735 611.932 485.29 611.06 490.818C610.188 496.347 596.11 491.444 596.556 488.588Z" fill="#3E74DB"/>
<path d="M595.191 483.019C593.465 480.687 603.694 469.84 607.032 474.403C610.37 478.966 596.905 485.347 595.191 483.019Z" fill="#3E74DB"/>
<path d="M552.766 610.568C552.719 610.571 552.671 610.571 552.624 610.568C552.529 610.55 552.438 610.514 552.357 610.462C552.276 610.409 552.207 610.341 552.153 610.261C552.099 610.181 552.061 610.091 552.042 609.997C552.023 609.902 552.024 609.805 552.043 609.711C556.612 586.408 566.365 565.155 578.806 551.402C578.87 551.33 578.948 551.272 579.035 551.231C579.122 551.19 579.217 551.166 579.313 551.162C579.409 551.157 579.506 551.171 579.597 551.203C579.687 551.235 579.771 551.285 579.843 551.349C579.914 551.413 579.972 551.491 580.014 551.578C580.055 551.665 580.079 551.759 580.084 551.854C580.089 551.95 580.074 552.046 580.042 552.137C580.01 552.227 579.96 552.31 579.895 552.381C567.629 565.94 558 586.939 553.485 609.989C553.451 610.154 553.361 610.301 553.23 610.407C553.099 610.512 552.935 610.569 552.766 610.568Z" fill="white"/>
<path d="M590.142 540.598C590.826 540.597 591.495 540.394 592.064 540.015C592.633 539.636 593.076 539.098 593.337 538.468C593.599 537.838 593.667 537.145 593.533 536.477C593.399 535.809 593.069 535.196 592.585 534.714C592.1 534.232 591.483 533.905 590.812 533.772C590.141 533.639 589.445 533.708 588.813 533.969C588.18 534.23 587.64 534.671 587.26 535.238C586.879 535.804 586.677 536.47 586.677 537.152C586.677 538.066 587.043 538.942 587.693 539.588C588.342 540.235 589.223 540.598 590.142 540.598Z" fill="#3E74DB"/>
<path d="M591.231 531.364C588.987 530.937 589.001 519.259 593.378 520.083C597.755 520.908 593.483 531.783 591.231 531.364Z" fill="#3E74DB"/>
<path d="M586.793 532.285C584.904 533.565 576.623 525.296 580.28 522.798C583.938 520.3 588.689 531.002 586.793 532.285Z" fill="#3E74DB"/>
<path d="M584.308 536.06C583.883 538.291 572.122 538.273 572.954 533.927C573.786 529.58 584.73 533.825 584.308 536.06Z" fill="#3E74DB"/>
<path d="M585.235 540.475C586.52 542.352 578.199 550.599 575.686 546.947C573.172 543.296 583.967 538.595 585.235 540.475Z" fill="#3E74DB"/>
<path d="M589.03 542.944C591.279 543.364 591.261 555.049 586.891 554.225C582.521 553.401 586.786 542.525 589.03 542.944Z" fill="#3E74DB"/>
<path d="M593.483 542.022C595.365 540.745 603.654 549.014 599.989 551.509C596.324 554.004 591.595 543.305 593.483 542.022Z" fill="#3E74DB"/>
<path d="M595.953 538.251C596.378 536.016 608.129 536.034 607.308 540.373C606.487 544.712 595.536 540.481 595.953 538.251Z" fill="#3E74DB"/>
<path d="M595.031 533.826C593.749 531.957 602.078 523.702 604.58 527.361C607.083 531.02 596.291 535.706 595.031 533.826Z" fill="#3E74DB"/>
<path d="M525.945 630.999C515.412 618.008 527.366 616.595 534.122 623.045C508.496 575.167 556.137 571.233 547.016 614.067C554.873 600.527 557.706 610.452 557.706 614.067C561.796 573.753 605.837 529.021 573.746 616.121C585.696 599.106 594.973 601.633 587.853 615.647C600.12 596.586 609.24 603.835 598.234 616.595C619.145 599.894 626.203 609.504 613.17 621.79C626.533 611.074 620.072 628.562 615.662 630.999H525.945Z" fill="#9DD0FF"/>
<path d="M559.718 313.154C549.453 315.071 542.912 326.077 545.124 337.741C546.893 347.083 553.725 354.011 561.64 355.424C562.979 353.556 564.981 352.264 567.241 351.807C569.5 351.351 571.85 351.765 573.815 352.966C580.397 348.692 584.029 339.95 582.307 330.817C580.095 319.149 569.983 311.238 559.718 313.154ZM565.708 344.762C560.623 345.709 555.577 341.812 554.484 335.987C553.391 330.162 556.638 324.717 561.749 323.77C566.859 322.822 571.883 326.716 572.976 332.538C574.069 338.359 570.818 343.833 565.711 344.787L565.708 344.762Z" fill="white"/>
<path d="M588.278 329.71L582.311 330.82L572.954 332.566L554.466 336.012L545.117 337.751L539.813 338.738C539.143 338.877 538.544 339.248 538.124 339.786C537.703 340.323 537.491 340.993 537.525 341.674L541.818 411.274C541.821 411.692 541.917 412.105 542.098 412.482C542.277 412.861 542.536 413.197 542.857 413.467C543.179 413.736 543.556 413.933 543.961 414.044C544.366 414.155 544.789 414.179 545.204 414.113L610.809 401.903C611.219 401.812 611.604 401.636 611.939 401.386C612.276 401.137 612.554 400.817 612.753 400.449C612.958 400.085 613.082 399.68 613.116 399.263C613.148 398.848 613.087 398.431 612.938 398.041L591.508 331.641C591.297 330.99 590.857 330.438 590.268 330.085C589.68 329.733 588.983 329.605 588.308 329.724L588.278 329.71ZM578.402 359.651C578.727 361.318 578.609 363.041 578.06 364.649C577.511 366.257 576.55 367.695 575.271 368.82L578.5 385.882C578.593 386.368 578.589 386.868 578.487 387.353C578.386 387.838 578.189 388.298 577.908 388.707C577.627 389.116 577.268 389.466 576.851 389.736C576.434 390.006 575.968 390.192 575.478 390.282L573.866 390.586C572.876 390.77 571.854 390.557 571.022 389.992C570.19 389.428 569.616 388.558 569.427 387.574L566.202 370.523C564.773 369.978 563.489 369.115 562.447 368C561.405 366.885 560.633 365.548 560.19 364.091C559.746 362.632 559.644 361.091 559.892 359.586C560.14 358.082 560.732 356.654 561.621 355.413C562.962 353.547 564.963 352.257 567.221 351.8C569.48 351.344 571.828 351.757 573.793 352.955C574.99 353.677 576.02 354.644 576.814 355.791C577.608 356.938 578.15 358.24 578.402 359.611V359.651Z" fill="#E1EDF6"/>
<path d="M242.445 297.841C242.446 298.527 242.239 299.196 241.85 299.761C241.46 300.326 240.908 300.76 240.265 301.005C239.962 301.126 239.64 301.196 239.314 301.215C239.227 301.222 239.139 301.222 239.052 301.215H238.903C238.561 301.197 238.223 301.129 237.901 301.012C237.419 300.834 236.984 300.549 236.629 300.179C236.273 299.81 236.006 299.365 235.847 298.878C235.689 298.391 235.643 297.875 235.713 297.368C235.783 296.861 235.967 296.377 236.252 295.951C236.385 295.751 236.542 295.569 236.72 295.408C237.35 294.793 238.199 294.45 239.081 294.454C239.977 294.465 240.833 294.826 241.464 295.459C242.095 296.092 242.451 296.946 242.456 297.838L242.445 297.841Z" fill="#142232"/>
<path d="M257.232 298.293C257.232 300.166 255.968 301.681 254.388 301.681H254.304C253.813 301.666 253.339 301.5 252.946 301.208C252.5 300.866 252.142 300.425 251.899 299.92C251.659 299.415 251.544 298.86 251.562 298.301C251.562 296.42 252.826 294.909 254.402 294.909C254.766 294.91 255.124 294.995 255.448 295.159C255.888 295.369 256.264 295.693 256.538 296.095C256.992 296.739 257.234 297.507 257.232 298.293Z" fill="#142232"/>
<path d="M244.156 336.015L242.841 336.561C240.852 331.362 239.713 325.878 239.466 320.32C239.401 318.971 239.466 317.218 239.579 315.186C239.786 310.764 240.051 305.257 238.853 301.19C238.268 299.183 237.338 297.531 235.881 296.536C235.968 296.318 236.077 296.11 236.208 295.915C236.342 295.715 236.5 295.532 236.677 295.369C238.493 296.598 239.583 298.597 240.229 300.969C241.431 305.265 241.166 310.786 240.956 315.255C240.865 317.247 240.778 318.971 240.839 320.255C241.106 325.649 242.225 330.968 244.156 336.015Z" fill="#DCEFF4"/>
<path d="M242.648 336.547L243.923 335.784C243.991 335.742 244.069 335.717 244.149 335.712C244.229 335.704 244.31 335.715 244.385 335.744C244.461 335.771 244.529 335.816 244.585 335.875C244.64 335.933 244.681 336.003 244.704 336.081L246.422 340.126C246.5 340.281 246.519 340.458 246.473 340.625C246.426 340.791 246.32 340.935 246.175 341.03L244.435 342.115C244.356 342.159 244.268 342.183 244.178 342.187C244.088 342.191 244 342.172 243.92 342.133C243.838 342.096 243.767 342.038 243.713 341.967C243.657 341.897 243.622 341.813 243.611 341.725L242.365 337.386C242.314 337.236 242.314 337.073 242.365 336.923C242.415 336.77 242.515 336.637 242.648 336.547Z" fill="#202E51"/>
<g style="mix-blend-mode:multiply" opacity="0.2">
<g style="mix-blend-mode:multiply" opacity="0.4">
<g style="mix-blend-mode:multiply" opacity="0.4">
<path d="M236.361 320.797C235.608 326.132 235.698 331.551 236.63 336.858L235.21 337.147C234.232 331.682 234.136 326.097 234.926 320.602C235.112 319.261 235.515 317.558 235.998 315.573C237.022 311.274 238.308 305.905 237.912 301.689C237.9 301.464 237.874 301.241 237.832 301.02C237.633 299.378 236.945 297.833 235.856 296.584C235.943 296.366 236.053 296.157 236.183 295.962C236.316 295.762 236.474 295.58 236.652 295.419C238.148 297.007 239.082 299.039 239.311 301.204C239.302 301.378 239.32 301.552 239.361 301.721C239.725 306.165 238.442 311.545 237.407 315.895C236.95 317.847 236.546 319.521 236.361 320.797Z" fill="#5E5E5E"/>
</g>
</g>
<g style="mix-blend-mode:multiply" opacity="0.4">
<g style="mix-blend-mode:multiply" opacity="0.4">
<path d="M235.061 337.097L236.481 336.584C236.556 336.555 236.637 336.544 236.717 336.551C236.797 336.56 236.874 336.588 236.942 336.631C237.012 336.671 237.07 336.729 237.113 336.797C237.156 336.865 237.183 336.941 237.193 337.021L238.13 341.313C238.17 341.479 238.15 341.655 238.072 341.808C237.996 341.967 237.868 342.095 237.709 342.17L235.798 342.918C235.713 342.936 235.625 342.936 235.54 342.918C235.456 342.903 235.376 342.868 235.308 342.817C235.238 342.766 235.182 342.699 235.144 342.622C235.105 342.546 235.085 342.461 235.086 342.376L234.672 337.856C234.647 337.706 234.669 337.552 234.737 337.415C234.808 337.277 234.921 337.166 235.061 337.097Z" fill="#5E5E5E"/>
</g>
</g>
</g>
<path d="M257.693 336.099L256.273 335.922C256.273 335.824 257.461 326.036 254.66 318.205C252.335 311.697 251.754 306.198 252.946 301.255C253.458 299.123 254.297 297.083 255.434 295.206C255.875 295.415 256.252 295.738 256.523 296.142C255.499 297.881 254.747 299.765 254.293 301.729C253.204 306.382 253.788 311.614 255.986 317.76C258.932 325.863 257.744 335.668 257.693 336.099Z" fill="#DCEFF4"/>
<path d="M256.357 335.487L257.878 335.849C258.01 335.893 258.124 335.98 258.201 336.095C258.279 336.21 258.316 336.347 258.307 336.485L258.129 341.337C258.132 341.421 258.119 341.505 258.089 341.583C258.056 341.66 258.006 341.73 257.944 341.786C257.881 341.843 257.805 341.884 257.722 341.905C257.64 341.923 257.554 341.923 257.472 341.905L254.965 341.2C254.814 341.141 254.691 341.027 254.62 340.882C254.549 340.737 254.535 340.57 254.58 340.415L255.746 335.91C255.756 335.839 255.78 335.77 255.816 335.708C255.853 335.646 255.902 335.592 255.961 335.549C256.018 335.509 256.082 335.481 256.15 335.466C256.219 335.46 256.289 335.467 256.357 335.487Z" fill="#202E51"/>
<path d="M259.898 369.066L260.159 369.283C259.164 368.56 257.98 367.747 256.69 366.792C257.722 367.555 258.79 368.278 259.898 369.066Z" fill="#383838"/>
<path d="M249.884 277.008C249.884 277.008 249.651 277.258 248.369 277.46L248.405 276.6C248.435 277.109 249.884 277.008 249.884 277.008Z" fill="#142232"/>
<path d="M189.73 631.292H163.138C159.415 631.292 133.209 604.413 126.816 597.819C126.429 597.431 126.208 596.91 126.199 596.364C126.189 595.818 126.392 595.29 126.765 594.89L128.944 592.475C134.531 598.654 158.79 624.581 172.063 624.957C182.131 625.225 187.518 625.134 189.984 625.04C190.103 627.127 190.018 629.221 189.73 631.292Z" fill="white"/>
<path d="M189.73 631.292H163.138C162.336 631.292 160.501 630.048 158.053 628.038C160.647 620.532 169.967 604.898 179.974 609.96L180.337 610.148C185.153 612.733 189.508 616.75 190.006 625.044C190.116 627.131 190.024 629.223 189.73 631.292Z" fill="white"/>
<path d="M171.467 599.978C171.3 599.977 171.139 599.92 171.009 599.815C169.146 598.329 162.216 597.147 157.243 599.381C157.155 599.42 157.061 599.442 156.964 599.445C156.868 599.448 156.772 599.432 156.682 599.398C156.592 599.364 156.51 599.313 156.44 599.248C156.369 599.182 156.313 599.103 156.273 599.016C156.234 598.928 156.212 598.834 156.209 598.738C156.206 598.643 156.222 598.547 156.256 598.457C156.29 598.368 156.341 598.286 156.407 598.216C156.473 598.146 156.552 598.09 156.64 598.05C161.936 595.671 169.564 596.789 171.928 598.676C172.052 598.768 172.143 598.897 172.188 599.045C172.233 599.192 172.23 599.35 172.178 599.495C172.127 599.641 172.03 599.766 171.902 599.853C171.774 599.939 171.622 599.983 171.467 599.978Z" fill="#0C1933"/>
<path d="M159.205 605.4C159.032 605.41 158.862 605.358 158.724 605.254C158.586 605.15 158.491 605 158.454 604.832C158.417 604.664 158.442 604.488 158.523 604.337C158.605 604.185 158.739 604.067 158.9 604.005C163.258 602.038 169.346 600.917 173.323 603.669C173.402 603.723 173.47 603.793 173.521 603.874C173.573 603.955 173.609 604.045 173.625 604.139C173.642 604.233 173.64 604.33 173.62 604.424C173.599 604.517 173.56 604.606 173.505 604.685C173.45 604.763 173.38 604.83 173.299 604.882C173.217 604.933 173.127 604.968 173.032 604.985C172.937 605.002 172.84 605 172.746 604.98C172.652 604.959 172.563 604.92 172.484 604.865C169.012 602.465 163.502 603.535 159.506 605.335C159.411 605.377 159.309 605.4 159.205 605.4Z" fill="#0C1933"/>
<path d="M271.528 616.084C271.458 616.084 271.388 616.073 271.321 616.052C271.229 616.025 271.143 615.981 271.068 615.921C270.993 615.861 270.93 615.787 270.884 615.703C270.838 615.619 270.81 615.526 270.8 615.431C270.79 615.336 270.799 615.24 270.827 615.148C272.414 609.761 275.044 606.543 277.856 606.543C278.048 606.543 278.233 606.619 278.369 606.754C278.505 606.89 278.582 607.074 278.582 607.266C278.582 607.458 278.505 607.642 278.369 607.777C278.233 607.913 278.048 607.989 277.856 607.989C276.29 607.989 273.86 609.97 272.233 615.546C272.192 615.7 272.1 615.837 271.973 615.935C271.845 616.032 271.689 616.085 271.528 616.084Z" fill="#0C1933"/>
<path d="M264.521 613.09H264.445C264.349 613.081 264.255 613.053 264.17 613.008C264.085 612.963 264.01 612.901 263.949 612.826C263.888 612.751 263.843 612.665 263.816 612.573C263.789 612.48 263.78 612.383 263.791 612.288C264.318 607.204 268.375 603.205 271.517 603.158C271.71 603.158 271.895 603.234 272.031 603.37C272.167 603.506 272.244 603.69 272.244 603.881C272.244 604.073 272.167 604.257 272.031 604.393C271.895 604.528 271.71 604.604 271.517 604.604C269.044 604.641 265.658 608.256 265.226 612.422C265.213 612.6 265.133 612.767 265.003 612.891C264.873 613.014 264.701 613.086 264.521 613.09Z" fill="#0C1933"/>
<path d="M224.429 248.117C224.324 248.116 224.22 248.094 224.124 248.052C222.733 247.419 221.944 245.966 222.071 244.255C222.195 242.61 223.128 241.215 224.349 240.867C224.441 240.841 224.538 240.833 224.634 240.844C224.73 240.855 224.822 240.885 224.906 240.931C224.99 240.978 225.065 241.04 225.124 241.115C225.184 241.19 225.229 241.276 225.255 241.368C225.282 241.46 225.29 241.557 225.279 241.652C225.268 241.747 225.238 241.839 225.191 241.923C225.145 242.007 225.082 242.081 225.006 242.14C224.931 242.2 224.845 242.244 224.752 242.27C224.135 242.448 223.612 243.355 223.535 244.364C223.506 244.776 223.503 246.172 224.734 246.725C224.892 246.789 225.023 246.907 225.102 247.058C225.182 247.208 225.206 247.382 225.169 247.549C225.133 247.715 225.039 247.863 224.903 247.967C224.768 248.071 224.6 248.124 224.429 248.117Z" fill="#142232"/>
<path d="M248.576 254.592C247.606 254.592 246.349 253.902 244.66 252.462C244.512 252.336 244.421 252.157 244.406 251.964C244.391 251.77 244.454 251.579 244.58 251.432C244.707 251.285 244.887 251.194 245.081 251.179C245.276 251.164 245.468 251.226 245.616 251.352C248.089 253.46 248.71 253.11 248.732 253.092C249.095 252.864 249.658 251.461 247.316 243.329C247.289 243.237 247.281 243.14 247.292 243.045C247.303 242.95 247.333 242.857 247.38 242.773C247.427 242.689 247.49 242.616 247.565 242.556C247.641 242.496 247.728 242.452 247.82 242.426C247.913 242.399 248.01 242.391 248.106 242.402C248.202 242.413 248.295 242.443 248.379 242.49C248.463 242.536 248.538 242.599 248.598 242.674C248.658 242.749 248.702 242.836 248.728 242.928C250.839 250.268 251.053 253.359 249.528 254.335C249.242 254.511 248.911 254.601 248.576 254.592Z" fill="#142232"/>
<path d="M248.246 260.171C244.061 260.171 240.578 258.222 238.315 254.566C238.264 254.485 238.23 254.394 238.215 254.299C238.2 254.205 238.203 254.108 238.226 254.014C238.248 253.921 238.288 253.833 238.345 253.755C238.401 253.678 238.473 253.612 238.555 253.561C238.637 253.511 238.728 253.477 238.823 253.462C238.918 253.447 239.015 253.45 239.109 253.472C239.203 253.495 239.291 253.535 239.37 253.591C239.448 253.647 239.514 253.718 239.564 253.8C242.597 258.699 247.276 258.92 249.796 258.612C249.892 258.601 249.989 258.608 250.081 258.634C250.174 258.66 250.26 258.704 250.336 258.763C250.411 258.822 250.474 258.895 250.521 258.979C250.569 259.062 250.599 259.154 250.61 259.249C250.622 259.344 250.614 259.44 250.588 259.532C250.562 259.624 250.518 259.71 250.459 259.785C250.4 259.861 250.326 259.923 250.242 259.97C250.158 260.017 250.066 260.047 249.971 260.059C249.399 260.131 248.822 260.169 248.246 260.171Z" fill="#142232"/>
<path d="M425.002 295.68C425.209 295.679 425.412 295.617 425.584 295.502C425.756 295.387 425.89 295.223 425.969 295.032C426.048 294.841 426.068 294.631 426.027 294.429C425.986 294.226 425.886 294.04 425.739 293.895C425.592 293.749 425.405 293.65 425.202 293.61C424.998 293.57 424.787 293.591 424.596 293.67C424.404 293.749 424.24 293.883 424.125 294.055C424.01 294.226 423.948 294.428 423.948 294.635C423.948 294.772 423.976 294.908 424.029 295.035C424.082 295.162 424.159 295.278 424.257 295.375C424.355 295.472 424.471 295.549 424.599 295.601C424.727 295.654 424.864 295.68 425.002 295.68Z" fill="#192744"/>
<path d="M422.891 303.027C423.1 303.027 423.303 302.965 423.476 302.85C423.65 302.735 423.785 302.571 423.864 302.379C423.944 302.188 423.965 301.977 423.924 301.774C423.884 301.57 423.783 301.383 423.636 301.237C423.489 301.09 423.301 300.99 423.097 300.95C422.892 300.909 422.681 300.93 422.488 301.01C422.296 301.089 422.131 301.223 422.015 301.396C421.9 301.568 421.838 301.771 421.838 301.978C421.837 302.116 421.864 302.253 421.917 302.38C421.97 302.507 422.047 302.623 422.145 302.721C422.243 302.818 422.36 302.895 422.488 302.948C422.616 303 422.753 303.027 422.891 303.027Z" fill="#192744"/>
<path d="M482.126 371.431C481.588 375.191 480.613 378.875 479.22 382.411L479.071 382.773C469.835 383.478 454.263 376.326 446.625 371.803C444.314 370.44 442.738 369.319 442.266 368.726C443.352 365.2 444.176 361.598 444.732 357.952C454.387 364.124 469.13 369.862 482.126 371.431Z" fill="#40507E"/>
<path d="M474.636 378.521C475.067 378.521 475.489 378.393 475.847 378.155C476.206 377.917 476.485 377.578 476.65 377.181C476.815 376.785 476.858 376.349 476.774 375.928C476.69 375.507 476.482 375.12 476.177 374.817C475.873 374.514 475.484 374.307 475.062 374.223C474.639 374.14 474.201 374.183 473.802 374.347C473.404 374.511 473.064 374.789 472.824 375.146C472.585 375.503 472.457 375.922 472.457 376.351C472.457 376.926 472.687 377.478 473.095 377.885C473.504 378.292 474.058 378.521 474.636 378.521Z" fill="#192744"/>
<path d="M420.65 254.223C420.335 254.225 420.026 254.144 419.753 253.988C417.846 252.904 418.467 248.616 419.717 241.695L419.88 240.795C419.897 240.7 419.933 240.609 419.985 240.528C420.038 240.447 420.106 240.377 420.185 240.322C420.265 240.267 420.355 240.228 420.449 240.207C420.544 240.187 420.642 240.185 420.737 240.202C420.833 240.219 420.924 240.255 421.005 240.307C421.087 240.359 421.157 240.427 421.213 240.506C421.268 240.585 421.307 240.674 421.328 240.769C421.348 240.863 421.35 240.96 421.333 241.055L421.169 241.952C420.487 245.73 419.353 252.054 420.494 252.716C420.552 252.748 421.079 252.983 422.822 251.519C422.896 251.457 422.981 251.41 423.072 251.381C423.164 251.351 423.261 251.34 423.356 251.348C423.452 251.356 423.546 251.383 423.632 251.427C423.717 251.471 423.793 251.531 423.855 251.604C423.918 251.677 423.965 251.762 423.994 251.853C424.024 251.944 424.035 252.04 424.027 252.136C424.019 252.231 423.992 252.324 423.948 252.41C423.904 252.495 423.844 252.571 423.77 252.632C422.902 253.366 421.732 254.223 420.65 254.223Z" fill="#142232"/>
<path d="M423.785 259.788C423.603 259.788 423.422 259.788 423.244 259.766C423.147 259.759 423.053 259.734 422.966 259.691C422.88 259.648 422.803 259.588 422.74 259.515C422.677 259.442 422.63 259.357 422.6 259.265C422.57 259.174 422.56 259.077 422.568 258.981C422.574 258.885 422.6 258.791 422.643 258.705C422.687 258.619 422.747 258.543 422.82 258.48C422.893 258.417 422.979 258.37 423.071 258.341C423.163 258.311 423.26 258.3 423.356 258.309C427.653 258.67 432.713 253.909 433.701 251.822C433.742 251.736 433.8 251.658 433.871 251.593C433.942 251.529 434.025 251.479 434.116 251.447C434.206 251.414 434.302 251.4 434.399 251.405C434.495 251.409 434.589 251.433 434.676 251.473C434.763 251.514 434.841 251.572 434.906 251.643C434.971 251.714 435.021 251.796 435.053 251.887C435.086 251.977 435.1 252.072 435.096 252.168C435.091 252.264 435.068 252.358 435.027 252.444C433.773 255.073 428.536 259.788 423.785 259.788Z" fill="#142232"/>
<path d="M444.852 249.436C444.671 249.449 444.492 249.394 444.35 249.283C444.207 249.171 444.112 249.011 444.082 248.833C444.053 248.655 444.091 248.472 444.19 248.321C444.288 248.17 444.44 248.06 444.616 248.015C445.166 247.849 445.641 247.499 445.961 247.024C446.281 246.549 446.426 245.978 446.37 245.408C446.308 244.591 445.829 243.633 444.917 243.474C444.724 243.44 444.553 243.331 444.441 243.171C444.329 243.011 444.285 242.814 444.32 242.622C444.354 242.43 444.463 242.26 444.624 242.148C444.784 242.037 444.982 241.993 445.175 242.027C446.628 242.284 447.699 243.597 447.83 245.281C447.912 246.174 447.684 247.068 447.185 247.814C446.685 248.56 445.944 249.113 445.084 249.382C445.01 249.412 444.932 249.43 444.852 249.436Z" fill="#142232"/>
<path d="M33.0638 640.241C31.7016 640.241 30.3953 639.702 29.4321 638.743C28.4689 637.785 27.9278 636.484 27.9278 635.128C27.9278 633.772 28.4689 632.472 29.4321 631.513C30.3953 630.554 31.7016 630.016 33.0638 630.016L613.97 628.602C615.332 628.602 616.638 629.141 617.601 630.1C618.564 631.058 619.105 632.359 619.105 633.715C619.105 635.07 618.564 636.371 617.601 637.33C616.638 638.288 615.332 638.827 613.97 638.827L33.0529 640.241H33.0638Z" fill="#6A7592"/>
<path d="M312.398 329.109H296.1C296.004 329.109 295.912 329.071 295.843 329.003C295.775 328.936 295.737 328.844 295.737 328.748C295.737 328.652 295.775 328.56 295.843 328.492C295.912 328.424 296.004 328.386 296.1 328.386H312.398C312.495 328.386 312.587 328.424 312.655 328.492C312.723 328.56 312.761 328.652 312.761 328.748C312.761 328.844 312.723 328.936 312.655 329.003C312.587 329.071 312.495 329.109 312.398 329.109Z" fill="#142232"/>
<path d="M310.459 326.459H300.343C300.247 326.459 300.154 326.421 300.086 326.354C300.018 326.286 299.98 326.194 299.98 326.098C299.98 326.002 300.018 325.91 300.086 325.842C300.154 325.774 300.247 325.736 300.343 325.736H310.459C310.555 325.736 310.647 325.774 310.716 325.842C310.784 325.91 310.822 326.002 310.822 326.098C310.822 326.194 310.784 326.286 310.716 326.354C310.647 326.421 310.555 326.459 310.459 326.459Z" fill="#142232"/>
<path d="M404.629 361.917C404.532 361.917 404.44 361.879 404.372 361.811C404.304 361.744 404.265 361.652 404.265 361.556V348.688C404.265 348.592 404.304 348.5 404.372 348.432C404.44 348.364 404.532 348.326 404.629 348.326C404.725 348.326 404.817 348.364 404.885 348.432C404.954 348.5 404.992 348.592 404.992 348.688V361.556C404.992 361.652 404.954 361.744 404.885 361.811C404.817 361.879 404.725 361.917 404.629 361.917Z" fill="#142232"/>
<path d="M406.822 359.021C406.726 359.021 406.633 358.983 406.565 358.915C406.497 358.847 406.459 358.755 406.459 358.659V350.958C406.459 350.862 406.497 350.77 406.565 350.703C406.633 350.635 406.726 350.597 406.822 350.597C406.919 350.597 407.011 350.635 407.079 350.703C407.147 350.77 407.185 350.862 407.185 350.958V358.656C407.186 358.704 407.177 358.751 407.159 358.795C407.141 358.84 407.114 358.88 407.08 358.914C407.047 358.948 407.006 358.975 406.962 358.993C406.918 359.012 406.87 359.021 406.822 359.021Z" fill="#142232"/>
<path d="M388.745 422.378C387.034 422.291 379.755 421.441 375.828 419.749C375.739 419.711 375.669 419.639 375.633 419.549C375.597 419.459 375.599 419.359 375.637 419.27C375.676 419.181 375.748 419.112 375.839 419.076C375.929 419.04 376.03 419.042 376.119 419.08C379.954 420.733 387.103 421.561 388.784 421.651C388.881 421.654 388.972 421.695 389.038 421.765C389.104 421.834 389.14 421.927 389.137 422.023C389.134 422.119 389.093 422.21 389.023 422.276C388.953 422.342 388.859 422.377 388.763 422.374L388.745 422.378Z" fill="#142232"/>
<path d="M385.57 424.703C383.318 424.601 381.083 424.274 378.897 423.727C378.85 423.716 378.806 423.695 378.767 423.667C378.728 423.639 378.695 423.603 378.67 423.562C378.645 423.521 378.629 423.476 378.621 423.428C378.614 423.38 378.617 423.332 378.629 423.285C378.64 423.238 378.66 423.194 378.689 423.155C378.717 423.116 378.753 423.083 378.795 423.058C378.837 423.033 378.883 423.016 378.931 423.009C378.979 423.003 379.028 423.005 379.075 423.018C381.217 423.554 383.407 423.875 385.613 423.976C385.663 423.976 385.711 423.986 385.757 424.005C385.802 424.025 385.843 424.053 385.877 424.088C385.911 424.124 385.937 424.166 385.954 424.212C385.972 424.258 385.979 424.307 385.977 424.356C385.975 424.406 385.963 424.455 385.941 424.5C385.919 424.546 385.888 424.586 385.85 424.619C385.812 424.651 385.767 424.675 385.719 424.69C385.671 424.705 385.62 424.709 385.57 424.703Z" fill="#142232"/>
<path d="M303.601 428.445C303.523 428.45 303.445 428.429 303.38 428.386C303.314 428.343 303.264 428.28 303.238 428.206C303.221 428.161 303.212 428.113 303.214 428.065C303.216 428.017 303.227 427.969 303.247 427.926C303.268 427.882 303.297 427.842 303.332 427.81C303.368 427.777 303.41 427.752 303.456 427.736C303.536 427.707 311.447 424.844 315.962 422.989C316.052 422.952 316.153 422.952 316.243 422.99C316.333 423.027 316.404 423.098 316.441 423.188C316.478 423.278 316.478 423.378 316.441 423.468C316.403 423.557 316.331 423.628 316.241 423.665C311.705 425.524 303.786 428.394 303.706 428.423C303.673 428.436 303.637 428.443 303.601 428.445Z" fill="#142232"/>
<path d="M309.663 429.349C309.588 429.349 309.515 429.327 309.453 429.284C309.391 429.241 309.344 429.18 309.318 429.11C309.301 429.065 309.293 429.017 309.295 428.969C309.296 428.92 309.308 428.873 309.328 428.829C309.348 428.786 309.377 428.746 309.413 428.714C309.449 428.681 309.491 428.656 309.536 428.64C309.591 428.64 315.036 426.651 318.141 425.386C318.186 425.368 318.234 425.358 318.282 425.358C318.33 425.358 318.378 425.368 318.422 425.387C318.467 425.405 318.507 425.432 318.541 425.466C318.575 425.5 318.602 425.54 318.621 425.585C318.639 425.629 318.648 425.677 318.648 425.725C318.648 425.773 318.639 425.82 318.62 425.865C318.602 425.909 318.574 425.949 318.54 425.983C318.506 426.017 318.465 426.044 318.421 426.062C315.301 427.342 309.841 429.316 309.787 429.338C309.747 429.348 309.705 429.352 309.663 429.349Z" fill="#142232"/>
</svg>
