<svg width="24" height="24" viewBox="0 0 24 24" fill="none" xmlns="http://www.w3.org/2000/svg">
<path d="M17.8333 2H6.16667C5.062 2.00132 4.00296 2.44073 3.22185 3.22185C2.44073 4.00296 2.00132 5.062 2 6.16667L2 17.8333C2.00132 18.938 2.44073 19.997 3.22185 20.7782C4.00296 21.5593 5.062 21.9987 6.16667 22H17.8333C18.938 21.9987 19.997 21.5593 20.7782 20.7782C21.5593 19.997 21.9987 18.938 22 17.8333V6.16667C21.9987 5.062 21.5593 4.00296 20.7782 3.22185C19.997 2.44073 18.938 2.00132 17.8333 2V2ZM6.16667 3.66667H17.8333C18.4964 3.66667 19.1323 3.93006 19.6011 4.3989C20.0699 4.86774 20.3333 5.50363 20.3333 6.16667V17.8333C20.3319 18.2046 20.2464 18.5707 20.0833 18.9042L12.4475 11.2683C12.0606 10.8813 11.6012 10.5743 11.0956 10.3648C10.59 10.1554 10.0481 10.0476 9.50083 10.0476C8.95357 10.0476 8.41166 10.1554 7.90606 10.3648C7.40047 10.5743 6.94109 10.8813 6.55417 11.2683L3.66667 14.155V6.16667C3.66667 5.50363 3.93006 4.86774 4.3989 4.3989C4.86774 3.93006 5.50363 3.66667 6.16667 3.66667ZM6.16667 20.3333C5.50363 20.3333 4.86774 20.0699 4.3989 19.6011C3.93006 19.1323 3.66667 18.4964 3.66667 17.8333V16.5117L7.73167 12.4467C7.96383 12.2144 8.2395 12.0301 8.54292 11.9043C8.84634 11.7786 9.17156 11.7139 9.5 11.7139C9.82844 11.7139 10.1537 11.7786 10.4571 11.9043C10.7605 12.0301 11.0362 12.2144 11.2683 12.4467L18.9042 20.0833C18.5707 20.2464 18.2046 20.3319 17.8333 20.3333H6.16667Z" fill="#142232"/>
<path d="M15.3337 10.7498C15.9105 10.7498 16.4744 10.5788 16.9541 10.2583C17.4337 9.9378 17.8076 9.48228 18.0283 8.94933C18.2491 8.41638 18.3068 7.82994 18.1943 7.26416C18.0817 6.69838 17.804 6.17868 17.3961 5.77078C16.9882 5.36287 16.4685 5.08509 15.9027 4.97255C15.3369 4.86001 14.7505 4.91777 14.2175 5.13852C13.6845 5.35928 13.229 5.73312 12.9085 6.21276C12.5881 6.6924 12.417 7.25631 12.417 7.83317C12.417 8.60672 12.7243 9.34859 13.2713 9.89557C13.8182 10.4425 14.5601 10.7498 15.3337 10.7498ZM15.3337 6.58317C15.5809 6.58317 15.8226 6.65648 16.0281 6.79384C16.2337 6.93119 16.3939 7.12641 16.4885 7.35482C16.5831 7.58323 16.6079 7.83456 16.5596 8.07703C16.5114 8.31951 16.3924 8.54224 16.2175 8.71706C16.0427 8.89187 15.82 9.01092 15.5775 9.05915C15.335 9.10739 15.0837 9.08263 14.8553 8.98802C14.6269 8.89341 14.4317 8.7332 14.2943 8.52763C14.157 8.32207 14.0837 8.0804 14.0837 7.83317C14.0837 7.50165 14.2154 7.18371 14.4498 6.94929C14.6842 6.71487 15.0021 6.58317 15.3337 6.58317Z" fill="#142232"/>
</svg>
