<svg width="24" height="24" viewBox="0 0 24 24" fill="none" xmlns="http://www.w3.org/2000/svg">
<path d="M20.1096 15.6652C19.8297 14.8402 19.2988 14.1234 18.5911 13.6154C17.8834 13.1073 17.0345 12.8335 16.1633 12.8322H12.8304V11.9289C14.0664 11.72 15.1788 11.0544 15.9472 10.0639C16.7156 9.07347 17.0839 7.83051 16.9791 6.58134C16.8742 5.33218 16.304 4.16798 15.3812 3.31945C14.4585 2.47092 13.2507 2 11.9972 2C10.7436 2 9.53579 2.47092 8.61307 3.31945C7.69035 4.16798 7.12007 5.33218 7.01524 6.58134C6.91041 7.83051 7.27868 9.07347 8.04707 10.0639C8.81546 11.0544 9.9279 11.72 11.1639 11.9289V12.8322H7.83097C6.95981 12.8335 6.1109 13.1073 5.40323 13.6154C4.69555 14.1234 4.16459 14.8402 3.88475 15.6652C3.16991 16.01 2.6016 16.5987 2.28206 17.3252C1.96252 18.0517 1.91273 18.8684 2.14164 19.6283C2.37055 20.3883 2.86314 21.0416 3.53079 21.4707C4.19843 21.8999 4.99731 22.0767 5.7837 21.9694C6.57009 21.862 7.29236 21.4776 7.82057 20.8852C8.34879 20.2928 8.64827 19.5314 8.66515 18.7379C8.68202 17.9444 8.41518 17.1709 7.91263 16.5566C7.41007 15.9423 6.7048 15.5275 5.92369 15.3869C6.15794 15.1091 6.44993 14.8857 6.77933 14.7323C7.10872 14.5789 7.4676 14.4992 7.83097 14.4986H11.1639V15.4377C10.3785 15.6405 9.69393 16.1228 9.23864 16.7942C8.78335 17.4656 8.58855 18.28 8.69077 19.0848C8.79299 19.8895 9.1852 20.6294 9.79388 21.1656C10.4026 21.7019 11.1859 21.9978 11.9972 21.9978C12.8084 21.9978 13.5917 21.7019 14.2004 21.1656C14.8091 20.6294 15.2013 19.8895 15.3035 19.0848C15.4058 18.28 15.211 17.4656 14.7557 16.7942C14.3004 16.1228 13.6159 15.6405 12.8304 15.4377V14.4986H16.1633C16.5265 14.4989 16.8853 14.5782 17.2147 14.7312C17.544 14.8841 17.8361 15.107 18.0706 15.3844C17.2895 15.525 16.5842 15.9398 16.0817 16.5541C15.5791 17.1684 15.3123 17.9419 15.3292 18.7354C15.346 19.5289 15.6455 20.2903 16.1737 20.8827C16.702 21.4751 17.4242 21.8595 18.2106 21.9669C18.997 22.0742 19.7959 21.8974 20.4635 21.4682C21.1312 21.0391 21.6238 20.3858 21.8527 19.6258C22.0816 18.8659 22.0318 18.0492 21.7122 17.3227C21.3927 16.5962 20.8244 16.0075 20.1096 15.6627V15.6652ZM8.66421 6.99949C8.66421 6.3403 8.85968 5.6959 9.22591 5.1478C9.59214 4.5997 10.1127 4.17251 10.7217 3.92025C11.3307 3.66798 12.0009 3.60198 12.6474 3.73058C13.2939 3.85919 13.8878 4.17662 14.3539 4.64274C14.82 5.10886 15.1375 5.70274 15.2661 6.34927C15.3947 6.99579 15.3287 7.66594 15.0764 8.27496C14.8241 8.88397 14.3969 9.40451 13.8488 9.77074C13.3007 10.137 12.6564 10.3324 11.9972 10.3324C11.1132 10.3324 10.2655 9.98129 9.6404 9.35624C9.01535 8.73119 8.66421 7.88345 8.66421 6.99949ZM6.99773 18.6648C6.99773 18.9944 6.89999 19.3166 6.71688 19.5907C6.53376 19.8647 6.2735 20.0783 5.96899 20.2044C5.66448 20.3306 5.32941 20.3636 5.00614 20.2993C4.68288 20.235 4.38594 20.0763 4.15288 19.8432C3.91982 19.6101 3.7611 19.3132 3.6968 18.9899C3.6325 18.6667 3.6655 18.3316 3.79163 18.0271C3.91776 17.7226 4.13136 17.4623 4.40541 17.2792C4.67946 17.0961 5.00166 16.9983 5.33126 16.9983C5.77323 16.9983 6.19711 17.1739 6.50963 17.4864C6.82216 17.799 6.99773 18.2228 6.99773 18.6648ZM13.6636 18.6648C13.6636 18.9944 13.5659 19.3166 13.3828 19.5907C13.1997 19.8647 12.9394 20.0783 12.6349 20.2044C12.3304 20.3306 11.9953 20.3636 11.672 20.2993C11.3488 20.235 11.0518 20.0763 10.8188 19.8432C10.5857 19.6101 10.427 19.3132 10.3627 18.9899C10.2984 18.6667 10.3314 18.3316 10.4575 18.0271C10.5837 17.7226 10.7973 17.4623 11.0713 17.2792C11.3454 17.0961 11.6676 16.9983 11.9972 16.9983C12.4391 16.9983 12.863 17.1739 13.1755 17.4864C13.4881 17.799 13.6636 18.2228 13.6636 18.6648ZM18.6631 20.3313C18.3335 20.3313 18.0113 20.2336 17.7372 20.0504C17.4632 19.8673 17.2496 19.6071 17.1234 19.3026C16.9973 18.998 16.9643 18.663 17.0286 18.3397C17.0929 18.0164 17.2516 17.7195 17.4847 17.4864C17.7177 17.2534 18.0147 17.0947 18.3379 17.0304C18.6612 16.9661 18.9963 16.9991 19.3008 17.1252C19.6053 17.2513 19.8656 17.4649 20.0487 17.739C20.2318 18.013 20.3295 18.3352 20.3295 18.6648C20.3295 19.1068 20.154 19.5307 19.8414 19.8432C19.5289 20.1557 19.105 20.3313 18.6631 20.3313Z" fill="#142232"/>
</svg>
