<svg width="987" height="723" viewBox="0 0 987 723" fill="none" xmlns="http://www.w3.org/2000/svg">
<path d="M263.5 288.5C268 337.5 123 423 120 520.5C128 624.5 335.5 715.5 518.5 717.5C701.5 719.5 941.744 687.644 959 608C978.5 518 831 456.5 831 372C831 339 850.565 315.479 868.5 284C890.011 246.244 911.321 206.352 922.5 160C929.6 127.739 919 95.9997 898.5 80.9999C873.994 63.0689 837.5 59.4999 784.5 69.9998C724.902 77.8757 650.926 91.3847 575 82.4999C434.315 66.037 201.5 116 204 173C206.5 230 259 239.5 263.5 288.5Z" fill="#E4EFF7"/>
<path d="M793.944 387.467H806.667V484.56H823.973V451.148H844.293V335.684H861.538V329.371H874.792V334.941H893.209V339.768H889.53V462.469H909.446V512.623H929.908V433.514C929.908 433.514 942.575 432.957 942.575 433.514V453.562H954.341V606.152H779.58V387.467H793.944Z" fill="#A3C4D8"/>
<path d="M108.374 503.752H147.488V605.915L108.374 610.5V503.752Z" fill="#A3C4D8"/>
<path d="M157.065 418.181V472.497H176.949V442.701H202.911V418.181H228.873V512.623H265.327V580.034L136.172 609.216V418.181H157.065Z" fill="#A3C4D8"/>
<path d="M952.223 624.152C947.681 634.842 941.526 644.759 933.975 653.55C933.162 654.52 932.312 655.474 931.453 656.418C923.57 665.073 913.773 673.289 901.659 680.736C900.217 681.634 898.744 682.516 897.229 683.367C895.715 684.218 894.257 685.059 892.722 685.884L891.981 686.281C889.796 687.441 887.55 688.571 885.233 689.69L883.775 690.381C882.143 691.145 880.481 691.929 878.777 692.656C878.511 692.759 878.266 692.878 877.989 692.996C872.874 695.199 867.466 697.313 861.721 699.299C839.975 706.824 813.675 712.642 781.886 716.051C761.056 718.284 737.892 719.507 712.094 719.507H335.581C331.867 719.507 328.131 719.457 324.372 719.357C308.014 718.988 291.686 717.752 275.456 715.654C275.393 715.66 275.33 715.66 275.267 715.654C260.634 713.795 246.109 711.156 231.753 707.747C226.174 706.42 220.688 704.969 215.296 703.394C210.47 701.984 205.739 700.477 201.1 698.871C197.373 697.592 193.715 696.244 190.127 694.827C170.023 686.921 152.184 677.002 138.147 664.913C138.112 664.89 138.082 664.86 138.06 664.825C136.704 663.68 135.39 662.489 134.111 661.287C132.535 659.802 131.006 658.285 129.548 656.728C129.754 656.516 129.973 656.316 130.202 656.129C120.027 643.606 112.405 628.556 108.394 610.468C273.252 524.965 595.518 484.348 827.707 555.281L829.544 555.854C846.173 560.984 862.3 566.7 877.923 573.003C890.258 577.985 902.22 583.349 913.809 589.095C926.868 595.563 939.41 602.539 951.435 610.025C952.335 610.582 953.21 611.139 954.1 611.701C954.622 615.946 953.972 620.255 952.223 624.152Z" fill="#E1EDF6"/>
<path d="M197.212 682.877C196.954 685.24 196.144 687.508 194.849 689.494C194.517 690.066 194.153 690.619 193.759 691.15L193.498 691.516C190.562 695.286 188.178 694.095 187.457 694.786C183.599 693.172 180.837 694.554 177.143 692.697C154.849 681.5 135.528 666.146 122.825 646.397C123.914 644.823 125.185 643.386 126.611 642.116C126.831 641.918 127.064 641.734 127.307 641.564C132.555 637.815 134.095 645.035 134.182 648.197C151.432 632.404 168.564 639.279 162.18 662.468C169.219 652.122 175.558 663.03 173.946 667.167C183.006 661.493 185.16 667.925 184.244 673.96C183.969 675.971 183.304 677.908 182.285 679.659C182.259 679.724 182.227 679.786 182.187 679.844C182.224 679.819 182.263 679.798 182.305 679.782C184.557 678.46 187.007 677.514 189.559 676.982C190.032 676.893 190.511 676.836 190.992 676.812C195.345 676.549 197.478 679.096 197.212 682.877Z" fill="#1D4CA6"/>
<path d="M194.905 688.519C183.19 666.738 177.732 639.975 194.946 615.151" stroke="#7380C0" stroke-width="2" stroke-linecap="round" stroke-linejoin="round"/>
<path d="M316.106 719.342L261.005 715.185C232.869 713.065 202.998 705.684 177.139 692.697C179.221 690.804 180.003 687.746 190.358 693.399C174.734 675.682 182.418 662.587 201.612 688.324C179.737 651.493 196.077 639.718 204.518 638.944C218.673 637.644 219.501 682.738 218.581 691.599C221.804 674.511 232.306 676.879 234.92 690.861C231.129 662.87 243.678 641.244 254.871 643.266C266.064 645.288 250.502 677.596 250.896 682.877C261.169 672.49 275.671 678.834 266.479 695.735C279.815 680.984 283.053 690.026 281.514 701.991C294.047 684.027 305.148 692.352 302.109 705.251C315.921 697.891 313.512 707.686 312.156 710.213C323.6 703.895 322.372 714.406 316.106 719.342Z" fill="#BED7EA"/>
<path d="M214.488 603.352C216.932 603.352 218.913 601.354 218.913 598.89C218.913 596.426 216.932 594.429 214.488 594.429C212.044 594.429 210.063 596.426 210.063 598.89C210.063 601.354 212.044 603.352 214.488 603.352Z" fill="#3E74DB"/>
<path d="M213.02 591.386C210.15 591.958 204.574 577.883 210.155 576.769C215.736 575.655 215.89 590.813 213.02 591.386Z" fill="#3E74DB"/>
<path d="M208.19 594.631C206.559 597.08 192.746 591.103 195.913 586.337C199.079 581.571 209.817 592.186 208.19 594.631Z" fill="#3E74DB"/>
<path d="M207.05 600.37C207.612 603.263 193.652 608.885 192.552 603.258C191.452 597.631 206.482 597.482 207.05 600.37Z" fill="#3E74DB"/>
<path d="M210.268 605.244C212.698 606.885 206.769 620.815 202.042 617.623C197.315 614.43 207.838 603.625 210.268 605.244Z" fill="#3E74DB"/>
<path d="M215.961 606.394C218.831 605.821 224.407 619.897 218.826 621.011C213.245 622.125 213.091 606.966 215.961 606.394Z" fill="#3E74DB"/>
<path d="M220.79 603.145C222.422 600.7 236.235 606.678 233.068 611.443C229.901 616.209 219.164 605.595 220.79 603.145Z" fill="#3E74DB"/>
<path d="M221.946 597.435C221.384 594.542 235.344 588.92 236.444 594.547C237.544 600.174 222.499 600.298 221.946 597.435Z" fill="#3E74DB"/>
<path d="M218.714 592.535C216.284 590.895 222.213 576.964 226.94 580.157C231.667 583.349 221.144 594.175 218.714 592.535Z" fill="#3E74DB"/>
<path d="M953.558 623.703C952.437 626.643 951.266 630.181 950.13 633.173L941.49 651.462C940.528 653.133 939.515 654.799 938.456 656.439C932.95 664.97 926.336 672.72 918.792 679.483L860.719 689.995L893.341 620.882L958.106 608.828C957.927 609.612 957.563 611.072 957.415 611.696C956.412 615.785 955.123 619.798 953.558 623.703Z" fill="#D68134"/>
<path d="M958.244 608.267L958.116 608.855L893.336 620.903L871.574 598.725L867.083 594.156L851.413 578.198L828.106 554.473L889.939 543.26L896.544 542.068L919.283 565.247L925.289 571.359L937.505 583.804C937.505 583.804 954.09 603.207 958.244 608.267Z" fill="#F5993F"/>
<path d="M859.169 693.848L893.336 620.903L828.107 554.457L793.939 627.402L859.169 693.848Z" fill="#F5993F"/>
<path d="M837.074 676.724L871.528 598.745L851.465 578.073L817.01 656.057L837.074 676.724Z" fill="#F7A969"/>
<path d="M937.536 583.784L871.528 598.746L851.465 578.074L919.493 565.195L937.536 583.784Z" fill="#FFB471"/>
<path d="M938.456 656.438C929.89 669.657 918.739 680.975 905.685 689.7C900.6 693.146 893.97 695.018 887.934 697.953C884.205 693.61 882.511 688.854 882.875 680.365C883.898 656.48 894.216 655.448 902.063 675.238C902.063 667.909 905.266 651.348 918.945 665.124C919.344 650.559 925.759 647.263 938.456 656.438Z" fill="#1D4CA6"/>
<path d="M905.686 689.701C879.084 707.696 840.036 719.523 782.91 719.523C782.91 719.523 769.051 672.031 769.051 671.149C769.051 670.267 790.276 639.202 790.276 639.202C800.456 609.881 840.092 592.015 824.382 641.848C841.54 618.401 840.287 648.584 835.928 663.237C851.628 642.426 855.117 663.825 851.628 671.737C862.095 660.906 862.371 675.553 862.095 677.013C871.4 666.182 873.728 676.719 873.145 682.006C881.284 664.707 892.334 680.536 892.042 687.282C898.196 674.414 903.43 679.576 905.686 689.701Z" fill="#BED7EA"/>
<path d="M950.279 235.522C953.427 232.1 956.295 228.426 958.853 224.536C959.052 224.154 959.221 223.762 959.41 223.36C959.825 222.504 960.218 221.658 960.592 220.781L970.281 198.567L978.522 179.633L986.037 162.376C986.36 161.618 986.376 160.763 986.084 159.993C985.792 159.222 985.214 158.597 984.472 158.25C983.715 157.894 982.937 157.517 982.195 157.135C978.788 155.464 975.453 153.633 972.184 151.679C948.749 137.665 928.783 116.849 921.539 96.7753C921.465 96.5499 921.346 96.3421 921.189 96.1647C921.033 95.9873 920.842 95.8441 920.628 95.7438C920.605 95.7407 920.581 95.7407 920.557 95.7438C920.332 95.6378 920.086 95.5828 919.838 95.5828C919.59 95.5828 919.344 95.6378 919.119 95.7438C895.674 105.574 859.987 102.665 830.68 90.2096C830.182 89.9938 829.62 89.9855 829.117 90.1865C828.614 90.3876 828.21 90.7817 827.994 91.2824L802.129 150.652C785.989 187.71 791.657 231.746 817.389 269.279L828.342 285.267C828.593 285.267 828.853 285.195 829.094 285.175C829.16 285.175 829.217 285.175 829.252 285.139C832.414 284.731 835.545 284.313 838.655 283.839C843.725 283.075 848.748 282.245 853.68 281.291L854.074 281.219C859.409 279.976 864.704 278.681 869.932 277.294C867.374 277.809 864.765 278.253 862.131 278.624L839.581 281.776L837.535 278.836L826.608 262.878C825.876 261.847 825.16 260.743 824.474 259.675C823.431 258.066 822.423 256.433 821.451 254.775C820.489 253.135 819.558 251.5 818.678 249.829C817.798 248.158 816.949 246.487 816.121 244.811C815.292 243.134 814.53 241.448 813.824 239.756C813.343 238.642 812.887 237.487 812.442 236.347C811.568 234.088 810.739 231.788 809.992 229.487C809.624 228.347 809.255 227.208 808.918 226.068C808.248 223.767 807.654 221.462 807.127 219.136C806.6 216.81 806.15 214.525 805.761 212.204C805.11 208.196 804.676 204.155 804.462 200.099C804.36 198.371 804.314 196.648 804.314 194.941C804.271 186.982 805.175 179.046 807.004 171.304C807.276 170.205 807.516 169.117 807.838 168.044C808.14 166.951 808.447 165.873 808.78 164.784C809.112 163.696 809.47 162.659 809.833 161.576C810.038 161.06 810.232 160.514 810.437 159.993C810.841 158.93 811.24 157.868 811.665 156.841C811.89 156.326 812.095 155.81 812.335 155.263L834.701 103.908C842.378 106.653 850.254 108.795 858.258 110.314C860.008 110.665 861.752 110.964 863.502 111.232C874.486 113.001 885.644 113.418 896.728 112.475C898.938 112.279 901.122 112.021 903.261 111.691C904.141 111.557 905.02 111.423 905.89 111.237C907.425 110.979 908.908 110.67 910.356 110.335C911.804 110 913.277 109.623 914.704 109.221C914.704 109.221 914.735 109.221 914.751 109.221C925.427 130.243 947.291 151.354 972.742 165.022L950.345 216.371C940.421 239.184 921.779 257.323 897.91 268.288C897.26 268.603 896.6 268.892 895.94 269.186C906.258 265.359 915.937 260.98 924.741 255.776C925.314 255.466 925.852 255.157 926.399 254.811C928.235 253.692 930.026 252.547 931.781 251.356C938.536 246.82 944.744 241.506 950.279 235.522Z" fill="#81B8E2"/>
<path d="M897.93 268.17C897.281 268.48 896.621 268.763 895.961 269.068C895.916 269.077 895.873 269.092 895.833 269.114L895.736 269.155C888.154 272.448 880.273 274.989 872.204 276.742C871.457 276.897 870.7 277.067 869.942 277.212C867.385 277.727 864.76 278.181 862.126 278.548L839.581 281.699L837.535 278.744L826.597 262.811C825.866 261.754 825.155 260.671 824.459 259.588C820.358 253.271 816.81 246.606 813.854 239.669C813.373 238.55 812.908 237.41 812.463 236.27C811.573 234.006 810.749 231.716 810.012 229.416C809.644 228.276 809.281 227.126 808.943 225.975C808.273 223.685 807.68 221.375 807.148 219.064C806.616 216.753 806.171 214.422 805.787 212.127C805.125 208.118 804.69 204.075 804.482 200.017C804.39 198.289 804.334 196.556 804.339 194.859C804.292 186.898 805.194 178.96 807.025 171.216C807.291 170.113 807.536 169.03 807.859 167.946C808.155 166.853 808.468 165.775 808.8 164.702C809.133 163.624 809.491 162.562 809.854 161.494C810.053 160.978 810.243 160.421 810.452 159.895C810.841 158.864 811.25 157.786 811.68 156.749C811.9 156.233 812.12 155.718 812.35 155.202L834.726 103.852C842.395 106.596 850.263 108.741 858.258 110.268C860.008 110.612 861.756 110.915 863.502 111.176C874.485 112.943 885.64 113.358 896.723 112.414C898.953 112.213 901.117 111.955 903.261 111.625C904.141 111.491 905.026 111.351 905.895 111.181C907.43 110.908 908.898 110.603 910.366 110.278C911.835 109.954 913.293 109.562 914.72 109.159C914.72 109.159 914.72 109.159 914.751 109.159C925.432 130.182 947.307 151.297 972.737 164.965L950.361 216.315C940.441 239.066 921.805 257.184 897.93 268.17Z" fill="#2FB07E"/>
<path d="M897.93 268.17C897.281 268.48 896.621 268.763 895.961 269.068C895.916 269.077 895.873 269.092 895.833 269.114L895.736 269.155C888.154 272.448 880.273 274.989 872.204 276.742C871.457 276.897 870.7 277.067 869.942 277.212C867.385 277.727 864.76 278.181 862.126 278.548L839.581 281.699L837.535 278.744L826.597 262.811C825.866 261.754 825.155 260.671 824.459 259.588C820.358 253.271 816.81 246.606 813.854 239.669C813.373 238.55 812.908 237.41 812.463 236.27C811.573 234.006 810.749 231.716 810.012 229.416C809.644 228.276 809.281 227.126 808.943 225.975C808.273 223.685 807.68 221.375 807.148 219.064C806.616 216.753 806.171 214.422 805.787 212.127C805.125 208.118 804.69 204.075 804.482 200.017C804.39 198.289 804.334 196.556 804.339 194.859C804.292 186.898 805.194 178.96 807.025 171.216C807.291 170.113 807.536 169.03 807.859 167.946C808.155 166.853 808.468 165.775 808.8 164.702C809.133 163.624 809.491 162.562 809.854 161.494C810.053 160.978 810.243 160.421 810.452 159.895C810.841 158.864 811.25 157.786 811.68 156.749C811.9 156.233 812.12 155.718 812.35 155.202L834.726 103.852C842.395 106.596 850.263 108.741 858.258 110.268C860.008 110.612 861.756 110.915 863.502 111.176C874.485 112.943 885.64 113.358 896.723 112.414C898.953 112.213 901.117 111.955 903.261 111.625C904.141 111.491 905.026 111.351 905.895 111.181C907.43 110.908 908.898 110.603 910.366 110.278C911.835 109.954 913.293 109.562 914.72 109.159C914.72 109.159 914.72 109.159 914.751 109.159C925.432 130.182 947.307 151.297 972.737 164.965L950.361 216.315C940.441 239.066 921.805 257.184 897.93 268.17Z" fill="#AED0E5"/>
<path d="M958.853 224.536C932.911 284.21 834.255 294.164 834.255 294.164L826.863 283.034C826.863 283.034 918.403 277.598 948.074 221.142L958.853 224.536Z" fill="#81B8E2"/>
<path d="M846.098 175.512L862.857 213.343L930.701 191.867" stroke="white" stroke-width="17.13" stroke-linecap="round" stroke-linejoin="round"/>
<g style="mix-blend-mode:multiply" opacity="0.2">
<path d="M931.811 251.252C930.057 252.443 928.266 253.588 926.43 254.708C925.882 255.053 925.345 255.363 924.772 255.672C915.968 260.871 906.289 265.25 895.971 269.082C895.928 269.094 895.888 269.115 895.853 269.144C895.807 269.144 895.792 269.144 895.741 269.144C888.162 272.444 880.28 274.987 872.209 276.736C871.462 276.906 870.7 277.061 869.942 277.216C864.74 278.603 859.445 279.898 854.084 281.141L853.69 281.213C848.758 282.167 843.735 282.998 838.665 283.761L839.545 281.698L870.347 210.976L914.699 109.096L920.547 95.6864C920.57 95.6833 920.594 95.6833 920.618 95.6864C920.832 95.7867 921.023 95.93 921.179 96.1073C921.336 96.2847 921.455 96.4925 921.529 96.7179C928.757 116.792 948.724 137.608 972.174 151.621C975.443 153.576 978.778 155.407 982.185 157.078C982.937 157.46 983.72 157.836 984.462 158.192C985.203 158.54 985.782 159.165 986.074 159.935C986.366 160.706 986.349 161.56 986.027 162.318L978.512 179.576L970.271 198.51L960.582 220.724C960.208 221.606 959.814 222.452 959.4 223.303C959.211 223.705 959.042 224.097 958.842 224.478C956.285 228.369 953.417 232.043 950.269 235.464C944.743 241.43 938.55 246.728 931.811 251.252Z" fill="#DBDBDB"/>
</g>
<path d="M84.7693 183.303L84.361 184.044L84.7489 183.292L84.7693 183.303Z" fill="#FFC84E"/>
<path d="M111.362 313.131C107.561 306.545 129.185 292.531 129.185 292.531L130.607 313.131L116.037 316.365L111.362 313.131Z" fill="#142232"/>
<path d="M226.351 260.431C226.306 270.5 225.326 280.543 223.425 290.428C216.693 326.785 200.635 358.561 200.001 359.804C202.605 353.734 188.097 331.865 176.903 316.387C170.253 307.16 164.744 300.207 164.744 300.207C164.744 300.207 164.836 284.378 164.979 263.815C165.183 235.922 165.49 199.292 165.874 181.684C165.874 181.684 199.177 210.113 216.355 235.891C222.315 244.819 226.331 253.427 226.351 260.431Z" fill="#007AFF"/>
<g style="mix-blend-mode:multiply" opacity="0.2">
<path d="M226.351 260.43C226.306 270.5 225.326 280.542 223.425 290.428C214.611 258.682 189.176 215.126 188.7 214.3L216.365 235.88C222.315 244.818 226.331 253.426 226.351 260.43Z" fill="#595959"/>
</g>
<g style="mix-blend-mode:multiply" opacity="0.2">
<path d="M181.973 343.262L164.744 300.196C164.744 300.196 164.836 284.367 164.979 263.803C169.358 279.849 173.701 300.258 176.903 316.375C179.865 331.312 181.85 342.551 181.973 343.262Z" fill="#595959"/>
</g>
<path d="M92.3572 198.523C99.959 189.533 107.167 196.001 113.106 199.59C119.046 203.18 133.799 208.704 137.022 214.924C140.245 221.144 141.299 241.429 136.071 248.14C130.842 254.85 104.394 243.348 103.289 243.348C102.184 243.348 95.2066 229.938 98.6853 222.908C102.164 215.878 101.862 204.485 92.3572 198.523Z" fill="#FDBA9D"/>
<path d="M117.065 314.091C108.195 293.491 99.3549 264.783 97.1143 260.595C93.9477 254.685 88.8781 250.693 86.6579 249.414C84.4377 248.134 78.8974 247.82 76.7591 245.741C74.6207 243.663 74.4621 239.433 72.4824 238.159C70.5026 236.886 62.2511 234.884 60.2048 233.126C58.1585 231.367 56.7978 225.781 54.8998 224.744C53.0019 223.708 47.7686 219.876 48.4848 214.285C49.201 208.694 60.522 214.285 60.522 214.285L106.931 240.475L118.81 247.66L136.07 248.14L152.701 275.047L146.685 299.237C146.685 299.237 139.718 310.418 136.546 311.692C133.374 312.966 117.065 314.091 117.065 314.091Z" fill="#FDBA9D"/>
<path d="M136.08 229.297C131.395 229.286 126.879 231.066 123.445 234.28L40.4227 177.303L44.3822 170.412L43.8707 170.108C44.0897 170.093 44.3018 170.024 44.4882 169.907C44.6746 169.79 44.8297 169.629 44.9398 169.437L52.5213 156.203C52.6925 155.907 52.7476 155.556 52.6756 155.221C52.6037 154.886 52.4099 154.591 52.1325 154.392L47.7586 151.246C47.6051 151.136 47.4308 151.059 47.2465 151.019C47.0623 150.98 46.8719 150.979 46.6873 151.017C46.5026 151.054 46.3276 151.13 46.1731 151.239C46.0186 151.347 45.8879 151.487 45.789 151.649L37.0924 165.997L27.7001 160.324C27.8852 160.216 28.0374 160.059 28.14 159.87L34.509 148.719C34.689 148.404 34.739 148.03 34.6481 147.677C34.5572 147.325 34.3327 147.023 34.023 146.836L30.5597 144.773C30.4022 144.681 30.2279 144.62 30.0471 144.596C29.8662 144.572 29.6824 144.584 29.5062 144.632C29.3301 144.68 29.1652 144.763 29.0211 144.875C28.877 144.988 28.7566 145.129 28.6669 145.289L22.3235 156.528C22.2377 156.665 22.1851 156.82 22.17 156.982L14.8598 152.546L22.1086 137.625C22.2603 137.315 22.2918 136.96 22.1972 136.628C22.1026 136.296 21.8886 136.011 21.5971 135.83L19.2643 134.453C19.1074 134.358 18.933 134.296 18.7517 134.27C18.5704 134.245 18.3859 134.257 18.2091 134.305C18.0324 134.353 17.8671 134.437 17.7232 134.551C17.5793 134.665 17.4597 134.807 17.3715 134.969L9.49343 149.266L8.98186 150.173L8.90513 150.328L0.934928 165.626C0.39696 166.658 0.268353 167.858 0.57517 168.982C0.881986 170.107 1.60128 171.071 2.58729 171.681L32.9436 190.249L117.511 246.039C117.426 246.739 117.385 247.444 117.388 248.149C117.39 251.874 118.487 255.516 120.542 258.613C122.596 261.71 125.515 264.123 128.93 265.548C132.344 266.972 136.101 267.344 139.725 266.616C143.35 265.889 146.679 264.094 149.291 261.459C151.904 258.824 153.683 255.467 154.404 251.813C155.125 248.159 154.755 244.371 153.341 240.929C151.927 237.487 149.532 234.545 146.46 232.474C143.388 230.404 139.776 229.298 136.08 229.297ZM136.08 257.087C134.324 257.089 132.607 256.566 131.146 255.583C129.684 254.601 128.545 253.203 127.872 251.567C127.199 249.932 127.022 248.132 127.365 246.395C127.707 244.658 128.552 243.063 129.794 241.811C131.036 240.559 132.619 239.706 134.341 239.361C136.064 239.016 137.849 239.194 139.472 239.873C141.094 240.551 142.48 241.7 143.454 243.173C144.429 244.646 144.948 246.378 144.946 248.149C144.943 250.518 144.008 252.79 142.346 254.466C140.684 256.142 138.431 257.084 136.08 257.087Z" fill="#FFC84E"/>
<path d="M264.842 308.965C240.128 290.444 165.869 181.658 165.869 181.658C166.011 166.086 166.996 150.533 168.821 135.069C169.409 130.102 170.12 125.006 170.99 119.915C171.287 118.121 171.614 116.336 171.952 114.557C171.952 114.557 191.35 83.8221 195.484 79.0306C196.753 77.6743 198.121 76.4157 199.576 75.2655C202.272 73.0632 205.92 70.3606 210.094 67.5754C218.791 61.8143 229.682 55.7592 238.558 53.4796C254.723 49.3225 262.32 106.175 262.32 106.175C262.32 106.175 289.556 327.501 264.842 308.965Z" fill="#007AFF"/>
<path d="M99.4829 61.9428C103.284 73.759 116.748 72.6089 120.391 71.2266C124.033 69.8444 110.415 55.2378 110.415 55.2378L99.4829 61.9428Z" fill="#183E66"/>
<path d="M181.692 134.557C176.152 126.913 172.059 121.348 169.082 117.346C164.478 111.187 162.539 108.717 162.002 108.062L161.848 107.866C161.848 107.866 161.899 107.757 161.991 107.541C162.314 106.736 163.255 104.446 164.437 101.419C167.752 92.9136 172.995 78.4103 172.427 73.2062C171.588 65.6657 183.59 57.6816 183.59 57.6816C196.532 73.1546 206.042 81.4069 209.726 91.3406C213.409 101.274 197.494 156.358 181.692 134.557Z" fill="#FDBA9D"/>
<g style="mix-blend-mode:multiply" opacity="0.2">
<path d="M169.081 117.346C164.477 111.188 162.538 108.717 162.001 108.062V107.546L161.858 103.08L164.447 101.424L175.701 94.2446C178.955 101.919 173.854 111.084 169.081 117.346Z" fill="#595959"/>
</g>
<path d="M110.415 55.232C130.688 102.022 146.644 116.211 161.848 109.986C177.052 103.76 179.313 82.2221 179.313 72.1594C179.313 62.0968 183.589 57.6664 183.589 57.6664L152.072 26.1685C152.072 26.1685 129.42 28.7473 124.35 33.1984C119.28 37.6494 110.415 55.232 110.415 55.232Z" fill="#FDBA9D"/>
<path d="M120.703 49.3275C111.362 65.4349 87.0059 71.5622 78.2427 47.0117C69.4796 22.4612 88.4741 20.1352 103.76 17.907C131.441 13.8376 127.993 -2.20787 144.506 0.303913C154.574 1.85121 157.807 16.3494 157.807 16.3494C164.457 10.7224 178.121 21.0377 174.32 32.4052C170.519 43.7727 158.39 42.7206 158.39 42.7206C150.328 31.874 136.587 21.9403 120.703 49.3275Z" fill="#183E66"/>
<path d="M157.812 40.7645C157.812 22.6817 181.211 21.1241 174.443 48.7898C167.675 76.4556 157.812 40.7645 157.812 40.7645Z" fill="#FDBA9D"/>
<path d="M199.996 359.838C190.721 376.828 175.44 382.532 164.759 382.837C140.362 383.523 117.081 319.361 111.377 313.131C126.11 314.57 152.717 275.046 152.717 275.046C152.717 275.046 168.064 306.065 179.318 318.283C190.573 330.502 204.497 351.576 199.996 359.838Z" fill="#007AFF"/>
<path d="M222.397 111.281C222.371 130.622 207.423 150.608 194.046 152.166C182.837 153.481 173.946 149.272 168.821 135.083C169.409 130.117 170.12 125.021 170.99 119.93C171.25 120.637 183.907 141.505 197.847 130.246C216.325 115.288 199.566 75.2648 199.566 75.2648C202.262 73.0625 205.909 70.3598 210.084 67.5747C217.818 78.3078 222.412 94.2399 222.397 111.281Z" fill="#73BAF9"/>
<path d="M152.701 92.121C162.84 91.0069 166.513 75.3534 166.744 69.4272" stroke="#142232" stroke-width="2.93" stroke-linecap="round" stroke-linejoin="round"/>
<path d="M162.523 36.5516C163.076 31.4404 171.87 30.4811 171.946 40.0641" stroke="#142232" stroke-width="2.93" stroke-linecap="round" stroke-linejoin="round"/>
<path d="M130.847 53.2061C136.229 75.0385 146.527 85.5756 147.637 68.808" stroke="#142232" stroke-width="2.93" stroke-linecap="round" stroke-linejoin="round"/>
<path d="M63.6119 217.317C63.6119 217.317 65.1466 204.742 66.579 200.296C68.0114 195.851 83.6858 189.517 83.6858 189.517C83.6858 189.517 81.1279 182.332 74.6157 181.657C68.1034 180.981 57.4322 189.037 54.6646 193.004C52.1579 196.614 48.9657 201.627 48.49 214.243C48.49 214.243 57.0792 221.108 58.6241 220.509C60.169 219.911 63.6119 217.317 63.6119 217.317Z" fill="#FDBA9D"/>
<path d="M63.1316 215.761C63.7762 208.453 64.5537 200.071 67.2855 197.678C70.0173 195.285 82.8371 188.219 85.7019 188.214C89.5028 188.214 95.5598 192.649 95.3244 198.637C95.0891 204.626 81.7782 207.978 81.7782 207.978L76.0793 226.783L63.1316 215.761Z" fill="#FDBA9D"/>
<path d="M74.0579 227.045C74.0579 227.045 78.309 210.948 80.1148 208.364C82.3708 205.13 91.2721 200.483 95.3237 199.498C98.7665 198.662 107.202 202.731 107.555 207.642C107.908 212.552 99.2423 212.675 97.2216 216.863C95.2009 221.052 88.3152 235.431 88.3152 235.431L74.0579 227.045Z" fill="#FDBA9D"/>
<path d="M85.113 233.755C89.3897 223.955 92.9298 216.704 95.7997 214.11C99.2476 211.015 105.069 207.162 109.223 207.766C113.377 208.369 117.434 212.15 119.797 215.91C123.378 221.583 120.273 229.201 119.086 231.475L108.753 224.172C105.898 228.84 100.567 240.94 99.9587 244.287C99.3499 247.634 85.113 233.755 85.113 233.755Z" fill="#FDBA9D"/>
<path d="M259.874 23.8115C250.55 26.7002 246.149 31.5577 246.149 36.614C246.149 41.6703 248.093 43.6392 247.479 46.7359C246.864 49.8325 241.845 54.4821 242.257 58.8174C242.67 63.1526 245.329 67.3909 244.815 71.2963C244.302 75.2018 241.9 78.9963 242.23 81.4967C242.56 83.9971 245.439 86.3913 245.636 89.6358C245.833 92.8804 245.228 101.653 253.113 101.861C260.997 102.069 256.491 96.8551 255.982 95.2791C255.473 93.703 253.521 64.7749 253.521 64.7749L259.874 41.3884V23.8115Z" fill="#FDBA9D"/>
<path d="M259.874 41.4263C281.177 49.6346 283.941 55.4166 283.941 58.9292C283.941 62.4418 252.191 55.6245 252.191 55.6245C252.191 55.6245 246.864 50.5405 248.606 46.6397C250.348 42.7389 259.874 41.4263 259.874 41.4263Z" fill="#FDBA9D"/>
<path d="M262.689 57.672C281.282 62.4325 291.422 68.7321 290.703 73.3863C289.983 78.0405 251.984 73.3863 251.984 73.3863L251.269 63.2644L252.186 55.6245L262.689 57.672Z" fill="#FDBA9D"/>
<path d="M260.397 74.2719C271.651 76.3748 283.941 79.9752 283.941 84.3244C283.941 91.8626 258.645 89.4084 252.599 88.766C246.552 88.1236 246.864 78.6442 246.864 78.6442L251.985 73.3799L260.397 74.2719Z" fill="#FDBA9D"/>
<path d="M253.122 101.879C262.552 101.764 278.335 99.3002 278.335 95.5796C278.335 91.859 256.514 88.2494 252.622 88.767C248.73 89.2847 248.831 101.935 253.122 101.879Z" fill="#FDBA9D"/>
<rect x="152" y="503" width="21" height="21" fill="#CBE0EC"/>
<rect x="191" y="522" width="21" height="21" fill="#CBE0EC"/>
<rect x="835" y="472" width="21" height="21" fill="#CBE0EC"/>
<rect x="867" y="502" width="21" height="21" fill="#CBE0EC"/>
</svg>
