<svg width="24" height="24" viewBox="0 0 24 24" fill="none" xmlns="http://www.w3.org/2000/svg">
<path d="M12.4999 11.9997C13.4887 11.9997 14.4554 11.7065 15.2776 11.1571C16.0999 10.6077 16.7407 9.82683 17.1191 8.91323C17.4976 7.99962 17.5966 6.99432 17.4037 6.02444C17.2107 5.05456 16.7345 4.16367 16.0353 3.46443C15.3361 2.76518 14.4452 2.28899 13.4753 2.09607C12.5054 1.90315 11.5001 2.00217 10.5865 2.38059C9.67289 2.75902 8.89202 3.39987 8.34263 4.22209C7.79324 5.04431 7.5 6.01098 7.5 6.99986C7.50132 8.3255 8.02852 9.59647 8.96589 10.5338C9.90326 11.4712 11.1742 11.9984 12.4999 11.9997ZM12.4999 3.66662C13.1591 3.66662 13.8036 3.86211 14.3517 4.22837C14.8999 4.59464 15.3271 5.11522 15.5794 5.72429C15.8317 6.33336 15.8977 7.00356 15.7691 7.65015C15.6404 8.29673 15.323 8.89066 14.8568 9.35682C14.3907 9.82298 13.7967 10.1404 13.1501 10.2691C12.5036 10.3977 11.8334 10.3317 11.2243 10.0794C10.6152 9.82709 10.0946 9.39986 9.72837 8.85171C9.36211 8.30356 9.16662 7.65911 9.16662 6.99986C9.16662 6.11583 9.5178 5.26801 10.1429 4.64291C10.768 4.0178 11.6158 3.66662 12.4999 3.66662Z" fill="#142232"/>
<path d="M12.4998 13.667C10.5114 13.6692 8.60508 14.4601 7.19907 15.8661C5.79307 17.2721 5.00221 19.1784 5 21.1668C5 21.3878 5.08779 21.5997 5.24407 21.756C5.40035 21.9123 5.6123 22.0001 5.83331 22.0001C6.05432 22.0001 6.26627 21.9123 6.42255 21.756C6.57882 21.5997 6.66662 21.3878 6.66662 21.1668C6.66662 19.6197 7.28118 18.136 8.37512 17.0421C9.46905 15.9482 10.9527 15.3336 12.4998 15.3336C14.0468 15.3336 15.5305 15.9482 16.6245 17.0421C17.7184 18.136 18.333 19.6197 18.333 21.1668C18.333 21.3878 18.4208 21.5997 18.577 21.756C18.7333 21.9123 18.9453 22.0001 19.1663 22.0001C19.3873 22.0001 19.5992 21.9123 19.7555 21.756C19.9118 21.5997 19.9996 21.3878 19.9996 21.1668C19.9974 19.1784 19.2065 17.2721 17.8005 15.8661C16.3945 14.4601 14.4882 13.6692 12.4998 13.667Z" fill="#142232"/>
</svg>
