<svg width="24" height="24" viewBox="0 0 24 24" fill="none" xmlns="http://www.w3.org/2000/svg">
<path d="M15.1945 9.57751L9.9493 4.3323C9.73519 4.11946 9.44556 4 9.14366 4C8.84176 4 8.55213 4.11946 8.33802 4.3323C8.23091 4.43854 8.1459 4.56492 8.08789 4.70418C8.02987 4.84343 8 4.9928 8 5.14365C8 5.29451 8.02987 5.44387 8.08789 5.58313C8.1459 5.72238 8.23091 5.84877 8.33802 5.955L13.5947 11.1888C13.7018 11.295 13.7868 11.4214 13.8448 11.5607C13.9028 11.6999 13.9327 11.8493 13.9327 12.0001C13.9327 12.151 13.9028 12.3004 13.8448 12.4396C13.7868 12.5789 13.7018 12.7052 13.5947 12.8115L8.33802 18.0453C8.12284 18.2589 8.00135 18.5493 8.00028 18.8526C7.99921 19.1558 8.11864 19.4471 8.33231 19.6622C8.54598 19.8774 8.83637 19.9989 9.13962 20C9.44286 20.0011 9.73411 19.8816 9.9493 19.668L15.1945 14.4228C15.8365 13.78 16.1971 12.9086 16.1971 12.0001C16.1971 11.0916 15.8365 10.2203 15.1945 9.57751Z" fill="#142232"/>
</svg>
