<svg width="24" height="24" viewBox="0 0 24 24" fill="none" xmlns="http://www.w3.org/2000/svg">
<path d="M20.9722 13.3818L19.3891 7.6858C18.925 6.0171 17.9165 4.55139 16.5239 3.52166C15.1312 2.49194 13.4343 1.95727 11.7028 2.00267C9.97142 2.04806 8.30485 2.67091 6.96805 3.7722C5.63125 4.87349 4.70093 6.39003 4.32497 8.08075L3.09927 13.5926C2.96389 14.2017 2.96702 14.8333 3.10843 15.441C3.24985 16.0487 3.52594 16.6168 3.91633 17.1035C4.30672 17.5902 4.80143 17.983 5.36394 18.2529C5.92645 18.5228 6.5424 18.6629 7.16631 18.6629H8.09453C8.28577 19.6047 8.79673 20.4514 9.54082 21.0596C10.2849 21.6678 11.2164 22 12.1774 22C13.1384 22 14.0699 21.6678 14.814 21.0596C15.5581 20.4514 16.069 19.6047 16.2603 18.6629H16.9585C17.6008 18.6629 18.2344 18.5145 18.8098 18.2291C19.3852 17.9438 19.8868 17.5293 20.2755 17.0179C20.6642 16.5066 20.9294 15.9124 21.0504 15.2816C21.1714 14.6509 21.1449 14.0007 20.9731 13.3818H20.9722ZM12.1774 20.3293C11.6622 20.3272 11.1603 20.166 10.7403 19.8677C10.3203 19.5694 10.0027 19.1486 9.831 18.6629H14.5238C14.3521 19.1486 14.0345 19.5694 13.6145 19.8677C13.1945 20.166 12.6926 20.3272 12.1774 20.3293ZM18.9483 16.009C18.7161 16.317 18.4153 16.5667 18.0697 16.7381C17.7242 16.9095 17.3434 16.9979 16.9577 16.9964H7.16631C6.792 16.9963 6.42249 16.9122 6.08505 16.7502C5.7476 16.5883 5.45084 16.3526 5.21667 16.0606C4.98249 15.7686 4.81688 15.4277 4.73205 15.0632C4.64723 14.6986 4.64536 14.3196 4.72659 13.9542L5.95145 8.44154C6.24671 7.11353 6.97742 5.92233 8.02742 5.0573C9.07743 4.19228 10.3865 3.70306 11.7464 3.66743C13.1064 3.63181 14.4392 4.05181 15.5331 4.86068C16.627 5.66954 17.419 6.82085 17.7834 8.13158L19.3666 13.8276C19.4712 14.1987 19.4878 14.5891 19.4152 14.9677C19.3426 15.3464 19.1827 15.7029 18.9483 16.009Z" fill="#142232"/>
</svg>
