<svg width="24" height="24" viewBox="0 0 24 24" fill="none" xmlns="http://www.w3.org/2000/svg">
<path d="M11.6667 5.33333C12.5871 5.33333 13.3333 4.58714 13.3333 3.66667C13.3333 2.74619 12.5871 2 11.6667 2C10.7462 2 10 2.74619 10 3.66667C10 4.58714 10.7462 5.33333 11.6667 5.33333Z" fill="#142232"/>
<path d="M11.6667 13.6666C12.5871 13.6666 13.3333 12.9204 13.3333 11.9999C13.3333 11.0794 12.5871 10.3333 11.6667 10.3333C10.7462 10.3333 10 11.0794 10 11.9999C10 12.9204 10.7462 13.6666 11.6667 13.6666Z" fill="#142232"/>
<path d="M11.6667 22.0001C12.5871 22.0001 13.3333 21.2539 13.3333 20.3334C13.3333 19.4129 12.5871 18.6667 11.6667 18.6667C10.7462 18.6667 10 19.4129 10 20.3334C10 21.2539 10.7462 22.0001 11.6667 22.0001Z" fill="#142232"/>
</svg>
