<svg width="24" height="24" viewBox="0 0 24 24" fill="none" xmlns="http://www.w3.org/2000/svg">
<path d="M3.66667 13.3333C4.58715 13.3333 5.33335 12.5872 5.33335 11.6667C5.33335 10.7462 4.58715 10 3.66667 10C2.7462 10 2 10.7462 2 11.6667C2 12.5872 2.7462 13.3333 3.66667 13.3333Z" fill="#142232"/>
<path d="M11.9999 13.3333C12.9204 13.3333 13.6666 12.5872 13.6666 11.6667C13.6666 10.7462 12.9204 10 11.9999 10C11.0794 10 10.3333 10.7462 10.3333 11.6667C10.3333 12.5872 11.0794 13.3333 11.9999 13.3333Z" fill="#142232"/>
<path d="M20.3334 13.3333C21.2539 13.3333 22.0001 12.5872 22.0001 11.6667C22.0001 10.7462 21.2539 10 20.3334 10C19.4129 10 18.6667 10.7462 18.6667 11.6667C18.6667 12.5872 19.4129 13.3333 20.3334 13.3333Z" fill="#142232"/>
</svg>
