<svg width="24" height="24" viewBox="0 0 24 24" fill="none" xmlns="http://www.w3.org/2000/svg">
<path d="M7.83335 2H5.33334C4.44929 2 3.60144 2.35119 2.97631 2.97631C2.35119 3.60144 2 4.44929 2 5.33334L2 7.83335C2 8.71741 2.35119 9.56526 2.97631 10.1904C3.60144 10.8155 4.44929 11.1667 5.33334 11.1667H7.83335C8.71741 11.1667 9.56526 10.8155 10.1904 10.1904C10.8155 9.56526 11.1667 8.71741 11.1667 7.83335V5.33334C11.1667 4.44929 10.8155 3.60144 10.1904 2.97631C9.56526 2.35119 8.71741 2 7.83335 2V2ZM9.50002 7.83335C9.50002 8.27538 9.32443 8.6993 9.01186 9.01186C8.6993 9.32443 8.27538 9.50002 7.83335 9.50002H5.33334C4.89131 9.50002 4.46739 9.32443 4.15483 9.01186C3.84227 8.6993 3.66667 8.27538 3.66667 7.83335V5.33334C3.66667 4.89131 3.84227 4.46739 4.15483 4.15483C4.46739 3.84227 4.89131 3.66667 5.33334 3.66667H7.83335C8.27538 3.66667 8.6993 3.84227 9.01186 4.15483C9.32443 4.46739 9.50002 4.89131 9.50002 5.33334V7.83335Z" fill="#142232"/>
<path d="M18.6666 2H16.1666C15.2825 2 14.4347 2.35119 13.8096 2.97631C13.1844 3.60144 12.8333 4.44929 12.8333 5.33334V7.83335C12.8333 8.71741 13.1844 9.56526 13.8096 10.1904C14.4347 10.8155 15.2825 11.1667 16.1666 11.1667H18.6666C19.5507 11.1667 20.3985 10.8155 21.0236 10.1904C21.6488 9.56526 22 8.71741 22 7.83335V5.33334C22 4.44929 21.6488 3.60144 21.0236 2.97631C20.3985 2.35119 19.5507 2 18.6666 2V2ZM20.3333 7.83335C20.3333 8.27538 20.1577 8.6993 19.8451 9.01186C19.5326 9.32443 19.1086 9.50002 18.6666 9.50002H16.1666C15.7246 9.50002 15.3006 9.32443 14.9881 9.01186C14.6755 8.6993 14.4999 8.27538 14.4999 7.83335V5.33334C14.4999 4.89131 14.6755 4.46739 14.9881 4.15483C15.3006 3.84227 15.7246 3.66667 16.1666 3.66667H18.6666C19.1086 3.66667 19.5326 3.84227 19.8451 4.15483C20.1577 4.46739 20.3333 4.89131 20.3333 5.33334V7.83335Z" fill="#142232"/>
<path d="M7.83335 12.8333H5.33334C4.44929 12.8333 3.60144 13.1844 2.97631 13.8096C2.35119 14.4347 2 15.2825 2 16.1666L2 18.6666C2 19.5507 2.35119 20.3985 2.97631 21.0236C3.60144 21.6487 4.44929 21.9999 5.33334 21.9999H7.83335C8.71741 21.9999 9.56526 21.6487 10.1904 21.0236C10.8155 20.3985 11.1667 19.5507 11.1667 18.6666V16.1666C11.1667 15.2825 10.8155 14.4347 10.1904 13.8096C9.56526 13.1844 8.71741 12.8333 7.83335 12.8333ZM9.50002 18.6666C9.50002 19.1086 9.32443 19.5326 9.01186 19.8451C8.6993 20.1577 8.27538 20.3333 7.83335 20.3333H5.33334C4.89131 20.3333 4.46739 20.1577 4.15483 19.8451C3.84227 19.5326 3.66667 19.1086 3.66667 18.6666V16.1666C3.66667 15.7246 3.84227 15.3006 4.15483 14.9881C4.46739 14.6755 4.89131 14.4999 5.33334 14.4999H7.83335C8.27538 14.4999 8.6993 14.6755 9.01186 14.9881C9.32443 15.3006 9.50002 15.7246 9.50002 16.1666V18.6666Z" fill="#142232"/>
<path d="M18.6666 12.8333H16.1666C15.2825 12.8333 14.4347 13.1844 13.8096 13.8096C13.1844 14.4347 12.8333 15.2825 12.8333 16.1666V18.6666C12.8333 19.5507 13.1844 20.3985 13.8096 21.0236C14.4347 21.6487 15.2825 21.9999 16.1666 21.9999H18.6666C19.5507 21.9999 20.3985 21.6487 21.0236 21.0236C21.6488 20.3985 22 19.5507 22 18.6666V16.1666C22 15.2825 21.6488 14.4347 21.0236 13.8096C20.3985 13.1844 19.5507 12.8333 18.6666 12.8333ZM20.3333 18.6666C20.3333 19.1086 20.1577 19.5326 19.8451 19.8451C19.5326 20.1577 19.1086 20.3333 18.6666 20.3333H16.1666C15.7246 20.3333 15.3006 20.1577 14.9881 19.8451C14.6755 19.5326 14.4999 19.1086 14.4999 18.6666V16.1666C14.4999 15.7246 14.6755 15.3006 14.9881 14.9881C15.3006 14.6755 15.7246 14.4999 16.1666 14.4999H18.6666C19.1086 14.4999 19.5326 14.6755 19.8451 14.9881C20.1577 15.3006 20.3333 15.7246 20.3333 16.1666V18.6666Z" fill="#142232"/>
</svg>
