<svg width="24" height="24" viewBox="0 0 24 24" fill="none" xmlns="http://www.w3.org/2000/svg">
<path d="M8.246 22C6.73746 21.999 5.28018 21.4525 4.14305 20.4612C3.00593 19.4699 2.26571 18.1008 2.05898 16.6065C1.85225 15.1122 2.19297 13.5935 3.01826 12.3308C3.84355 11.068 5.09772 10.1463 6.54934 9.73584C7.60444 9.4337 8.72124 9.41989 9.7835 9.69584L16.3735 3.10751C16.7233 2.75525 17.1396 2.47596 17.5983 2.28585C18.0569 2.09573 18.5487 1.99858 19.0451 2.00002C19.8264 2.00068 20.5756 2.31134 21.128 2.8638C21.6805 3.41627 21.9911 4.16538 21.9918 4.94668C21.9931 5.44317 21.896 5.93499 21.706 6.39371C21.5161 6.85243 21.2371 7.26895 20.8851 7.61918L20.3251 8.17918C20.0118 8.49038 19.5884 8.66553 19.1468 8.66668H17.8251V9.50001C17.8251 9.94204 17.6496 10.366 17.337 10.6785C17.0244 10.9911 16.6005 11.1667 16.1585 11.1667H15.3252V12.4883C15.3257 12.7073 15.2829 12.9242 15.1991 13.1264C15.1152 13.3287 14.9921 13.5123 14.8368 13.6667L14.2952 14.2083C14.5726 15.2701 14.5591 16.387 14.256 17.4417C13.9149 18.6433 13.2229 19.7158 12.2686 20.5218C11.3143 21.3278 10.1411 21.8306 8.89933 21.9658C8.68228 21.9884 8.46422 21.9998 8.246 22ZM8.246 11.1667C7.39279 11.1658 6.55629 11.4032 5.83066 11.852C5.10503 12.3008 4.51907 12.9432 4.13876 13.707C3.75844 14.4707 3.59886 15.3255 3.67799 16.175C3.75711 17.0246 4.07179 17.8351 4.5866 18.5155C5.10142 19.1959 5.79593 19.7191 6.59197 20.0262C7.388 20.3333 8.25394 20.4121 9.09232 20.2537C9.9307 20.0953 10.7082 19.7061 11.3374 19.1298C11.9665 18.5535 12.4223 17.813 12.6535 16.9917C12.9135 16.0888 12.8843 15.1272 12.5702 14.2417C12.5189 14.0938 12.5103 13.9345 12.5454 13.7819C12.5804 13.6294 12.6578 13.4898 12.7685 13.3792L13.6585 12.4883V11.1667C13.6585 10.7246 13.8341 10.3007 14.1466 9.98816C14.4592 9.6756 14.8831 9.50001 15.3252 9.50001H16.1585V8.66668C16.1585 8.22465 16.3341 7.80073 16.6466 7.48817C16.9592 7.17561 17.3831 7.00001 17.8251 7.00001H19.1468L19.7068 6.44001C19.9034 6.24431 20.0593 6.01156 20.1655 5.75524C20.2716 5.49892 20.3259 5.2241 20.3251 4.94668C20.3249 4.60742 20.1901 4.2821 19.9503 4.04212C19.7105 3.80215 19.3852 3.66712 19.046 3.66668C18.7684 3.666 18.4934 3.72037 18.2369 3.82665C17.9804 3.93293 17.7476 4.089 17.5518 4.28585L10.6093 11.2275C10.4985 11.3382 10.3588 11.4155 10.2061 11.4504C10.0534 11.4854 9.89392 11.4766 9.746 11.425C9.26272 11.2549 8.75419 11.1675 8.24183 11.1667H8.246ZM6.1585 17C6.1585 17.1648 6.20738 17.3259 6.29894 17.463C6.39051 17.6 6.52066 17.7068 6.67293 17.7699C6.8252 17.833 6.99276 17.8495 7.15441 17.8173C7.31606 17.7852 7.46455 17.7058 7.58109 17.5893C7.69763 17.4727 7.777 17.3242 7.80915 17.1626C7.84131 17.0009 7.82481 16.8334 7.76173 16.6811C7.69866 16.5288 7.59185 16.3987 7.45481 16.3071C7.31777 16.2155 7.15665 16.1667 6.99183 16.1667C6.77082 16.1667 6.55886 16.2545 6.40258 16.4107C6.2463 16.567 6.1585 16.779 6.1585 17Z" fill="#142232"/>
</svg>
