<svg width="24" height="24" viewBox="0 0 24 24" fill="none" xmlns="http://www.w3.org/2000/svg">
<path d="M6.58301 16.6667C7.27337 16.6667 7.83301 16.1071 7.83301 15.4167C7.83301 14.7264 7.27337 14.1667 6.58301 14.1667C5.89265 14.1667 5.33301 14.7264 5.33301 15.4167C5.33301 16.1071 5.89265 16.6667 6.58301 16.6667Z" fill="#142232"/>
<path d="M17.8333 5H6.16667C5.062 5.00132 4.00296 5.44073 3.22185 6.22185C2.44073 7.00296 2.00132 8.062 2 9.16667L2 15.8333C2.00132 16.938 2.44073 17.997 3.22185 18.7782C4.00296 19.5593 5.062 19.9987 6.16667 20H17.8333C18.938 19.9987 19.997 19.5593 20.7782 18.7782C21.5593 17.997 21.9987 16.938 22 15.8333V9.16667C21.9987 8.062 21.5593 7.00296 20.7782 6.22185C19.997 5.44073 18.938 5.00132 17.8333 5ZM6.16667 6.66667H17.8333C18.4964 6.66667 19.1323 6.93006 19.6011 7.3989C20.0699 7.86774 20.3333 8.50363 20.3333 9.16667H3.66667C3.66667 8.50363 3.93006 7.86774 4.3989 7.3989C4.86774 6.93006 5.50363 6.66667 6.16667 6.66667ZM17.8333 18.3333H6.16667C5.50363 18.3333 4.86774 18.0699 4.3989 17.6011C3.93006 17.1323 3.66667 16.4964 3.66667 15.8333V10.8333H20.3333V15.8333C20.3333 16.4964 20.0699 17.1323 19.6011 17.6011C19.1323 18.0699 18.4964 18.3333 17.8333 18.3333Z" fill="#142232"/>
</svg>
