<svg width="24" height="24" viewBox="0 0 24 24" fill="none" xmlns="http://www.w3.org/2000/svg">
<path d="M17.8333 2H6.16667C5.062 2.00132 4.00296 2.44073 3.22185 3.22185C2.44073 4.00296 2.00132 5.062 2 6.16667L2 17.8333C2.00132 18.938 2.44073 19.997 3.22185 20.7782C4.00296 21.5593 5.062 21.9987 6.16667 22H17.8333C18.938 21.9987 19.997 21.5593 20.7782 20.7782C21.5593 19.997 21.9987 18.938 22 17.8333V6.16667C21.9987 5.062 21.5593 4.00296 20.7782 3.22185C19.997 2.44073 18.938 2.00132 17.8333 2V2ZM20.3333 6.16667H14.5V3.66667H17.8333C18.4964 3.66667 19.1323 3.93006 19.6011 4.3989C20.0699 4.86774 20.3333 5.50363 20.3333 6.16667ZM11.1667 3.66667H12.8333V7.83333C12.8333 8.05435 12.7455 8.26631 12.5893 8.42259C12.433 8.57887 12.221 8.66667 12 8.66667C11.779 8.66667 11.567 8.57887 11.4107 8.42259C11.2545 8.26631 11.1667 8.05435 11.1667 7.83333V3.66667ZM6.16667 3.66667H9.5V6.16667H3.66667C3.66667 5.50363 3.93006 4.86774 4.3989 4.3989C4.86774 3.93006 5.50363 3.66667 6.16667 3.66667ZM17.8333 20.3333H6.16667C5.50363 20.3333 4.86774 20.0699 4.3989 19.6011C3.93006 19.1323 3.66667 18.4964 3.66667 17.8333V7.83333H9.5C9.5 8.49637 9.76339 9.13226 10.2322 9.6011C10.7011 10.0699 11.337 10.3333 12 10.3333C12.663 10.3333 13.2989 10.0699 13.7678 9.6011C14.2366 9.13226 14.5 8.49637 14.5 7.83333H20.3333V17.8333C20.3333 18.4964 20.0699 19.1323 19.6011 19.6011C19.1323 20.0699 18.4964 20.3333 17.8333 20.3333ZM18.6667 17.8333C18.6667 18.0543 18.5789 18.2663 18.4226 18.4226C18.2663 18.5789 18.0543 18.6667 17.8333 18.6667H15.3333C15.1123 18.6667 14.9004 18.5789 14.7441 18.4226C14.5878 18.2663 14.5 18.0543 14.5 17.8333C14.5 17.6123 14.5878 17.4004 14.7441 17.2441C14.9004 17.0878 15.1123 17 15.3333 17H17.8333C18.0543 17 18.2663 17.0878 18.4226 17.2441C18.5789 17.4004 18.6667 17.6123 18.6667 17.8333Z" fill="#a1a7ad"/>
</svg>
