<svg width="24" height="24" viewBox="0 0 24 24" fill="none" xmlns="http://www.w3.org/2000/svg">
<path d="M17.8173 3.78351L12.5965 2.0427C12.4256 1.98577 12.2408 1.98577 12.0699 2.0427L6.84829 3.78351C6.01838 4.05938 5.2965 4.58975 4.78519 5.29927C4.27388 6.00879 3.99914 6.86138 4 7.73595V12C4 18.3025 11.6666 21.7832 11.9949 21.9282C12.1014 21.9755 12.2167 22 12.3332 22C12.4498 22 12.565 21.9755 12.6715 21.9282C12.9999 21.7832 20.6664 18.3025 20.6664 12V7.73595C20.6672 6.86128 20.3924 6.00861 19.8809 5.29908C19.3694 4.58954 18.6474 4.05924 17.8173 3.78351ZM18.9998 12C18.9998 16.5458 13.734 19.5274 12.3332 20.2408C10.9307 19.5299 5.66664 16.5575 5.66664 12V7.73595C5.66663 7.21129 5.83169 6.69992 6.13844 6.27428C6.44518 5.84863 6.87807 5.53028 7.37578 5.36432L12.3332 3.71184L17.2898 5.36432C17.7877 5.53014 18.2207 5.84843 18.5276 6.27409C18.8345 6.69974 18.9997 7.21118 18.9998 7.73595V12Z" fill="#142232"/>
</svg>
