<svg width="24" height="24" viewBox="0 0 24 24" fill="none" xmlns="http://www.w3.org/2000/svg">
<path d="M21.2641 2.73452C20.9653 2.43212 20.5936 2.21189 20.1848 2.0951C19.7761 1.97832 19.3441 1.96893 18.9307 2.06784L5.59703 4.87624C4.82915 4.98155 4.10593 5.29915 3.50881 5.79327C2.91169 6.2874 2.46438 6.93842 2.21726 7.67303C1.97013 8.40764 1.93302 9.19665 2.11008 9.95121C2.28715 10.7058 2.67137 11.3959 3.21947 11.9439L4.65117 13.3748C4.72866 13.4523 4.79011 13.5442 4.83201 13.6455C4.87391 13.7467 4.89543 13.8552 4.89534 13.9648V16.6049C4.89718 16.9761 4.98263 17.3421 5.14535 17.6757L5.13868 17.6816L5.16035 17.7032C5.40453 18.1942 5.80335 18.5912 6.29538 18.8333L6.31704 18.8549L6.32288 18.8483C6.65652 19.011 7.02254 19.0964 7.39374 19.0983H10.0338C10.2547 19.0981 10.4666 19.1856 10.623 19.3416L12.0539 20.7725C12.4376 21.1605 12.8944 21.4687 13.3979 21.6794C13.9013 21.8901 14.4415 21.9991 14.9873 22C15.4421 21.9994 15.8938 21.9251 16.3248 21.78C17.0527 21.541 17.6993 21.1033 18.1917 20.5164C18.6841 19.9295 19.0027 19.2166 19.1115 18.4582L21.9241 5.09541C22.0281 4.67844 22.022 4.24158 21.9063 3.82768C21.7906 3.41379 21.5693 3.03709 21.2641 2.73452ZM5.8312 12.1981L4.39866 10.7672C4.06509 10.4417 3.83129 10.0277 3.72472 9.57399C3.61814 9.12024 3.64321 8.6455 3.79698 8.20549C3.94606 7.75408 4.22166 7.35499 4.591 7.05568C4.96033 6.75637 5.40787 6.56944 5.88037 6.51712L19.0815 3.73788L6.56038 16.2607V13.9648C6.56165 13.6367 6.49785 13.3117 6.37269 13.0084C6.24753 12.7052 6.06348 12.4298 5.8312 12.1981ZM17.474 18.1732C17.41 18.6335 17.219 19.0669 16.9224 19.4246C16.6258 19.7824 16.2353 20.0504 15.7949 20.1986C15.3544 20.3468 14.8814 20.3692 14.4289 20.2635C13.9763 20.1577 13.5622 19.928 13.233 19.5999L11.7997 18.1666C11.5683 17.9339 11.2931 17.7495 10.99 17.6239C10.6869 17.4983 10.3619 17.4341 10.0338 17.4349H7.73791L20.2607 4.91624L17.474 18.1732Z" fill="#142232"/>
</svg>
