<svg width="24" height="24" viewBox="0 0 24 24" fill="none" xmlns="http://www.w3.org/2000/svg">
<path d="M11.9972 8.66724C11.3379 8.66724 10.6934 8.86273 10.1453 9.229C9.59709 9.59528 9.16985 10.1159 8.91755 10.725C8.66526 11.334 8.59925 12.0043 8.72787 12.6509C8.85649 13.2975 9.17396 13.8914 9.64013 14.3576C10.1063 14.8238 10.7002 15.1412 11.3469 15.2699C11.9935 15.3985 12.6637 15.3325 13.2728 15.0802C13.8819 14.8279 14.4024 14.4006 14.7687 13.8525C15.135 13.3043 15.3305 12.6598 15.3305 12.0006C15.3305 11.1165 14.9793 10.2687 14.3542 9.64355C13.7291 9.01843 12.8812 8.66724 11.9972 8.66724ZM11.9972 13.6672C11.6675 13.6672 11.3453 13.5695 11.0712 13.3864C10.7971 13.2032 10.5835 12.9429 10.4574 12.6384C10.3312 12.3338 10.2982 11.9987 10.3625 11.6754C10.4268 11.3521 10.5856 11.0551 10.8186 10.8221C11.0517 10.589 11.3487 10.4302 11.672 10.3659C11.9953 10.3016 12.3304 10.3346 12.635 10.4608C12.9395 10.5869 13.1998 10.8005 13.3829 11.0746C13.5661 11.3487 13.6638 11.6709 13.6638 12.0006C13.6638 12.4426 13.4882 12.8665 13.1757 13.1791C12.8631 13.4916 12.4392 13.6672 11.9972 13.6672Z" fill="#a1a7ad"/>
<path d="M19.7422 13.5833L19.3722 13.37C19.5388 12.4637 19.5388 11.5346 19.3722 10.6283L19.7422 10.415C20.0268 10.2508 20.2762 10.0323 20.4762 9.77172C20.6763 9.51118 20.8231 9.21378 20.9082 8.89651C20.9933 8.57925 21.0151 8.24832 20.9723 7.92263C20.9296 7.59694 20.823 7.28286 20.6589 6.99833C20.4947 6.7138 20.2762 6.46439 20.0156 6.26434C19.7551 6.06428 19.4577 5.91751 19.1404 5.83239C18.8231 5.74726 18.4922 5.72547 18.1665 5.76824C17.8408 5.81101 17.5268 5.91751 17.2422 6.08167L16.8714 6.29583C16.171 5.69743 15.3661 5.23354 14.4972 4.9275V4.5C14.4972 3.83696 14.2338 3.20107 13.765 2.73223C13.2962 2.26339 12.6603 2 11.9972 2C11.3342 2 10.6983 2.26339 10.2295 2.73223C9.76062 3.20107 9.49723 3.83696 9.49723 4.5V4.9275C8.62839 5.23464 7.82377 5.69967 7.1239 6.29917L6.75139 6.08333C6.17676 5.75181 5.49396 5.66214 4.85321 5.83405C4.21246 6.00596 3.66625 6.42536 3.33473 7C3.00321 7.57464 2.91354 8.25743 3.08545 8.89818C3.25736 9.53893 3.67676 10.0851 4.25139 10.4167L4.62139 10.63C4.45482 11.5363 4.45482 12.4654 4.62139 13.3717L4.25139 13.585C3.67676 13.9165 3.25736 14.4627 3.08545 15.1035C2.91354 15.7442 3.00321 16.427 3.33473 17.0017C3.66625 17.5763 4.21246 17.9957 4.85321 18.1676C5.49396 18.3395 6.17676 18.2499 6.75139 17.9183L7.12223 17.7042C7.82287 18.3027 8.62805 18.7666 9.49723 19.0725V19.5C9.49723 20.163 9.76062 20.7989 10.2295 21.2678C10.6983 21.7366 11.3342 22 11.9972 22C12.6603 22 13.2962 21.7366 13.765 21.2678C14.2338 20.7989 14.4972 20.163 14.4972 19.5V19.0725C15.3661 18.7654 16.1707 18.3003 16.8706 17.7008L17.2431 17.9158C17.8177 18.2474 18.5005 18.337 19.1412 18.1651C19.782 17.9932 20.3282 17.5738 20.6597 16.9992C20.9913 16.4245 21.0809 15.7417 20.909 15.101C20.7371 14.4602 20.3177 13.914 19.7431 13.5825L19.7422 13.5833ZM17.6189 10.4367C17.9011 11.4592 17.9011 12.5391 17.6189 13.5617C17.5696 13.7396 17.5809 13.9289 17.6508 14.0998C17.7208 14.2707 17.8456 14.4135 18.0056 14.5058L18.9089 15.0275C19.1004 15.138 19.2402 15.3201 19.2974 15.5336C19.3547 15.7472 19.3248 15.9747 19.2143 16.1663C19.1038 16.3578 18.9217 16.4975 18.7082 16.5548C18.4946 16.6121 18.2671 16.5822 18.0756 16.4717L17.1706 15.9483C17.0105 15.8556 16.8241 15.8188 16.6408 15.8437C16.4574 15.8686 16.2876 15.9538 16.1581 16.0858C15.4163 16.843 14.4819 17.3833 13.4556 17.6483C13.2764 17.6944 13.1177 17.7987 13.0044 17.9449C12.8911 18.0911 12.8296 18.2709 12.8297 18.4558V19.5C12.8297 19.721 12.7419 19.933 12.5857 20.0893C12.4294 20.2455 12.2174 20.3333 11.9964 20.3333C11.7754 20.3333 11.5634 20.2455 11.4071 20.0893C11.2509 19.933 11.1631 19.721 11.1631 19.5V18.4567C11.1632 18.2717 11.1017 18.092 10.9884 17.9458C10.8751 17.7996 10.7164 17.6952 10.5372 17.6492C9.51085 17.3831 8.57667 16.8416 7.83556 16.0833C7.706 15.9513 7.53618 15.8661 7.35286 15.8412C7.16954 15.8163 6.98315 15.8531 6.82306 15.9458L5.91973 16.4683C5.82492 16.5239 5.72005 16.5602 5.61117 16.5751C5.50228 16.59 5.39152 16.5832 5.28527 16.5551C5.17902 16.527 5.07938 16.4782 4.99208 16.4114C4.90478 16.3446 4.83154 16.2613 4.77659 16.1661C4.72164 16.0709 4.68606 15.9658 4.67189 15.8568C4.65773 15.7479 4.66526 15.6372 4.69405 15.5311C4.72285 15.425 4.77234 15.3257 4.83967 15.2389C4.90701 15.152 4.99086 15.0793 5.0864 15.025L5.98973 14.5033C6.14969 14.411 6.27446 14.2682 6.34444 14.0973C6.41443 13.9264 6.42567 13.7371 6.37639 13.5592C6.09419 12.5366 6.09419 11.4567 6.37639 10.4342C6.42478 10.2566 6.41301 10.0679 6.34291 9.89774C6.27281 9.72754 6.14832 9.58534 5.98889 9.49333L5.08556 8.97167C4.89405 8.86116 4.75429 8.6791 4.69701 8.46555C4.63973 8.25199 4.66964 8.02442 4.78014 7.83292C4.89065 7.64141 5.07271 7.50164 5.28627 7.44437C5.49982 7.38709 5.72739 7.41699 5.91889 7.5275L6.82389 8.05083C6.98354 8.14376 7.16955 8.18101 7.35267 8.15672C7.53579 8.13244 7.70565 8.048 7.83556 7.91667C8.5773 7.15945 9.51175 6.61918 10.5381 6.35417C10.7178 6.30797 10.8769 6.20313 10.9903 6.05625C11.1036 5.90938 11.1647 5.72887 11.1639 5.54333V4.5C11.1639 4.27899 11.2517 4.06702 11.408 3.91074C11.5643 3.75446 11.7762 3.66667 11.9972 3.66667C12.2182 3.66667 12.4302 3.75446 12.5865 3.91074C12.7428 4.06702 12.8306 4.27899 12.8306 4.5V5.54333C12.8305 5.7283 12.8919 5.90804 13.0052 6.05423C13.1185 6.20043 13.2773 6.30478 13.4564 6.35083C14.4831 6.61679 15.4176 7.15824 16.1589 7.91667C16.2885 8.04872 16.4583 8.13391 16.6416 8.15881C16.8249 8.1837 17.0113 8.14689 17.1714 8.05417L18.0747 7.53167C18.1695 7.47609 18.2744 7.43981 18.3833 7.42492C18.4922 7.41003 18.6029 7.41683 18.7092 7.44492C18.8154 7.47301 18.9151 7.52184 19.0024 7.58859C19.0897 7.65535 19.1629 7.73872 19.2179 7.83389C19.2728 7.92907 19.3084 8.03417 19.3226 8.14316C19.3367 8.25214 19.3292 8.36285 19.3004 8.46891C19.2716 8.57497 19.2221 8.67429 19.1548 8.76114C19.0875 8.848 19.0036 8.92068 18.9081 8.975L18.0047 9.49667C17.8456 9.58892 17.7215 9.73123 17.6517 9.90141C17.5819 10.0716 17.5704 10.2601 17.6189 10.4375V10.4367Z" fill="#a1a7ad"/>
</svg>
