<svg width="24" height="24" viewBox="0 0 24 24" fill="none" xmlns="http://www.w3.org/2000/svg">
<path d="M2.47254 14.1064L5.70544 17.3393C5.86263 17.4911 6.07316 17.5751 6.29168 17.5732C6.51021 17.5713 6.71925 17.4837 6.87377 17.3291C7.0283 17.1746 7.11595 16.9656 7.11785 16.747C7.11975 16.5285 7.03574 16.318 6.88393 16.1608L3.65102 12.9279C3.55497 12.8299 3.47103 12.7208 3.40099 12.6029C3.41349 12.6029 3.42349 12.6095 3.43599 12.6095L16.5076 12.5829C16.7287 12.5829 16.9407 12.495 17.097 12.3387C17.2533 12.1824 17.3411 11.9705 17.3411 11.7494C17.3411 11.5284 17.2533 11.3164 17.097 11.1601C16.9407 11.0038 16.7287 10.916 16.5076 10.916L3.44099 10.9427C3.41766 10.9427 3.39849 10.9543 3.37599 10.956C3.44991 10.815 3.54366 10.6853 3.65436 10.5709L6.88726 7.33804C6.96686 7.26115 7.03035 7.16919 7.07403 7.0675C7.11771 6.96582 7.1407 6.85646 7.14167 6.7458C7.14263 6.63513 7.12154 6.52539 7.07963 6.42296C7.03773 6.32053 6.97584 6.22748 6.89759 6.14922C6.81933 6.07097 6.72628 6.00908 6.62385 5.96718C6.52143 5.92527 6.41168 5.90418 6.30102 5.90515C6.19035 5.90611 6.08099 5.9291 5.97931 5.97278C5.87762 6.01646 5.78566 6.07995 5.70878 6.15955L2.47587 9.39246C1.85089 10.0176 1.4998 10.8654 1.4998 11.7494C1.4998 12.6334 1.85089 13.4812 2.47587 14.1064H2.47254Z" fill="#142232"/>
<path d="M15.665 3.41438H17.3318C17.995 3.41438 18.6309 3.6778 19.0998 4.1467C19.5687 4.6156 19.8321 5.25156 19.8321 5.91469L19.8321 17.5828C19.8321 18.2459 19.5687 18.8819 19.0998 19.3508C18.6309 19.8197 17.995 20.0831 17.3318 20.0831H15.665C15.4439 20.0831 15.2319 20.1709 15.0756 20.3272C14.9193 20.4835 14.8315 20.6955 14.8315 20.9166C14.8315 21.1376 14.9193 21.3496 15.0756 21.5059C15.2319 21.6622 15.4439 21.75 15.665 21.75H17.3318C18.4366 21.7487 19.4958 21.3092 20.277 20.528C21.0582 19.7468 21.4977 18.6876 21.499 17.5828V5.91469C21.4977 4.80989 21.0582 3.75072 20.277 2.9695C19.4958 2.18829 18.4366 1.74882 17.3318 1.7475H15.665C15.4439 1.7475 15.2319 1.83531 15.0756 1.99161C14.9193 2.14791 14.8315 2.3599 14.8315 2.58094C14.8315 2.80198 14.9193 3.01397 15.0756 3.17027C15.2319 3.32657 15.4439 3.41438 15.665 3.41438Z" fill="#142232"/>
</svg>
