<svg width="24" height="24" viewBox="0 0 24 24" fill="none" xmlns="http://www.w3.org/2000/svg">
<path d="M7.83333 2H5.33333C4.44928 2 3.60143 2.35119 2.97631 2.97631C2.35119 3.60143 2 4.44928 2 5.33333L2 7.83333C2 8.71739 2.35119 9.56523 2.97631 10.1904C3.60143 10.8155 4.44928 11.1667 5.33333 11.1667H7.83333C8.71739 11.1667 9.56523 10.8155 10.1904 10.1904C10.8155 9.56523 11.1667 8.71739 11.1667 7.83333V5.33333C11.1667 4.44928 10.8155 3.60143 10.1904 2.97631C9.56523 2.35119 8.71739 2 7.83333 2V2ZM9.5 7.83333C9.5 8.27536 9.3244 8.69928 9.01184 9.01184C8.69928 9.3244 8.27536 9.5 7.83333 9.5H5.33333C4.8913 9.5 4.46738 9.3244 4.15482 9.01184C3.84226 8.69928 3.66667 8.27536 3.66667 7.83333V5.33333C3.66667 4.8913 3.84226 4.46738 4.15482 4.15482C4.46738 3.84226 4.8913 3.66667 5.33333 3.66667H7.83333C8.27536 3.66667 8.69928 3.84226 9.01184 4.15482C9.3244 4.46738 9.5 4.8913 9.5 5.33333V7.83333Z" fill="#142232"/>
<path d="M7.83333 12.8333H5.33333C4.44928 12.8333 3.60143 13.1844 2.97631 13.8096C2.35119 14.4347 2 15.2825 2 16.1666L2 18.6666C2 19.5507 2.35119 20.3985 2.97631 21.0236C3.60143 21.6487 4.44928 21.9999 5.33333 21.9999H7.83333C8.71739 21.9999 9.56523 21.6487 10.1904 21.0236C10.8155 20.3985 11.1667 19.5507 11.1667 18.6666V16.1666C11.1667 15.2825 10.8155 14.4347 10.1904 13.8096C9.56523 13.1844 8.71739 12.8333 7.83333 12.8333ZM9.5 18.6666C9.5 19.1086 9.3244 19.5325 9.01184 19.8451C8.69928 20.1577 8.27536 20.3333 7.83333 20.3333H5.33333C4.8913 20.3333 4.46738 20.1577 4.15482 19.8451C3.84226 19.5325 3.66667 19.1086 3.66667 18.6666V16.1666C3.66667 15.7246 3.84226 15.3006 4.15482 14.9881C4.46738 14.6755 4.8913 14.4999 5.33333 14.4999H7.83333C8.27536 14.4999 8.69928 14.6755 9.01184 14.9881C9.3244 15.3006 9.5 15.7246 9.5 16.1666V18.6666Z" fill="#142232"/>
<path d="M20.5777 17.8743L18.6669 19.7826V4.19426L20.5777 6.1026C20.6552 6.17997 20.7471 6.24133 20.8482 6.28318C20.9493 6.32503 21.0577 6.34656 21.1672 6.34652C21.2766 6.34648 21.385 6.32488 21.4861 6.28296C21.5872 6.24103 21.6791 6.17961 21.7565 6.10218C21.8338 6.02476 21.8952 5.93285 21.9371 5.83171C21.9789 5.73057 22.0004 5.62218 22.0004 5.51272C22.0004 5.40326 21.9788 5.29488 21.9368 5.19377C21.8949 5.09266 21.8335 5.0008 21.7561 4.92343L19.6002 2.77093C19.1315 2.30276 18.4961 2.03979 17.8336 2.03979C17.1711 2.03979 16.5357 2.30276 16.0669 2.77093L13.9111 4.92343C13.8337 5.0008 13.7722 5.09266 13.7303 5.19377C13.6884 5.29488 13.6668 5.40326 13.6667 5.51272C13.6667 5.62218 13.6882 5.73057 13.7301 5.83171C13.7719 5.93285 13.8333 6.02476 13.9107 6.10218C13.988 6.17961 14.0799 6.24103 14.181 6.28296C14.2821 6.32488 14.3905 6.34648 14.5 6.34652C14.6094 6.34656 14.7178 6.32503 14.8189 6.28318C14.9201 6.24133 15.012 6.17997 15.0894 6.1026L17.0002 4.19426V19.7826L15.0894 17.8743C15.012 17.7969 14.9201 17.7355 14.8189 17.6937C14.7178 17.6518 14.6094 17.6303 14.5 17.6304C14.3905 17.6304 14.2821 17.652 14.181 17.6939C14.0799 17.7358 13.988 17.7973 13.9107 17.8747C13.8333 17.9521 13.7719 18.044 13.7301 18.1452C13.6882 18.2463 13.6667 18.3547 13.6667 18.4641C13.6668 18.5736 13.6884 18.682 13.7303 18.7831C13.7722 18.8842 13.8337 18.9761 13.9111 19.0534L16.0669 21.2059C16.5357 21.6741 17.1711 21.9371 17.8336 21.9371C18.4961 21.9371 19.1315 21.6741 19.6002 21.2059L21.7561 19.0534C21.8335 18.9761 21.8949 18.8842 21.9368 18.7831C21.9788 18.682 22.0004 18.5736 22.0004 18.4641C22.0004 18.3547 21.9789 18.2463 21.9371 18.1452C21.8952 18.044 21.8338 17.9521 21.7565 17.8747C21.6791 17.7973 21.5872 17.7358 21.4861 17.6939C21.385 17.652 21.2766 17.6304 21.1672 17.6304C21.0577 17.6303 20.9493 17.6518 20.8482 17.6937C20.7471 17.7355 20.6552 17.7969 20.5777 17.8743Z" fill="#142232"/>
</svg>
