<svg width="24" height="24" viewBox="0 0 24 24" fill="none" xmlns="http://www.w3.org/2000/svg">
<path d="M20.7497 5.31348H18.178C18.0132 5.31351 17.8521 5.36241 17.7151 5.45398C17.5781 5.54555 17.4714 5.67568 17.4083 5.82793C17.3452 5.98018 17.3287 6.14771 17.3609 6.30934C17.393 6.47096 17.4724 6.61943 17.5889 6.73598L18.4939 7.64098L15.5055 10.6285C15.3467 10.7802 15.1356 10.8649 14.9159 10.8649C14.6963 10.8649 14.4851 10.7802 14.3264 10.6285L14.1847 10.486C13.7085 10.031 13.0753 9.77716 12.4168 9.77716C11.7582 9.77716 11.125 10.031 10.6489 10.486L6.39886 14.736C6.24227 14.893 6.15447 15.1058 6.15479 15.3276C6.1551 15.5493 6.24349 15.7619 6.40052 15.9185C6.55755 16.0751 6.77036 16.1629 6.99212 16.1625C7.21388 16.1622 7.42643 16.0738 7.58302 15.9168L11.833 11.6668C11.9917 11.5149 12.2029 11.4301 12.4226 11.4301C12.6423 11.4301 12.8535 11.5149 13.0122 11.6668L13.1539 11.8093C13.6302 12.2639 14.2633 12.5175 14.9218 12.5175C15.5802 12.5175 16.2133 12.2639 16.6897 11.8093L19.678 8.82098L20.583 9.72598C20.7 9.8406 20.8481 9.91823 21.0089 9.94918C21.1697 9.98013 21.336 9.96302 21.4871 9.89999C21.6383 9.83696 21.7675 9.73081 21.8586 9.59478C21.9498 9.45875 21.9989 9.29889 21.9997 9.13514V6.56348C21.9997 6.23196 21.868 5.91401 21.6336 5.67959C21.3992 5.44517 21.0812 5.31348 20.7497 5.31348Z" fill="#a1a7ad"/>
<path d="M21.1667 20.3133H6.16667C5.50363 20.3133 4.86774 20.0499 4.3989 19.5811C3.93006 19.1123 3.66667 18.4764 3.66667 17.8133V2.83333C3.66667 2.61232 3.57887 2.40036 3.42259 2.24408C3.26631 2.0878 3.05435 2 2.83333 2C2.61232 2 2.40036 2.0878 2.24408 2.24408C2.0878 2.40036 2 2.61232 2 2.83333V17.8133C2.00132 18.918 2.44073 19.977 3.22185 20.7582C4.00296 21.5393 5.062 21.9787 6.16667 21.98H21.1667C21.3877 21.98 21.5996 21.8922 21.7559 21.7359C21.9122 21.5796 22 21.3677 22 21.1467C22 20.9257 21.9122 20.7137 21.7559 20.5574C21.5996 20.4011 21.3877 20.3133 21.1667 20.3133Z" fill="#a1a7ad"/>
</svg>
