<svg width="24" height="24" viewBox="0 0 24 24" fill="none" xmlns="http://www.w3.org/2000/svg">
<path d="M21.389 9.63458C20.097 7.53036 17.1581 4 12 4C6.84191 4 3.903 7.53036 2.61098 9.63458C2.21157 10.2806 2 11.0251 2 11.7846C2 12.5441 2.21157 13.2886 2.61098 13.9347C3.903 16.0389 6.84191 19.5692 12 19.5692C17.1581 19.5692 20.097 16.0389 21.389 13.9347C21.7884 13.2886 22 12.5441 22 11.7846C22 11.0251 21.7884 10.2806 21.389 9.63458ZM19.9687 13.0625C18.8591 14.8668 16.3476 17.9032 12 17.9032C7.65244 17.9032 5.14087 14.8668 4.03129 13.0625C3.79399 12.6785 3.6683 12.236 3.6683 11.7846C3.6683 11.3332 3.79399 10.8907 4.03129 10.5068C5.14087 8.70242 7.65244 5.66605 12 5.66605C16.3476 5.66605 18.8591 8.69909 19.9687 10.5068C20.206 10.8907 20.3317 11.3332 20.3317 11.7846C20.3317 12.236 20.206 12.6785 19.9687 13.0625Z" fill="#142232"/>
<path d="M11.9998 7.61938C11.1761 7.61938 10.3708 7.86366 9.68582 8.32133C9.00087 8.779 8.46702 9.42951 8.15177 10.1906C7.83652 10.9517 7.75404 11.7891 7.91475 12.5971C8.07546 13.405 8.47215 14.1472 9.05466 14.7297C9.63716 15.3122 10.3793 15.7089 11.1873 15.8696C11.9952 16.0303 12.8327 15.9478 13.5938 15.6326C14.3548 15.3173 15.0053 14.7835 15.463 14.0985C15.9207 13.4136 16.165 12.6083 16.165 11.7845C16.1636 10.6803 15.7244 9.62161 14.9436 8.84078C14.1627 8.05996 13.1041 7.62071 11.9998 7.61938ZM11.9998 14.2836C11.5056 14.2836 11.0224 14.137 10.6114 13.8624C10.2005 13.5878 9.88015 13.1975 9.691 12.7409C9.50185 12.2842 9.45236 11.7817 9.54879 11.297C9.64521 10.8122 9.88323 10.3669 10.2327 10.0174C10.5822 9.66789 11.0275 9.42988 11.5123 9.33345C11.9971 9.23703 12.4996 9.28652 12.9562 9.47566C13.4128 9.66481 13.8031 9.98513 14.0777 10.3961C14.3523 10.8071 14.4989 11.2902 14.4989 11.7845C14.4989 12.4473 14.2356 13.083 13.767 13.5516C13.2983 14.0203 12.6626 14.2836 11.9998 14.2836Z" fill="#142232"/>
</svg>
